<?xml version="1.0" encoding="utf-8"?>
<!-- Generator: Adobe Illustrator 24.3.0, SVG Export Plug-In . SVG Version: 6.00 Build 0)  -->
<svg version="1.1" id="Layer_1" xmlns="http://www.w3.org/2000/svg" xmlns:xlink="http://www.w3.org/1999/xlink" x="0px" y="0px"
	 viewBox="0 0 200 200" style="enable-background:new 0 0 200 200;" xml:space="preserve">
<style type="text/css">
	.st0{fill:#FFFFFF;}
</style>
<path class="st0" d="M156.5,55.1h-5.3v-5c0-1-0.8-1.9-1.9-1.9H138c-1,0-1.9,0.8-1.9,1.9v5H74.4v-5c0-1-0.8-1.9-1.9-1.9l0,0H61.2
	c-1,0-1.9,0.8-1.9,1.9v5H55c-4.6,0-8.3,3.7-8.3,8.3v45.5c0,1,0.8,1.9,1.9,1.9c1,0,1.9-0.8,1.9-1.9l0,0V63.4c0-2.5,2-4.5,4.5-4.5
	h101.5c2,0,3.6,1.6,3.6,3.6v61.8c0,2-1.6,3.6-3.6,3.6h-4v-7.1c0-1-0.8-1.9-1.9-1.9h-20.1c-1,0-1.9,0.8-1.9,1.9v7.1h-30l7.1-1.9
	c3.6-1,6.9-3.1,9.3-6l12-14.6c0.2-0.3,0.4-0.6,0.4-1l1.1-14c0.1-1.4-0.7-2.7-2-3.3c0.9-0.5,1.2-1.6,0.7-2.5c-0.3-0.6-1-1-1.7-1h-8.2
	c-1,0-1.9,0.8-1.9,1.9c0,1,0.8,1.9,1.9,1.9h6.1c-0.2,0.1-0.4,0.3-0.6,0.5l-6.9,6.9c-1.3,1.4-2.5,2.9-3.6,4.4c-0.6,0.8-0.5,2,0.3,2.6
	s2,0.5,2.6-0.3l2.2-2.7l5.5,5.5l-10.9,13.3c-1.9,2.3-4.5,4-7.4,4.8l-29.5,8.5c-2.3,0.7-1.1,4.3,1.1,3.6l6.5-2.1V148h-2.6
	c-1,0-1.9,0.8-1.9,1.9c0,1,0.8,1.9,1.9,1.9h11.4c1,0,1.9-0.8,1.9-1.9c0-1-0.8-1.9-1.9-1.9l0,0h-5.1v-16.3h69.8
	c4.1,0,7.4-3.3,7.4-7.4V62.5C163.8,58.4,160.5,55.1,156.5,55.1z M139.9,52h7.5v3.1h-7.5V52z M63.1,52h7.5v3.1h-7.5V52z M124.7,91.3
	l-0.7,8.7l-4-4L124.7,91.3z M132.4,127.9v-5.2h16.4v5.2H132.4z"/>
<path class="st0" d="M71.3,148h-24v-9.9c0-6.3,1.5-12.6,4.2-18.3c1.5-3.1,4.7-5.1,8.2-5.1h31.5c6.6,0,13-2.3,18-6.6
	c0.8-0.7,0.9-1.8,0.2-2.6s-1.8-0.9-2.6-0.2l0,0c-4.4,3.7-9.9,5.7-15.6,5.7H77.7c2.2-2.3,3.4-5.3,3.4-8.4v-6.9
	c5.1-0.4,8.9-4.9,8.5-9.9c-0.4-4.8-4.3-8.4-9.1-8.5c-3.1-0.1-6.1,0.7-8.2,3c-1.1,1.2-2.6,1.8-4.2,1.8H63c-4.3,0-7.8,3.5-7.8,7.8v14
	c0,1.6,0.4,3.1,1.3,4.4c0.4,0.6,1,1.1,1.6,1.5c0.7,0.4,1.6,0.6,2.1,1.1c-5.1-0.1-9.7,2.7-12,7.2c-3,6.2-4.6,13-4.6,20v9.9H38
	c-1,0-1.9,0.8-1.9,1.9c0,1,0.8,1.9,1.9,1.9l0,0h33.3c1,0,1.9-0.8,1.9-1.9C73.2,148.8,72.4,148,71.3,148z M68.4,111
	c-1-0.1-2.1-0.3-3-0.8c0.4-0.2,0.8-0.5,1.2-0.8c1.6-1.3,2.5-3.3,2.4-5.3v-8.3h8.3v6.8c0,4.6-3.7,8.4-8.4,8.4H68.4z M58.9,103.9v-14
	c0-2.2,1.8-4,4-4h5.1c2.6,0,5.1-1.1,6.9-3c1.5-1.6,3.5-1.9,5.5-1.8c3,0,5.5,2.5,5.5,5.5s-2.5,5.5-5.5,5.5H67.2c-1,0-1.9,0.8-1.9,1.9
	c0,0,0,0,0,0v10.2c0,1.8-1.5,3.2-3.2,3.2c-0.3,0-0.5,0-0.8-0.1C59.8,107,58.7,105.6,58.9,103.9L58.9,103.9z"/>
<path class="st0" d="M100.2,76.8h10.2c1,0,1.9-0.8,1.9-1.9c0,0,0,0,0,0V68c0-1-0.8-1.9-1.9-1.9c0,0,0,0,0,0h-10.2
	c-1,0-1.9,0.8-1.9,1.9c0,0,0,0,0,0v6.9C98.3,75.9,99.1,76.8,100.2,76.8C100.2,76.8,100.2,76.8,100.2,76.8z M102.1,69.9h6.4v3.1h-6.4
	V69.9z"/>
<path class="st0" d="M98.3,88.9c0,1,0.8,1.9,1.9,1.9c0,0,0,0,0,0h10.2c1,0,1.9-0.8,1.9-1.9c0,0,0,0,0,0V82c0-1-0.8-1.9-1.9-1.9
	c0,0,0,0,0,0h-10.2c-1,0-1.9,0.8-1.9,1.9c0,0,0,0,0,0V88.9z M102,83.9h6.4V87H102V83.9z"/>
<path class="st0" d="M117.4,73.3h33.2c1,0,1.9-0.8,1.9-1.9c0-1-0.8-1.9-1.9-1.9h-33.2c-1,0-1.9,0.8-1.9,1.9
	C115.6,72.5,116.4,73.3,117.4,73.3z"/>
</svg>
