<?xml version="1.0" encoding="utf-8"?>
<!-- Generator: Adobe Illustrator 24.3.0, SVG Export Plug-In . SVG Version: 6.00 Build 0)  -->
<svg version="1.1" id="Layer_1" xmlns="http://www.w3.org/2000/svg" xmlns:xlink="http://www.w3.org/1999/xlink" x="0px" y="0px"
	 viewBox="0 0 200 200" style="enable-background:new 0 0 200 200;" xml:space="preserve">
<style type="text/css">
	.st0{fill:#FFFFFF;}
</style>
<path class="st0" d="M50.4,125h-3.9c0,8.7,8.9,17.6,17.6,17.6v-3.9C57.6,138.7,50.4,131.5,50.4,125z"/>
<path class="st0" d="M159,92.5c-1.3-1.9-3.1-3.5-5.2-4.7c4.4-7.4,1.9-17-5.5-21.3c-1.9-1.1-4-1.8-6.1-2c-0.9-7.9-7.6-13.8-15.5-13.8
	h-0.2c-1.1-6.4-7.1-10.7-13.5-9.6c-3.2,0.5-6.1,2.4-7.9,5.1c-3.6-5.4-10.8-6.9-16.2-3.3c-2.7,1.8-4.6,4.7-5.1,7.9
	c-7.2,0.8-12.8,6.4-13.7,13.6H70c-8.6,0-15.7,7-15.7,15.6c0,0,0,0,0,0c0,1.6,0.3,3.3,0.8,4.8c-7.1,5-8.7,14.7-3.8,21.8
	c1.3,1.9,3.1,3.5,5.2,4.6c-4.4,7.4-1.9,17,5.6,21.4c1.9,1.1,3.9,1.8,6.1,2c0.9,7.9,7.6,13.8,15.5,13.8h0.2c1,6.4,7.1,10.7,13.4,9.7
	c3.2-0.5,6.1-2.4,7.9-5.1c3.6,5.4,10.8,6.9,16.2,3.3c2.8-1.8,4.6-4.7,5.1-8c7.1-0.8,12.8-6.4,13.7-13.6h0.1c8.6,0,15.6-7,15.7-15.6
	c0-1.7-0.3-3.3-0.8-4.9C162.3,109.3,164,99.6,159,92.5C159,92.5,159,92.5,159,92.5z M146.2,113.3v3.9c1.9,0,3.7-0.3,5.5-1
	c1.7,6.2-2,12.6-8.3,14.3c-1,0.3-2,0.4-3.1,0.4h-0.1c-0.6-4.7-3.3-8.9-7.3-11.4l-2.1,3.3c5.5,3.4,7.2,10.6,3.8,16.1
	c-1.8,2.9-4.8,4.9-8.2,5.5c-0.5-2.6-1.8-4.9-3.7-6.6l-2.6,2.9c3.2,2.9,3.5,7.8,0.7,11s-7.8,3.5-11,0.7c-1.7-1.5-2.6-3.6-2.6-5.9
	v-3.9h-3.9v3.9c0,4.3-3.5,7.8-7.8,7.8c-4.3,0-7.8-3.5-7.8-7.8c0-2.5,1.2-4.8,3.1-6.3l-2.3-3.1c-2.4,1.8-4,4.5-4.5,7.4h-0.2
	c-5.8,0-10.7-4.2-11.6-9.9c0.8-0.1,1.6-0.3,2.4-0.5l-1.1-3.8c-6.2,1.8-12.7-1.7-14.6-7.9c-1.8-6.2,1.7-12.7,7.9-14.6
	c1.1-0.3,2.2-0.5,3.3-0.5c1.7,0,3.4,0.4,5,1.1l1.7-3.5c-6-2.8-13.1-1.6-17.8,3.1c-5.8-2.9-8.2-9.9-5.3-15.7c2-4,6.1-6.5,10.5-6.5V82
	c-1.9,0-3.7,0.3-5.5,1c-1.7-6.2,2.1-12.6,8.3-14.3c1-0.3,2-0.4,3-0.4H70c0.6,4.7,3.3,8.9,7.3,11.4l2-3.3c-5.5-3.4-7.2-10.6-3.8-16.1
	c1.8-2.9,4.8-4.9,8.2-5.4c0.5,2.6,1.8,4.9,3.7,6.6l2.6-2.9c-3.2-2.9-3.5-7.8-0.7-11s7.8-3.5,11-0.7c1.7,1.5,2.7,3.6,2.6,5.9v3.9h3.9
	v-3.9c0-4.3,3.5-7.8,7.8-7.8s7.8,3.5,7.8,7.8c0,2.5-1.2,4.8-3.1,6.3L122,62c2.4-1.8,4-4.5,4.5-7.4h0.2c5.8,0,10.7,4.2,11.6,9.9
	c-0.8,0.1-1.6,0.3-2.4,0.5l1.1,3.8c6.2-1.8,12.7,1.7,14.6,7.9c1.8,6.2-1.7,12.7-7.9,14.6c-2.8,0.8-5.7,0.6-8.4-0.6l-1.7,3.5
	c6,2.8,13.1,1.6,17.8-3.1c5.8,2.9,8.2,9.9,5.3,15.7C154.8,110.7,150.7,113.3,146.2,113.3L146.2,113.3z"/>
<path class="st0" d="M99.3,73.2c-7,2.5-11.7,9.1-11.7,16.6h3.9c0-5.8,3.7-11,9.1-12.9L99.3,73.2z"/>
<path class="st0" d="M103.2,72.3l0.4,3.9c1-0.1,2-0.1,3.1,0l0.4-3.9C105.8,72.2,104.5,72.2,103.2,72.3z"/>
<path class="st0" d="M126.6,76.1c-7.6-11.8-23.3-15.3-35.1-7.7s-15.3,23.3-7.7,35.1c2,3.1,4.6,5.7,7.7,7.7v4.4c-3,1-4.6,4.4-3.6,7.4
	c0.3,0.8,0.7,1.4,1.2,2c-2.2,2.4-2,6.1,0.4,8.2c1.1,1,2.5,1.5,4,1.5h23.5c3.2,0,5.9-2.6,5.9-5.8c0-1.5-0.5-2.9-1.5-4
	c2.2-2.4,2-6-0.4-8.2c0,0,0,0,0,0c-0.6-0.5-1.3-0.9-2-1.2v-4.4C130.7,103.6,134.1,87.9,126.6,76.1z M116.9,130.9H93.4
	c-1.1,0.2-2.1-0.5-2.4-1.5c-0.2-1.1,0.5-2.1,1.5-2.4c0.3-0.1,0.6-0.1,0.8,0h23.5c1.1-0.2,2.1,0.5,2.4,1.5c0.2,1.1-0.5,2.1-1.5,2.4
	C117.4,130.9,117.2,130.9,116.9,130.9z M116.9,123H93.4c-1.1,0.2-2.1-0.5-2.4-1.5c-0.2-1.1,0.5-2.1,1.5-2.4c0.3-0.1,0.6-0.1,0.8,0
	h23.5c1.1-0.2,2.1,0.5,2.4,1.5c0.2,1.1-0.5,2.1-1.5,2.4C117.4,123.1,117.2,123.1,116.9,123z M115.9,108.4c-0.6,0.3-1,1-1,1.7v5.1
	h-7.8v-10.9l7.2-7.2l-2.8-2.8l-6.4,6.4l-6.4-6.4L96,97.1l7.2,7.2v10.9h-7.9v-5.1c0-0.7-0.4-1.3-1-1.7c-10.3-5.9-13.8-19.1-7.9-29.4
	c5.9-10.3,19.1-13.8,29.4-7.9c10.3,5.9,13.8,19.1,7.9,29.4C121.9,103.8,119.1,106.5,115.9,108.4z"/>
<path class="st0" d="M48.4,117.2L48.4,117.2c1.1,0,2,0.9,2,2l0,0c0,1.1-0.9,2-2,2h0c-1.1,0-2-0.9-2-2l0,0
	C46.5,118,47.4,117.2,48.4,117.2z"/>
<path class="st0" d="M146.2,56.6v3.9c6.5,0,13.7,7.2,13.7,13.7h3.9C163.8,65.4,154.9,56.6,146.2,56.6z"/>
<path class="st0" d="M161.9,78.1L161.9,78.1c1.1,0,2,0.9,2,2l0,0c0,1.1-0.9,2-2,2l0,0c-1.1,0-2-0.9-2-2l0,0
	C159.9,78.9,160.8,78.1,161.9,78.1z"/>
</svg>
