<?xml version="1.0" encoding="utf-8"?>
<!-- Generator: Adobe Illustrator 24.3.0, SVG Export Plug-In . SVG Version: 6.00 Build 0)  -->
<svg version="1.1" id="Layer_1" xmlns="http://www.w3.org/2000/svg" xmlns:xlink="http://www.w3.org/1999/xlink" x="0px" y="0px"
	 viewBox="0 0 200 200" style="enable-background:new 0 0 200 200;" xml:space="preserve">
<style type="text/css">
	.st0{fill:#FFFFFF;}
</style>
<path class="st0" d="M152.4,114.3V76.3c7.4-1.1,12.5-7.9,11.5-15.3c-1.1-7.4-7.9-12.5-15.3-11.5c-6.7,1-11.6,6.7-11.6,13.4H44v77.4
	h58.2c1,17.1,15.7,30,32.8,29s30-15.7,29-32.8C163.4,127.8,159.2,119.7,152.4,114.3L152.4,114.3z M150.4,53.3c5.3,0,9.7,4.3,9.7,9.7
	s-4.3,9.7-9.7,9.7s-9.7-4.3-9.7-9.7c0,0,0,0,0,0C140.7,57.6,145.1,53.3,150.4,53.3L150.4,53.3z M47.8,66.8h89.6
	c0.5,1.5,1.2,2.9,2.1,4.2l-11.8,11.9c-1.6-0.8-3.4-0.8-5,0l-3.9-3.9c1.4-2.9,0.2-6.4-2.7-7.8c-2.9-1.4-6.4-0.2-7.8,2.7
	c-0.8,1.6-0.8,3.5,0,5.1l-9.7,9.7c-0.8-0.4-1.6-0.6-2.5-0.6c-3.2,0-5.9,2.6-5.9,5.8c0,3.2,2.6,5.9,5.8,5.9c3.2,0,5.9-2.6,5.9-5.8
	c0-0.9-0.2-1.8-0.6-2.6l9.7-9.7c0.8,0.4,1.6,0.6,2.5,0.6c0.9,0,1.7-0.2,2.5-0.6l3.9,3.9c-1.4,2.9-0.2,6.4,2.6,7.8s6.4,0.2,7.8-2.6
	c0.4-0.8,0.6-1.7,0.6-2.6c0-0.9-0.2-1.7-0.6-2.5l11.8-11.8c1.8,1.4,3.9,2.2,6.2,2.6v35.3c-12.7-7.4-29-4.7-38.7,6.4v-8.6H98.2v23.2
	h4.4c-0.2,1.3-0.4,2.6-0.5,3.9H47.8V66.8z M125.3,86.2c1.1,0,1.9,0.9,1.9,1.9c0,1.1-0.9,1.9-1.9,1.9c-1.1,0-1.9-0.9-1.9-1.9
	c0,0,0,0,0,0C123.3,87,124.2,86.1,125.3,86.2z M111.7,76.5c0-1.1,0.9-1.9,1.9-1.9c1.1,0,1.9,0.9,1.9,1.9c0,1.1-0.9,1.9-1.9,1.9
	C112.6,78.4,111.7,77.6,111.7,76.5C111.7,76.5,111.7,76.5,111.7,76.5z M98.2,93.9c0,1.1-0.8,2-1.9,2c-1.1,0-2-0.8-2-1.9
	c0-1.1,0.8-2,1.9-2c0,0,0,0,0.1,0C97.3,92,98.1,92.8,98.2,93.9z M133,153.9c-8.6,0-15.5-6.9-15.5-15.5s6.9-15.5,15.5-15.5
	s15.5,6.9,15.5,15.5c0,0,0,0,0,0C148.5,147,141.5,153.9,133,153.9z M105.9,123.4c-0.9,1.7-1.7,3.5-2.3,5.3H102v-15.5h3.9
	L105.9,123.4z M131.1,111.4v7.7c-9.9,1-17.4,9.3-17.4,19.3c0,2.7,0.6,5.4,1.7,7.9l-6.7,3.9c-1.8-3.7-2.8-7.7-2.8-11.8
	C105.9,124.3,116.9,112.5,131.1,111.4L131.1,111.4z M133,165.5c-9,0-17.4-4.5-22.4-11.9l6.7-3.9c6.2,8.7,18.3,10.7,26.9,4.5
	c1.7-1.2,3.2-2.7,4.5-4.5l6.7,3.9C150.4,161,142,165.5,133,165.5z M157.3,150.2l-6.7-3.9c1.1-2.5,1.7-5.2,1.7-7.9
	c0-9.9-7.5-18.3-17.4-19.3v-7.7c14.2,1,25.1,12.8,25.2,27C160.1,142.5,159.2,146.6,157.3,150.2L157.3,150.2z"/>
<path class="st0" d="M133,126.8c-6.4,0-11.6,5.2-11.6,11.6c0,6.4,5.2,11.6,11.6,11.6c6.4,0,11.6-5.2,11.6-11.6c0,0,0,0,0,0
	C144.6,132,139.4,126.8,133,126.8z M133,146.1c-4.3,0-7.8-3.5-7.8-7.7s3.5-7.8,7.7-7.8c4.3,0,7.8,3.5,7.8,7.7c0,0,0,0,0,0
	C140.7,142.7,137.3,146.1,133,146.1z"/>
<path class="st0" d="M51.7,70.7h3.9v3.9h-3.9V70.7z"/>
<path class="st0" d="M59.5,70.7h27.1v3.9H59.5V70.7z"/>
<path class="st0" d="M51.7,78.4h3.9v3.9h-3.9V78.4z"/>
<path class="st0" d="M59.5,78.4h27.1v3.9H59.5V78.4z"/>
<path class="st0" d="M51.7,86.2h3.9V90h-3.9V86.2z"/>
<path class="st0" d="M59.5,86.2h27.1V90H59.5V86.2z"/>
<path class="st0" d="M51.7,93.9h3.9v3.9h-3.9V93.9z"/>
<path class="st0" d="M59.5,93.9h27.1v3.9H59.5V93.9z"/>
<path class="st0" d="M51.7,132.6h11.6v-19.4H51.7V132.6z M55.6,117.1h3.9v11.6h-3.9L55.6,117.1z"/>
<path class="st0" d="M67.2,132.6h11.6v-15.5H67.2V132.6z M71.1,121h3.9v7.7h-3.9V121z"/>
<path class="st0" d="M82.7,132.6h11.6v-31H82.7V132.6z M86.6,105.5h3.9v23.2h-3.9V105.5z"/>
</svg>
