<?xml version="1.0" encoding="utf-8"?>
<!-- Generator: Adobe Illustrator 24.3.0, SVG Export Plug-In . SVG Version: 6.00 Build 0)  -->
<svg version="1.1" id="Layer_1" xmlns="http://www.w3.org/2000/svg" xmlns:xlink="http://www.w3.org/1999/xlink" x="0px" y="0px"
	 viewBox="0 0 200 200" style="enable-background:new 0 0 200 200;" xml:space="preserve">
<style type="text/css">
	.st0{fill:#FFFFFF;}
</style>
<path class="st0" d="M115.7,132.1l0.1-0.1c0.4-0.2,1-0.4,1.4-0.6l0.3-0.1l0,0c2.4-0.9,4.1-2.9,4.6-5.4c0.5-2.4,0-5.3-1.3-8.5
	c7.9-0.4,13.3,0.7,20,2.9c1,0.3,2.1,0.5,3.2,0.5c1.8,0,3.6-0.6,5-1.9c2-1.8,2.8-4.6,2.1-7.2c-0.8-3.1-3.1-5.5-6.2-6.2
	c-5.8-1.7-17.5-5.2-30.4,1.1c-1.3-1.7-2.6-3.4-4-5.1l22.8-19l0.1-0.1c1.5-1.5,1.5-4,0-5.6l-7.1-7.1c-1.5-1.5-4-1.5-5.6,0l-0.1,0.1
	l-7,8.4c-0.6,0.7-0.6,1.7,0.1,2.3c0.7,0.6,1.7,0.6,2.3-0.1c0,0,0.1-0.1,0.1-0.1l6.9-8.3c0.2-0.2,0.6-0.2,0.8,0l7.1,7.1
	c0.1,0.1,0.2,0.3,0.2,0.4c0,0.1-0.1,0.3-0.1,0.4l-22.8,19c-0.7-0.7-1.3-1.3-1.9-2h-0.1c-0.7-0.7-1.4-1.3-2.2-2l7-8.5
	c0.6-0.7,0.4-1.8-0.3-2.3c-0.7-0.5-1.6-0.4-2.2,0.2l-7,8.4c-1.5-1.3-3.1-2.6-4.7-3.8c7.2-12.7,4.2-24.7,2.8-30.6
	c-0.6-3.1-2.9-5.6-5.9-6.5c-2.6-0.8-5.4-0.1-7.3,1.8c-1.1,1.1-2.8,3.6-1.6,8.1c1.9,7.1,2.8,12.8,1.8,21.1c-3.4-1.4-6.5-2.1-9.1-1.6
	C75,82,73,83.7,72.1,86.1L72,86.3c-0.1,0.3-0.4,1-0.6,1.4l-0.1,0.1l-2.1,5.9l0,0l-3.5,9.9l0,0L60.7,118l0,0l-1.5,4.3l-7,19.6
	c-1.3,3.6-0.9,6.6,1,8.3c1.1,1.2,2.8,1.9,4.4,1.8c1.3,0,2.7-0.3,3.9-0.7l19.5-7l4.4-1.6l0,0l14.3-5.1l0,0l10-3.5l0,0L115.7,132.1z
	 M144,108.9c1.9,0.4,3.4,1.9,3.9,3.8c0.4,1.4-0.1,3-1.1,4c-1.1,1-2.9,1.3-4.9,0.6c-7.3-2.4-13.5-3.7-22.5-3
	c-0.9-1.6-1.8-3.2-2.8-4.8C128,104.1,138.7,107.3,144,108.9L144,108.9z M88,61.1c-0.6-2.1-0.3-3.8,0.8-4.9c1.1-1,2.7-1.4,4.2-0.9
	c1.9,0.6,3.3,2.2,3.6,4.1c1.3,5.4,4,16.4-2.3,27.9c-1.5-1-3-1.9-4.5-2.7C91,75.1,90.1,69,88,61.1z M74.5,89c0.2-0.5,0.5-1.1,0.6-1.5
	c0-0.1,0.1-0.1,0.1-0.2l0,0c0.5-1.3,1.6-2.3,3-2.6c2.2-0.4,5.3,0.3,8.9,2.2c0.1,0.1,0.2,0.1,0.3,0.1c2.2,1.2,4.3,2.5,6.4,3.9
	c0.1,0.1,0.1,0.1,0.2,0.1l0,0c3.6,2.6,6.9,5.4,10.1,8.5c1,1,1.9,2,2.8,3l0,0l0,0c2,2.3,3.9,4.6,5.7,7.1c0.1,0.1,0.1,0.2,0.2,0.2
	c1.5,2.1,2.8,4.3,4,6.6c0,0.1,0.1,0.2,0.1,0.3c1.7,3.4,2.4,6.3,1.9,8.4c-0.3,1.4-1.3,2.5-2.6,3l0,0l-0.2,0.1c-0.4,0.1-1,0.4-1.5,0.6
	l-4.2,1.5c-2.2-7-8.3-14.7-12-18.8c-0.6-0.7-1.7-0.7-2.3-0.1c-0.7,0.6-0.7,1.7-0.1,2.3c5.8,6.6,9.9,13,11.3,17.8l-7.1,2.5
	c-2.7-5.4-7.3-11.5-13.2-17.6l0,0c-6-5.8-12.2-10.4-17.6-13.1l2.5-7.1c5,1.6,11.8,6,18.7,12.1c0.6,0.7,1.7,0.7,2.3,0
	c0.7-0.6,0.7-1.7,0-2.3c0,0-0.1-0.1-0.2-0.1c-7.1-6.4-14.2-11-19.7-12.7L74.5,89z M85.6,139.3c-2.9-4.2-6.1-8.1-9.6-11.7l0,0
	c-3.6-3.5-7.6-6.8-11.7-9.6l4.1-11.4c6,3.3,11.5,7.5,16.4,12.3c4.8,4.9,9,10.4,12.4,16.4L85.6,139.3z M80,141.3l-5.9,2.1
	c-2-2.6-4.2-5.1-6.5-7.4l0,0c-2.4-2.3-4.9-4.5-7.5-6.5l2.1-5.8l0.8-2.3c3.7,2.6,7.2,5.5,10.5,8.7c3.2,3.3,6.1,6.8,8.8,10.5L80,141.3
	z M60.4,148.3c-2.2,0.8-4,0.7-4.8-0.1c-0.1-0.1-0.1-0.2-0.2-0.2c-0.9-0.7-1-2.5-0.2-4.8l3.8-10.5c2.1,1.7,4.2,3.6,6.3,5.6
	s3.9,4.2,5.6,6.3L60.4,148.3z"/>
<path class="st0" d="M131.6,58.6l4.2,3c0,0.1,0.1,0.2,0.1,0.3l0.9,4.8c0,0.9,0.6,1.7,1.4,2.1c0.2,0.1,0.5,0.1,0.7,0.1
	c0.7,0,1.3-0.3,1.8-0.7l3.9-3c0.1-0.1,0.3-0.1,0.4-0.1l4.9,0.7c0.9,0.2,1.8-0.1,2.4-0.7c0.5-0.7,0.5-1.7,0.1-2.5l-1.6-4.6
	c0-0.1-0.1-0.2-0.1-0.3l2.2-4.7c0.7-1,0.6-2.3-0.4-3.1c-0.5-0.4-1.2-0.6-1.8-0.4l-5.1,0.1l-3.7-3.6c-0.6-0.7-1.5-1-2.4-0.9
	c-0.9,0.3-1.5,1.1-1.7,2l0,0l-1.4,4.9l-4.5,2.5c-1.2,0.4-1.8,1.6-1.4,2.8C130.5,57.9,131,58.4,131.6,58.6L131.6,58.6z M138,54.8
	c0.7-0.4,1.2-1.1,1.4-1.8l1-3.6l2.6,2.6l0.1,0.1c0.5,0.6,1.3,0.9,2.1,0.9l0,0l3.9-0.1l-1.6,3.5c-0.4,0.9-0.4,1.9,0,2.8l1.2,3.3
	l-3.4-0.5c-1-0.1-2,0.2-2.9,0.8l-2.7,2.1l-0.6-3.4c-0.1-1-0.6-1.8-1.4-2.4l-3.1-2.2L138,54.8z"/>
<path class="st0" d="M108.1,61.1l3.5,2c0.5,0.3,1,0.4,1.5,0.4c1.1,0,2-0.5,2.7-1.3l6.5-7.8c0.5-0.7,0.8-1.5,0.6-2.3
	c-0.2-1-0.8-1.8-1.6-2.3l-6.5-3.7c-0.8-0.5-1.9-0.6-2.8-0.2c-0.8,0.3-1.4,0.9-1.7,1.7l-3.5,9.5C106.2,58.5,106.7,60.3,108.1,61.1z
	 M109.9,58.1l3.4-9.1l6.2,3.6l-6.2,7.5l-0.1,0.1l-3.3-1.9C109.9,58.3,109.9,58.2,109.9,58.1L109.9,58.1z"/>
<path class="st0" d="M158.2,75.6c-0.7-0.9-1.8-1.3-2.9-1.3h-9.8c-1.1,0-2.2,0.5-2.9,1.3c-0.6,0.7-0.9,1.7-0.7,2.6l2.2,13.1
	c0.2,1.9,1.8,3.3,3.6,3.4h5.3c1.9-0.1,3.5-1.5,3.6-3.4l2.3-13.1C159.2,77.3,158.9,76.3,158.2,75.6L158.2,75.6z M153.5,90.8
	c0,0.3-0.2,0.6-0.4,0.6h-5.3c-0.2,0-0.3-0.4-0.4-0.6l-2.2-13c0.1-0.1,0.2-0.1,0.4-0.2h9.8c0.1,0,0.3,0.1,0.4,0.2L153.5,90.8z"/>
<path class="st0" d="M55.2,96.9c0.3,0,0.6,0,0.9-0.1l5.1-1.4c1.8-0.5,3-2.3,2.7-4.2L62.7,78c-0.1-0.9-0.6-1.8-1.4-2.3
	c-0.9-0.6-2.1-0.8-3.2-0.5l-9.4,2.5c-1.1,0.3-2,1-2.5,2c-0.4,0.9-0.4,1.9,0,2.7l5.6,12.1C52.3,95.9,53.7,96.9,55.2,96.9z M49.5,80.8
	L49.5,80.8l9.5-2.5c0.1,0,0.3,0,0.4,0l1.2,13.2c0,0.3,0,0.7-0.2,0.7l-5.1,1.4c-0.2,0-0.4-0.3-0.5-0.5l-5.5-12
	C49.3,80.9,49.4,80.9,49.5,80.8z"/>
<path class="st0" d="M129.6,144.5l-10-7.1c-1.4-1.1-3.5-1.1-4.8,0.2l-3.4,3.4c-1.2,1.3-1.3,3.3-0.2,4.8l7.1,10
	c0.5,0.7,1.4,1.2,2.3,1.3h0.3c1,0,1.9-0.4,2.6-1.1l6.4-6.4c0.8-0.8,1.1-1.8,1.1-2.9C130.8,145.8,130.3,145,129.6,144.5L129.6,144.5z
	 M127.4,147.3l-6.4,6.4c-0.1,0-0.1,0.1-0.2,0.1l-7-9.9c-0.1-0.1-0.2-0.3-0.2-0.5l3.4-3.5l0,0c0.2,0,0.3,0.1,0.5,0.2l9.9,7
	C127.5,147.2,127.4,147.3,127.4,147.3L127.4,147.3z"/>
<path class="st0" d="M56.6,58.7c0,0.2,0,0.3-0.1,0.5l-1.8,5c-0.4,0.8-0.4,1.8,0.1,2.6c0.7,0.7,1.6,1,2.5,0.7l5.3-0.7
	c0.2,0,0.4,0.1,0.5,0.1l4.2,3.3c0.5,0.4,1.1,0.7,1.8,0.8c0.3,0,0.5,0,0.7-0.1c0.8-0.4,1.4-1.3,1.4-2.2l1-5.2c0-0.2,0.1-0.3,0.1-0.5
	l4.6-3.2c1.2-0.5,1.7-1.8,1.3-2.9c-0.3-0.6-0.8-1.1-1.4-1.3L72,52.8l-1.5-5.4c-0.2-0.9-0.8-1.7-1.7-2c-0.9-0.2-1.9,0.2-2.5,0.9
	l-4,3.8l-0.1,0.1l-5.6-0.1c-0.9-0.1-1.8,0.3-2.4,1c-0.4,0.8-0.4,1.8,0.1,2.6L56.6,58.7z M62.2,53.5c0.9,0.1,1.7-0.3,2.2-0.9l3.1-3
	l1.2,4.2c0.2,0.8,0.7,1.5,1.5,1.9l3.9,2.1l-3.5,2.5c-0.8,0.6-1.4,1.5-1.5,2.6l-0.7,3.9l-3.1-2.4c-0.7-0.5-1.6-0.8-2.6-0.8
	c-0.1,0-0.3,0-0.4,0L58.3,64l1.3-3.8c0.4-1,0.4-2,0-3l-1.8-3.9L62.2,53.5z"/>
<path class="st0" d="M156.8,131.3l-5.5-1.4l-2.9-4.8c-0.4-0.9-1.2-1.4-2.2-1.5l0,0c-0.9,0.1-1.8,0.7-2.2,1.5l0,0l-2.8,4.7l-0.1,0.1
	l-5.5,1.4c-1.2,0.1-2.2,1.2-2.1,2.4c0,0.6,0.3,1.2,0.8,1.6l3.6,4.3c0,0.2,0,0.3,0,0.5l-0.4,5.3c-0.2,0.9,0.1,1.8,0.8,2.5
	c0.8,0.5,1.8,0.5,2.7,0.1l4.9-2c0.2,0,0.4,0,0.6,0l4.9,2.1c0.4,0.2,0.9,0.3,1.4,0.3c0.4,0,0.9-0.1,1.2-0.4c0.7-0.6,1-1.6,0.8-2.5
	l-0.4-5.3c0-0.2,0-0.3,0-0.5l3.6-4.3c0.7-0.6,1-1.6,0.8-2.5C158.5,132,157.7,131.4,156.8,131.3L156.8,131.3z M151.9,137.5
	c-0.6,0.8-0.9,1.8-0.8,2.9l0.3,4l-3.7-1.5c-1-0.4-2.1-0.4-3.1,0l-3.7,1.5l0.3-4c0.1-1-0.1-2-0.8-2.9l-2.8-3.3l4.3-1.1
	c0.8-0.2,1.6-0.7,1.9-1.5l2.2-3.7l2.1,3.6l0.1,0.1c0.4,0.8,1.1,1.3,1.9,1.5l4.3,1.1L151.9,137.5z"/>
</svg>
