<?xml version="1.0" encoding="utf-8"?>
<!-- Generator: Adobe Illustrator 24.3.0, SVG Export Plug-In . SVG Version: 6.00 Build 0)  -->
<svg version="1.1" id="Layer_1" xmlns="http://www.w3.org/2000/svg" xmlns:xlink="http://www.w3.org/1999/xlink" x="0px" y="0px"
	 viewBox="0 0 200 200" style="enable-background:new 0 0 200 200;" xml:space="preserve">
<style type="text/css">
	.st0{fill:#FFFFFF;}
</style>
<path class="st0" d="M50.6,145.6H100v-3.8H50.6c-3.1,0-5.7-2.6-5.7-5.7V52.5c0-3.1,2.5-5.7,5.7-5.7h83.6c3.1,0,5.7,2.6,5.7,5.7v43.7
	h3.8V52.5c0-5.2-4.3-9.5-9.5-9.5H50.6c-5.2,0-9.5,4.2-9.5,9.5v83.6C41.1,141.3,45.4,145.6,50.6,145.6z"/>
<path class="st0" d="M68.3,66.4l-4.8,4.8c-4.4-2.9-10.3-1.7-13.2,2.7c-2.9,4.4-1.7,10.3,2.7,13.2c4.4,2.9,10.3,1.7,13.2-2.7
	c2.1-3.2,2.1-7.3,0-10.5l4.9-4.8L68.3,66.4z M58.3,84.8c-3.1,0.1-5.8-2.4-5.8-5.6c-0.1-3.1,2.4-5.8,5.6-5.8c0.9,0,1.8,0.2,2.7,0.6
	l-3.8,3.8l2.7,2.7l3.8-3.8c1.4,2.8,0.2,6.2-2.6,7.6C60,84.6,59.1,84.8,58.3,84.8L58.3,84.8z"/>
<path class="st0" d="M73.4,73.4h32.3v3.8H73.4V73.4z"/>
<path class="st0" d="M73.4,81h13.3v3.8H73.4V81z"/>
<path class="st0" d="M90.5,81h26.6v3.8H90.5V81z"/>
<path class="st0" d="M109.5,73.4h19v3.8h-19V73.4z"/>
<path class="st0" d="M68.3,89.2L63.5,94c-4.4-2.9-10.3-1.7-13.2,2.7c-2.9,4.4-1.7,10.3,2.7,13.2c4.4,2.9,10.3,1.7,13.2-2.7
	c2.1-3.2,2.1-7.3,0-10.5l4.9-4.8L68.3,89.2z M58.3,107.6c-3.1,0-5.7-2.6-5.7-5.7c0-3.1,2.6-5.7,5.7-5.7c0.8,0,1.7,0.2,2.4,0.6
	l-3.8,3.8l2.7,2.7l3.8-3.8c1.4,2.8,0.2,6.2-2.6,7.6C60,107.4,59.1,107.6,58.3,107.6z"/>
<path class="st0" d="M73.4,96.2h32.3v3.8H73.4V96.2z"/>
<path class="st0" d="M73.4,103.8h13.3v3.8H73.4V103.8z"/>
<path class="st0" d="M90.5,103.8h15.2v3.8H90.5V103.8z"/>
<path class="st0" d="M109.5,96.2h7.6v3.8h-7.6V96.2z"/>
<path class="st0" d="M68.3,112l-4.8,4.8c-4.4-2.9-10.3-1.7-13.2,2.7c-2.9,4.4-1.7,10.3,2.7,13.2c4.4,2.9,10.3,1.7,13.2-2.7
	c2.1-3.2,2.1-7.3,0-10.5l4.9-4.9L68.3,112z M58.3,130.4c-3.1,0-5.7-2.6-5.7-5.7c0-3.1,2.6-5.7,5.7-5.7c0.8,0,1.7,0.2,2.4,0.6
	l-3.8,3.8l2.6,2.6l3.8-3.8c1.4,2.8,0.2,6.2-2.6,7.6C60,130.2,59.1,130.4,58.3,130.4L58.3,130.4z"/>
<path class="st0" d="M73.4,119h24.7v3.8H73.4V119z"/>
<path class="st0" d="M73.4,126.6h13.3v3.8H73.4V126.6z"/>
<path class="st0" d="M90.5,126.6h7.6v3.8h-7.6V126.6z"/>
<path class="st0" d="M130.4,157c15.7,0,28.5-12.8,28.5-28.5S146.1,100,130.4,100s-28.5,12.8-28.5,28.5c0,0,0,0,0,0
	C101.9,144.2,114.7,157,130.4,157C130.4,157,130.4,157,130.4,157z M130.4,103.8c13.6,0,24.7,11.1,24.7,24.7s-11.1,24.7-24.7,24.7
	s-24.7-11.1-24.7-24.7C105.7,114.9,116.7,103.8,130.4,103.8C130.4,103.8,130.4,103.8,130.4,103.8L130.4,103.8z"/>
<path class="st0" d="M118.8,129.5l-3.4,1.7l3.8,7.6c0.3,0.5,0.8,0.9,1.4,1h0.3c0.5,0,1-0.2,1.3-0.6l22.8-22.7l-2.7-2.7l-20.9,20.9
	L118.8,129.5z"/>
<path class="st0" d="M93.4,56.9c-0.1-1.1,0.2-2.2,0.9-3.1c0.5-0.7,1.3-1.3,2.2-1.5c2-0.6,4.1,0,5.4,1.6c1.2,1.9,1.2,4.3,0,6.1
	c-1.2,1.5-3.1,2.2-4.9,1.8c-1-0.2-1.9-0.7-2.6-1.5c-0.5-0.7-0.9-1.5-1-2.4C93.4,57.5,93.4,57.2,93.4,56.9z M100.2,56.9
	c0.1-1.1-0.5-2.1-1.5-2.5c-0.9-0.2-1.8,0.2-2.3,1c-0.5,1-0.5,2.1,0,3.1c0.5,1,1.8,1.3,2.7,0.7c0.2-0.1,0.4-0.3,0.5-0.5
	C100,58.2,100.2,57.6,100.2,56.9L100.2,56.9z"/>
<path class="st0" d="M81.6,56.9c0.1,1.1-0.3,2.2-0.9,3.1c-0.5,0.7-1.3,1.3-2.2,1.5c-1.1,0.3-2.2,0.3-3.2-0.1
	c-0.8-0.2-1.6-0.8-2.1-1.5c-1.2-1.9-1.2-4.3,0-6.2c0.5-0.7,1.2-1.2,2-1.5c1-0.4,2.1-0.4,3.2-0.2c0.9,0.2,1.8,0.8,2.4,1.5
	c0.6,0.7,0.9,1.5,1,2.4C81.7,56.4,81.6,56.6,81.6,56.9z M79,57c0.1-1-0.4-2-1.3-2.5c-0.9-0.4-1.9-0.1-2.4,0.6
	c-0.7,1-0.7,2.3-0.2,3.3c0.4,0.8,1.3,1.2,2.2,1c0.5-0.1,1-0.4,1.2-0.9C78.8,58,79,57.5,79,57z"/>
<path class="st0" d="M65.5,52.2c0.8,0,1.6,0.1,2.4,0.3c0.5,0.1,0.9,0.4,1.2,0.8c0.7,0.8,0.9,1.9,0.5,2.9c-0.2,0.6-0.6,1.1-1.1,1.4
	c-0.1,0.1-0.5,0.2-0.4,0.3c0.1,0.1,0.2,0.2,0.3,0.3l0.4,0.5c0.3,0.3,0.5,0.6,0.8,0.9c0.2,0.3,0.4,0.6,0.4,0.9c0,0.6-0.6,1.1-1.2,1.1
	c-0.8,0-1.3-0.7-1.7-1.3l-0.8-1.1c-0.3-0.4-0.5-0.7-0.8-1c0,0.1-0.1,0.3-0.1,0.4V59c0,0.3,0,0.6,0,0.9c0,0.5-0.1,1-0.4,1.4
	c-0.3,0.3-0.7,0.4-1.1,0.3c-0.4-0.1-0.7-0.3-0.9-0.7c-0.1-0.3-0.1-0.5-0.1-0.8c0-0.3,0-0.7,0-1v-4.8c0-0.3,0-0.6,0.1-0.9
	c0-0.5,0.4-0.9,0.8-1c0.3-0.1,0.6-0.1,0.9,0L65.5,52.2C65.5,52.3,65.5,52.3,65.5,52.2z M66,54.6c-0.2,0-0.4,0-0.6,0
	c-0.1,0-0.2,0-0.2,0.2c0,0.2,0,0.4,0,0.6c0,0.2,0,0.5,0.1,0.7s0.5,0.1,0.7,0.1c0.3,0,0.5,0,0.8-0.1c0.4-0.1,0.6-0.6,0.5-1
	c-0.1-0.2-0.2-0.4-0.4-0.5C66.6,54.6,66.3,54.5,66,54.6z"/>
<path class="st0" d="M108.4,61.8c-0.4-0.1-0.8-0.1-1.2-0.2c-0.4-0.1-0.8-0.2-1.1-0.4c-0.3-0.2-0.6-0.4-0.8-0.7
	c-0.1-0.3-0.1-0.6,0-0.9c0.1-0.3,0.3-0.5,0.5-0.6c0.3-0.1,0.7-0.1,1,0c0.4,0.1,0.8,0.2,1.2,0.3l0.6,0.1c0.2,0.1,0.4,0.1,0.6,0
	c0.3-0.1,0.4-0.4,0.3-0.6c0,0,0,0,0,0c-0.1-0.3-0.5-0.5-0.8-0.6c-0.7-0.2-1.4-0.5-2.1-0.8c-0.4-0.2-0.8-0.6-1-1.1
	c-0.2-0.5-0.3-1.1-0.2-1.7c0.1-0.6,0.3-1.2,0.7-1.6c0.4-0.4,1-0.7,1.6-0.8c0.8-0.2,1.7-0.2,2.4,0.1c0.6,0.2,1.4,0.6,1.4,1.3
	c0.1,0.6-0.4,1.1-1,1.2c0,0,0,0,0,0c-0.4,0-0.8-0.1-1.2-0.2c-0.4-0.1-0.7-0.1-1.1-0.1c-0.2,0.1-0.3,0.3-0.3,0.5
	c0,0.3,0.3,0.4,0.5,0.5c0.8,0.2,1.5,0.5,2.2,0.8c0.3,0.2,0.6,0.4,0.9,0.7c0.2,0.3,0.3,0.6,0.4,0.9c0.1,0.6,0.1,1.2-0.1,1.8
	c-0.1,0.5-0.4,0.9-0.8,1.3c-0.5,0.4-1,0.6-1.7,0.7C109.2,61.7,108.8,61.8,108.4,61.8z"/>
<path class="st0" d="M123.5,60.5c0,0.4-0.2,0.8-0.5,1c-0.4,0.2-0.9,0.2-1.2,0c-0.4-0.3-0.6-0.7-0.7-1.2c0-0.2-0.2-0.3-0.3-0.4
	c-0.3,0-0.5,0-0.8,0c-0.6,0-1.2,0-1.8,0c-0.2,0-0.3,0.1-0.4,0.2c0,0.1-0.1,0.2-0.1,0.3c0,0.1-0.1,0.3-0.2,0.4
	c-0.1,0.2-0.2,0.4-0.3,0.5c-0.1,0.1-0.3,0.2-0.5,0.2c-0.4,0.1-0.8,0-1.1-0.2c-0.4-0.3-0.3-0.9-0.2-1.3c0.1-0.6,0.3-1.1,0.5-1.6
	c0.4-1.1,0.8-2.3,1.3-3.4c0.2-0.6,0.4-1.1,0.7-1.7c0.2-0.5,0.5-0.8,0.9-1.1c0.4-0.2,0.8-0.2,1.2-0.1c0.4,0.2,0.8,0.5,1,0.8
	c0.3,0.5,0.5,1,0.7,1.6l0.6,1.7c0.2,0.6,0.4,1.2,0.6,1.7s0.4,1.1,0.6,1.7C123.4,59.9,123.4,60.2,123.5,60.5z M119.3,57.5
	c0.2,0,0.5,0,0.7,0c0.2-0.1,0-0.4,0-0.5c-0.1-0.3-0.2-0.7-0.3-1l-0.2-0.5c0-0.1,0-0.2-0.1-0.2c0-0.1-0.1-0.1-0.1-0.2
	c-0.1,0-0.1,0.1-0.1,0.2c0,0.1,0,0.2-0.1,0.2s-0.1,0.3-0.2,0.5c-0.1,0.3-0.2,0.7-0.3,1c0,0.1-0.2,0.5-0.1,0.6s0.2,0,0.2,0
	C119,57.5,119.1,57.5,119.3,57.5L119.3,57.5z"/>
<path class="st0" d="M52.1,57v-2.8c0-0.3,0-0.6,0-0.9c0.1-0.4,0.3-0.7,0.6-0.9c0.2-0.1,0.4-0.1,0.6-0.1h0.9c0.6,0,1.2,0,1.8,0
	c0.5,0,0.9,0.1,1.3,0.2c0.7,0.3,1.3,0.9,1.6,1.7c0.1,0.4,0.2,0.9,0.2,1.3c0,0.5-0.1,1.1-0.3,1.6c-0.3,0.7-1,1.3-1.8,1.5
	c-0.5,0.1-0.9,0.2-1.4,0.2c-0.2,0-0.5,0-0.7,0c-0.1,0-0.2,0-0.3,0.1c-0.2,0.1-0.1,0.5-0.1,0.7s0,0.6,0,0.9c0,0.2,0,0.4-0.1,0.6
	c-0.4,0.6-1.2,0.8-1.8,0.4c-0.1-0.1-0.2-0.1-0.2-0.2c-0.2-0.4-0.3-0.9-0.3-1.4c0-0.6,0-1.2,0-1.9L52.1,57z M55.3,54.5
	c-0.2,0-0.4,0-0.6,0c-0.1,0-0.1,0.2-0.1,0.3c0,0.3,0,0.6,0,1c0,0.2,0,0.4,0.1,0.6c0.1,0.1,0.2,0.2,0.4,0.2c0.3,0,0.6,0,0.9-0.1
	c0.2,0,0.5-0.2,0.6-0.4c0.1-0.2,0.2-0.5,0.1-0.7c0-0.3-0.2-0.5-0.4-0.7C56,54.5,55.6,54.4,55.3,54.5L55.3,54.5z"/>
<path class="st0" d="M83.9,56.9c0-0.6,0-1.2,0-1.8c0-0.3,0-0.6,0-0.9c0-0.3,0-0.5,0-0.8c0-0.4,0.3-0.8,0.7-1
	c0.2-0.1,0.5-0.1,0.7-0.1h0.9c0.6,0,1.2,0,1.8,0c0.4,0,0.8,0.1,1.2,0.3c0.7,0.3,1.3,0.9,1.6,1.6c0.3,0.8,0.3,1.7,0,2.5
	c-0.3,0.9-0.9,1.5-1.8,1.8c-0.5,0.1-1,0.2-1.5,0.2c-0.3,0-0.5,0-0.8,0c-0.2,0-0.3,0.1-0.3,0.2c0,0.3,0,0.5,0,0.8c0,0.3,0,0.5,0,0.8
	c0,0.4-0.2,0.7-0.5,0.9c-0.6,0.4-1.4,0.2-1.7-0.4c0,0,0-0.1-0.1-0.1c-0.1-0.5-0.2-0.9-0.1-1.4c0-0.6,0-1.2,0-1.7L83.9,56.9z
	 M87.2,54.5c-0.2,0-0.5,0-0.7,0.1c0,0-0.1,0.1-0.1,0.2c0,0.2,0,0.3,0,0.5c0,0.3,0,0.6,0,0.9c0,0.2,0.1,0.5,0.4,0.5
	c0.1,0,0.1,0,0.2,0c0.3,0,0.6-0.1,0.9-0.1c0.5-0.2,0.8-0.6,0.7-1.1c0-0.3-0.2-0.5-0.4-0.7C87.8,54.5,87.5,54.4,87.2,54.5z"/>
<path class="st0" d="M129.5,56.1v2.5c0,0.1,0,0.3,0,0.4c0,0.2,0.2,0.2,0.4,0.2c0.5,0,0.9,0,1.4,0c0.4,0,0.9,0.1,1.2,0.3
	c0.2,0.2,0.4,0.5,0.4,0.8c0,0.4-0.1,0.7-0.4,0.9c-0.4,0.2-0.8,0.3-1.2,0.2h-2.6c-0.2,0-0.5,0-0.8,0c-0.3-0.1-0.6-0.3-0.8-0.6
	c-0.2-0.5-0.2-1-0.2-1.5v-5.2c-0.1-0.5,0-1,0.2-1.5c0.4-0.6,1.2-0.8,1.7-0.4c0.1,0,0.1,0.1,0.2,0.1c0.3,0.3,0.4,0.7,0.4,1.1
	c0,0.6,0,1.2,0,1.8C129.5,55.4,129.4,56.1,129.5,56.1z"/>
</svg>
