<?xml version="1.0" encoding="utf-8"?>
<!-- Generator: Adobe Illustrator 24.3.0, SVG Export Plug-In . SVG Version: 6.00 Build 0)  -->
<svg version="1.1" id="Layer_1" xmlns="http://www.w3.org/2000/svg" xmlns:xlink="http://www.w3.org/1999/xlink" x="0px" y="0px"
	 viewBox="0 0 200 200" style="enable-background:new 0 0 200 200;" xml:space="preserve">
<style type="text/css">
	.st0{fill:#FFFFFF;}
</style>
<path class="st0" d="M100,64.3c1.3,0,2.3-1,2.3-2.3V50.1c0-1.3-1-2.3-2.3-2.3c-1.3,0-2.3,1-2.3,2.3V62C97.7,63.3,98.7,64.3,100,64.3
	z"/>
<path class="st0" d="M82.6,68.1c0.4,0.7,1.2,1.1,2,1.1c0.4,0,0.9-0.1,1.2-0.4c1.1-0.7,1.4-2.1,0.7-3.2l-6.2-9.8
	c-0.7-1.1-2.1-1.4-3.2-0.7c-1.1,0.7-1.4,2.1-0.7,3.2L82.6,68.1z"/>
<path class="st0" d="M114.2,68.8c1.1,0.7,2.5,0.3,3.2-0.7l6.2-9.8c0.7-1.1,0.4-2.5-0.7-3.2c-1.1-0.7-2.5-0.4-3.2,0.7l-6.2,9.8
	C112.8,66.7,113.2,68.1,114.2,68.8C114.2,68.8,114.2,68.8,114.2,68.8z"/>
<path class="st0" d="M158.6,102.4l-4-7.1c-0.5-1.2-1.9-1.7-3-1.2c-1.2,0.5-1.7,1.9-1.2,3c0.1,0.2,0.2,0.3,0.3,0.5l4,7.1
	c0.1,0.3,0.2,0.6,0.1,0.9c-0.1,0.3-0.3,0.5-0.5,0.7l-6.2,3.4c-0.6,0.3-1.2,0.1-1.6-0.4l-1.6-2.8l0,0l-16.4-28.9
	c-0.1-0.3-0.2-0.6-0.1-0.9c0.1-0.3,0.3-0.5,0.5-0.7l6.2-3.4c0.5-0.3,1.3-0.1,1.6,0.4l3.6,6.4c0.8,1,2.2,1.3,3.2,0.5
	c0.9-0.6,1.2-1.8,0.8-2.8l-3.6-6.4c-1.6-2.8-5.1-3.7-7.9-2.2l-6.2,3.4c-1.3,0.7-2.3,2-2.7,3.5c-0.4,1.4-0.3,2.9,0.4,4.2l-3.4,1
	c-0.9,0.3-1.9,0.5-2.8,0.7l0,0c-0.6-0.1-1.2-0.3-1.8-0.5c-0.5-0.2-1.1-0.4-1.8-0.7l-6.1-2.1c-2.2-0.9-4.7-1.2-7.1-0.9L91,78
	c-4.7,0.4-7.7,1.5-9.4,3.3l-5.9-1.7c0.6-1.3,0.8-2.7,0.4-4.1c-0.4-1.5-1.4-2.8-2.8-3.5l-6.2-3.4c-2.8-1.5-6.3-0.6-7.9,2.2
	l-17.9,31.7c-1.6,2.8-0.6,6.3,2.1,7.8c0,0,0,0,0.1,0l6.2,3.4c2.8,1.5,6.3,0.6,7.9-2.2l0.7-1.2c1.7,0.7,3.2,1.8,4.3,3.3
	c-1,1.2-1.6,2.6-1.8,4.2c-0.5,4.3,2.6,8.1,6.8,8.6c0,0,0,0,0,0c-0.4,4.2,2.6,8,6.9,8.5c-0.5,4.2,2.6,8.1,6.8,8.6
	c-0.5,4.3,2.7,8.1,6.9,8.6c2,0.2,4.1-0.4,5.7-1.7l4.9-3.9c0.4-0.3,0.7-0.6,1-1l2.8,2.2c3.3,2.7,8.3,2.2,11-1.2c0,0,0,0,0-0.1
	c0.8-1,1.3-2.1,1.6-3.4c0.8,0.3,1.7,0.4,2.5,0.4c0.3,0,0.6,0,0.9,0c4.3-0.5,7.4-4.3,6.9-8.6c4.2-0.5,7.3-4.3,6.8-8.6
	c4.3-0.5,7.3-4.4,6.8-8.7c-0.2-1.5-0.8-3-1.8-4.1c1.1-1.4,2.6-2.6,4.3-3.3l0.7,1.2c1.6,2.8,5.1,3.7,7.9,2.2l6.2-3.4
	C159.2,108.8,160.2,105.3,158.6,102.4L158.6,102.4z M53.6,109.3c-0.3,0.5-1,0.7-1.6,0.4l-6.2-3.4c-0.2-0.1-0.4-0.4-0.5-0.7
	c-0.1-0.3,0-0.6,0.1-0.9L63.3,73c0.2-0.4,0.6-0.6,1-0.6c0.2,0,0.4,0,0.6,0.1l6.2,3.4l0,0c0.3,0.1,0.4,0.4,0.5,0.7
	c0.1,0.3,0,0.6-0.1,0.9L53.6,109.3z M70.5,121.2c-1.4,1.1-3.4,0.9-4.4-0.5c-0.5-0.7-0.8-1.5-0.7-2.3c0.1-0.8,0.5-1.6,1.2-2.1
	l8.7-6.9c1.4-1.1,3.4-0.9,4.5,0.5s0.9,3.4-0.5,4.5l0,0L70.5,121.2L70.5,121.2z M72.9,129.2c-0.5-0.7-0.8-1.5-0.7-2.3
	c0.1-0.8,0.5-1.6,1.2-2.1l0,0l12.5-10c1.4-1.1,3.4-0.9,4.5,0.5c1.1,1.4,0.9,3.4-0.5,4.5l-12.5,10C76.1,130.8,74.1,130.6,72.9,129.2
	C73,129.2,73,129.2,72.9,129.2L72.9,129.2z M81.9,138.9c-1.7-0.2-3-1.7-2.8-3.5c0,0,0,0,0,0c0.1-0.8,0.5-1.6,1.2-2.1l0,0l8.7-6.9
	l0,0c1.4-1.1,3.3-0.9,4.4,0.5c0.5,0.6,0.8,1.5,0.7,2.3c-0.1,0.8-0.5,1.6-1.2,2.1l-8.7,6.9C83.6,138.8,82.7,139,81.9,138.9
	L81.9,138.9z M97.1,140.8c-0.1,0.9-0.5,1.7-1.2,2.2l-4.9,3.9c-1.4,1.1-3.4,0.9-4.4-0.5c0,0,0,0,0,0c-1.1-1.4-0.9-3.3,0.5-4.4l0,0
	l4.9-3.9l0,0c1.4-1.1,3.4-0.9,4.4,0.5C97,139.2,97.2,140,97.1,140.8L97.1,140.8z M133.9,120.7c-1.1,1.4-3.1,1.6-4.4,0.5l0,0l-6.2-5
	c-1-0.9-2.4-0.8-3.3,0.2c-0.9,1-0.8,2.4,0.2,3.3c0.1,0.1,0.1,0.1,0.2,0.2l6.2,5c1.4,1.1,1.6,3.1,0.5,4.5c-1.1,1.4-3.1,1.6-4.5,0.5
	l0,0l-6.7-5.4c-1-0.8-2.5-0.6-3.3,0.4c-0.8,1-0.6,2.5,0.4,3.3l6.7,5.4c1.4,1.1,1.6,3.1,0.5,4.4c-0.5,0.7-1.3,1.1-2.1,1.2
	c-0.8,0.1-1.7-0.1-2.3-0.7l-3.3-2.7l0,0l-2.8-2.3l-0.5-0.4c-1-0.8-2.5-0.6-3.3,0.4c-0.1,0.1-0.2,0.3-0.2,0.4c-0.3,0.7-0.3,1.4,0,2.1
	c0.2,0.3,0.4,0.6,0.6,0.8l3.4,2.7c1.4,1.1,1.6,3.1,0.5,4.5s-3.1,1.6-4.5,0.5l0,0l-3.8-3c0.3-3.2-1.5-6.3-4.4-7.7
	c2.5-3.5,1.7-8.4-1.8-10.9c-0.4-0.3-0.8-0.5-1.2-0.7c0.8-1.1,1.3-2.4,1.4-3.7c0.5-4.3-2.6-8.1-6.9-8.6c-1.3-0.1-2.7,0.1-3.9,0.6
	c-0.9-4.2-5.1-6.9-9.3-5.9c-1.2,0.3-2.2,0.8-3.2,1.5l-6.2,5c-1.5-1.9-3.4-3.3-5.6-4.3l12.8-22.6l6.8,2c0,0.4,0.1,0.8,0.2,1.2
	c1.7,6.8,7.9,9.9,16.3,8.2c7.1-1.4,10,0.7,15.8,4.9l1.9,1.4c4.2,3,8.6,6.5,11.6,8.9l7.5,6c1.3,1.1,1.6,3.1,0.5,4.4L133.9,120.7z
	 M133.9,110.7l-5.1-4c-3-2.4-7.5-6-11.8-9l-1.8-1.3c-6-4.4-10.3-7.5-19.4-5.7c-2.8,0.6-9.4,1.2-10.8-4.8c-0.2-0.8,0-1.1,0.1-1.3
	c0.3-0.4,1.6-1.5,6.4-1.9l10.4-0.9c1.7-0.3,3.5,0,5.1,0.7l6.1,2.1c0.7,0.2,1.2,0.4,1.7,0.6c2.9,1.1,3.7,1.1,7.5,0l4.5-1.3l12.8,22.6
	C137.3,107.4,135.3,108.8,133.9,110.7L133.9,110.7z"/>
<path class="st0" d="M147.4,89.7c1.3,0,2.3-1,2.3-2.3s-1-2.3-2.3-2.3c-1.3,0-2.3,1-2.3,2.3l0,0C145.1,88.7,146.2,89.7,147.4,89.7
	C147.4,89.7,147.4,89.7,147.4,89.7z"/>
</svg>
