<?xml version="1.0" encoding="utf-8"?>
<!-- Generator: Adobe Illustrator 24.3.0, SVG Export Plug-In . SVG Version: 6.00 Build 0)  -->
<svg version="1.1" id="Layer_1" xmlns="http://www.w3.org/2000/svg" xmlns:xlink="http://www.w3.org/1999/xlink" x="0px" y="0px"
	 viewBox="0 0 200 200" style="enable-background:new 0 0 200 200;" xml:space="preserve">
<style type="text/css">
	.st0{fill:#FFFFFF;}
</style>
<path class="st0" d="M159,55.4h-6c-0.9,0.1-1.6,0.9-1.5,1.8c0.1,0.8,0.7,1.5,1.5,1.5h5.5v89h-85c-0.9,0-1.7,0.7-1.7,1.6
	c0,0.9,0.7,1.7,1.7,1.7H159c1.5,0,2.8-1.2,2.8-2.8V58.1C161.7,56.6,160.5,55.4,159,55.4z"/>
<path class="st0" d="M65.5,147.7h-13v-89h17.7c0.3,0.3,0.6,0.6,1,0.8l8.7,4.7c1.3,0.7,2.8,1,4.3,1.1h53.7c1.9,0,3.5-1.6,3.5-3.5
	v-3.1h3.9c0.9-0.1,1.6-0.9,1.5-1.8c-0.1-0.8-0.7-1.5-1.5-1.5h-3.9v-2.9c0-1.9-1.6-3.5-3.5-3.5H84.1c-1.5,0-3,0.4-4.3,1.1l-8.7,4.7
	c-0.3,0.2-0.6,0.4-0.8,0.6H52c-1.5,0-2.7,1.2-2.8,2.7v90.1c0,1.5,1.2,2.7,2.8,2.7h13.5c0.9,0,1.7-0.7,1.7-1.6
	C67.2,148.4,66.4,147.7,65.5,147.7L65.5,147.7z M130.5,52.3h7.3c0.1,0,0.2,0.1,0.2,0.2v9.3c0,0.1-0.1,0.2-0.2,0.2l0,0h-7.3V52.3z
	 M86.6,52.3h40.6v3.2H86.5L86.6,52.3z M86.6,58.8h40.6V62H86.5L86.6,58.8z M79.5,54.1l2-1.1c0.6-0.3,1.2-0.5,1.8-0.6v9.5
	c-0.6-0.1-1.2-0.3-1.8-0.6l-2-1.1V54.1z M76.2,55.9v2.6l-2.3-1.3L76.2,55.9z"/>
<path class="st0" d="M105.5,142.4c6.2,0,11.7-4,13.5-10c0.3-0.9-0.2-1.8-1.1-2.1c-0.9-0.3-1.8,0.2-2.1,1.1
	c-1.4,4.6-5.6,7.7-10.3,7.7c-6,0.1-11-4.8-11.1-10.8c-0.1-6,4.8-11,10.8-11.1c4.7,0,8.9,2.9,10.4,7.3c0.2,0.9,1.1,1.4,2,1.2
	c0.9-0.2,1.4-1.1,1.2-2c0-0.1,0-0.1-0.1-0.2c-2.7-7.3-10.8-11.1-18.1-8.5c-7.3,2.7-11.1,10.8-8.5,18.1
	C94.2,138.6,99.5,142.3,105.5,142.4L105.5,142.4z"/>
<path class="st0" d="M101.8,126.2V125c0-0.9-0.7-1.7-1.7-1.7s-1.7,0.7-1.7,1.7v1.3c0,0.9,0.7,1.7,1.7,1.7S101.8,127.2,101.8,126.2
	L101.8,126.2z"/>
<path class="st0" d="M112.4,126.2V125c0.1-0.9-0.6-1.7-1.5-1.8s-1.7,0.6-1.8,1.5c0,0.1,0,0.2,0,0.3v1.3c-0.1,0.9,0.6,1.7,1.5,1.8
	c0.9,0.1,1.7-0.6,1.8-1.5C112.4,126.5,112.4,126.4,112.4,126.2L112.4,126.2z"/>
<path class="st0" d="M101.8,133.9h7.3c0.9-0.1,1.6-0.9,1.5-1.8c-0.1-0.8-0.7-1.5-1.5-1.5h-7.3c-0.9-0.1-1.7,0.6-1.8,1.5
	c-0.1,0.9,0.6,1.7,1.5,1.8C101.7,133.9,101.7,133.9,101.8,133.9z"/>
<path class="st0" d="M74.2,142.4c7.9,0.1,14.3-6.2,14.4-14.1c0.1-7.9-6.2-14.3-14.1-14.4c-7.9-0.1-14.3,6.2-14.4,14.1
	c0,0,0,0.1,0,0.1C60,135.9,66.4,142.3,74.2,142.4z M74.2,117.2c6-0.1,11,4.8,11.1,10.8c0.1,6-4.8,11-10.8,11.1
	c-6,0.1-11-4.8-11.1-10.8c0,0,0-0.1,0-0.1C63.3,122.1,68.2,117.2,74.2,117.2z"/>
<path class="st0" d="M68.9,127.9c0.9,0,1.7-0.7,1.7-1.7l0,0V125c0-0.9-0.7-1.7-1.7-1.7s-1.7,0.7-1.7,1.7v1.3
	C67.2,127.2,68,127.9,68.9,127.9z"/>
<path class="st0" d="M79.5,127.9c0.9,0,1.6-0.7,1.6-1.6c0,0,0,0,0,0V125c0.1-0.9-0.6-1.7-1.5-1.8s-1.7,0.6-1.8,1.5
	c0,0.1,0,0.2,0,0.3v1.3C77.9,127.2,78.6,127.9,79.5,127.9z"/>
<path class="st0" d="M68.6,131.1c0.2,3.1,2.9,5.4,6,5.2c2.8-0.2,5-2.4,5.2-5.2c0-0.9-0.7-1.6-1.7-1.6s-1.7,0.7-1.7,1.6
	c-0.2,1.3-1.5,2.1-2.8,1.9c-1-0.2-1.7-0.9-1.9-1.9c0.1-0.9-0.6-1.7-1.5-1.8c-0.9-0.1-1.7,0.6-1.8,1.5C68.6,131,68.6,131,68.6,131.1z
	"/>
<path class="st0" d="M136.8,142.4c7.9,0.1,14.3-6.2,14.4-14.1s-6.2-14.3-14.1-14.4c-7.9-0.1-14.3,6.2-14.4,14.1c0,0,0,0.1,0,0.1
	C122.7,135.9,129,142.3,136.8,142.4z M136.8,117.2c6-0.1,11,4.8,11.1,10.8c0.1,6-4.8,11-10.8,11.1c-6,0.1-11-4.8-11.1-10.8
	c0,0,0-0.1,0-0.1C126,122.1,130.8,117.2,136.8,117.2z"/>
<path class="st0" d="M131.5,127.9c0.9,0,1.6-0.7,1.6-1.6c0,0,0,0,0,0V125c0.1-0.9-0.6-1.7-1.5-1.8c-0.9-0.1-1.7,0.6-1.8,1.5
	c0,0.1,0,0.2,0,0.3v1.3C129.9,127.2,130.6,127.9,131.5,127.9z"/>
<path class="st0" d="M142.1,127.9c0.9,0,1.6-0.7,1.6-1.7V125c0.1-0.9-0.6-1.7-1.5-1.8c-0.9-0.1-1.7,0.6-1.8,1.5c0,0.1,0,0.2,0,0.3
	v1.3C140.5,127.2,141.2,127.9,142.1,127.9z"/>
<path class="st0" d="M131.2,134c0.1,0.9,0.9,1.6,1.8,1.5c0.8-0.1,1.5-0.7,1.5-1.5c0.2-1.3,1.5-2.1,2.8-1.9c1,0.2,1.7,0.9,1.9,1.9
	c0,0.9,0.7,1.6,1.6,1.6c0.9,0,1.7-0.7,1.7-1.6c-0.2-3.1-2.9-5.4-6-5.2C133.6,129,131.4,131.2,131.2,134z"/>
<path class="st0" d="M62.4,87h11.4c1.3,0,2.3-1,2.3-2.3v-9.5l0.7-0.7c0.6-0.6,0.6-1.7,0-2.3c-0.3-0.3-0.8-0.5-1.2-0.5
	c-0.4-0.5-1.1-0.8-1.8-0.8H62.4c-1.3,0-2.3,1-2.3,2.3l0,0v11.5C60.1,86,61.1,87,62.4,87C62.4,87,62.4,87,62.4,87z M63.4,74.2h9.1
	l-4,4.1l-1.3-1.3c-0.7-0.6-1.7-0.6-2.3,0.1c-0.6,0.6-0.6,1.6,0,2.2l2,2c0.4,0.4,1,0.7,1.6,0.7l0,0c0.6,0,1.2-0.2,1.6-0.6l2.8-2.8
	v5.2h-9.4L63.4,74.2z"/>
<path class="st0" d="M81.3,77.9h19.6c0.9,0,1.7-0.7,1.7-1.7s-0.7-1.7-1.7-1.7H81.3c-0.9,0-1.7,0.7-1.7,1.7S80.4,77.9,81.3,77.9z"/>
<path class="st0" d="M81.3,83.3h11.2c0.9-0.1,1.6-0.9,1.5-1.8c-0.1-0.8-0.7-1.5-1.5-1.5H81.3c-0.9-0.1-1.7,0.6-1.8,1.5
	s0.6,1.7,1.5,1.8C81.1,83.3,81.2,83.3,81.3,83.3z"/>
<path class="st0" d="M60.1,105.6c0,1.3,1,2.3,2.3,2.3c0,0,0,0,0,0h11.4c1.3,0,2.3-1,2.3-2.3c0,0,0,0,0,0V94.1c0-1.3-1-2.3-2.3-2.3
	H62.4c-1.3,0-2.3,1-2.3,2.3V105.6z M63.4,95.1h9.4v9.5h-9.4V95.1z"/>
<path class="st0" d="M81.3,98.8h19.6c0.9,0.1,1.7-0.6,1.8-1.5s-0.6-1.7-1.5-1.8c-0.1,0-0.2,0-0.3,0H81.3c-0.9-0.1-1.7,0.6-1.8,1.5
	s0.6,1.7,1.5,1.8C81.1,98.8,81.2,98.8,81.3,98.8z"/>
<path class="st0" d="M94.1,102.6c0-0.9-0.7-1.6-1.6-1.6c0,0,0,0,0,0H81.3c-0.9,0-1.7,0.7-1.7,1.7s0.7,1.7,1.7,1.7h11.2
	C93.4,104.2,94.1,103.5,94.1,102.6C94.1,102.6,94.1,102.6,94.1,102.6z"/>
<path class="st0" d="M110.7,87h11.4c1.3,0,2.3-1,2.3-2.3V73.2c0-1.3-1-2.3-2.3-2.3h0h-11.4c-1.3,0-2.3,1-2.3,2.3v0v11.5
	C108.4,86,109.4,87,110.7,87C110.7,87,110.7,87,110.7,87z M111.7,74.2h9.4v9.5h-9.4V74.2z"/>
<path class="st0" d="M128,76.2c0,0.9,0.7,1.7,1.6,1.7h19.6c0.9,0,1.6-0.7,1.6-1.7s-0.7-1.7-1.6-1.7h-19.6
	C128.7,74.6,128,75.3,128,76.2z"/>
<path class="st0" d="M129.6,83.3h11.2c0.9-0.1,1.6-0.9,1.5-1.8c-0.1-0.8-0.7-1.5-1.5-1.5h-11.2c-0.9-0.1-1.7,0.6-1.8,1.5
	s0.6,1.7,1.5,1.8C129.5,83.3,129.5,83.3,129.6,83.3z"/>
<path class="st0" d="M124.4,105.6V94.1c0-1.3-1-2.3-2.3-2.3h-11.4c-1.3,0-2.3,1-2.3,2.3v11.5c0,1.3,1,2.3,2.3,2.3h0h11.4
	C123.4,107.9,124.4,106.9,124.4,105.6z M121.2,104.6h-9.4v-9.5h9.4V104.6z"/>
<path class="st0" d="M149.3,95.5h-19.6c-0.9-0.1-1.7,0.6-1.8,1.5s0.6,1.7,1.5,1.8c0.1,0,0.2,0,0.3,0h19.6c0.9,0.1,1.7-0.6,1.8-1.5
	c0.1-0.9-0.6-1.7-1.5-1.8C149.4,95.5,149.3,95.5,149.3,95.5L149.3,95.5z"/>
<path class="st0" d="M140.8,104.2c0.9,0,1.6-0.7,1.6-1.7s-0.7-1.7-1.6-1.7h-11.2c-0.9,0-1.7,0.7-1.7,1.7s0.7,1.7,1.7,1.7H140.8z"/>
</svg>
