<?xml version="1.0" encoding="utf-8"?>
<!-- Generator: Adobe Illustrator 24.3.0, SVG Export Plug-In . SVG Version: 6.00 Build 0)  -->
<svg version="1.1" id="Layer_1" xmlns="http://www.w3.org/2000/svg" xmlns:xlink="http://www.w3.org/1999/xlink" x="0px" y="0px"
	 viewBox="0 0 200 200" style="enable-background:new 0 0 200 200;" xml:space="preserve">
<style type="text/css">
	.st0{fill:#FFFFFF;}
</style>
<path class="st0" d="M153.6,58.2c0-5.2-4.3-9.5-9.5-9.5H60.5c-5.3,0-9.5,4.2-9.5,9.5c0,0,0,0,0,0v83.6c0,5.2,4.2,9.5,9.5,9.5h81.2
	c6.6,0,11.9-5.3,11.9-11.9V58.2z M60.5,147.5c-3.1,0-5.7-2.6-5.7-5.7V58.2c0-3.1,2.5-5.7,5.7-5.7h83.6c3.1,0,5.7,2.6,5.7,5.7v79.6
	c0,5.3-4.3,9.7-9.6,9.7c0,0,0,0,0,0L60.5,147.5z"/>
<path class="st0" d="M83.3,79.1h32.3v3.8H83.3V79.1z"/>
<path class="st0" d="M83.3,86.7h13.3v3.8H83.3V86.7z"/>
<path class="st0" d="M100.4,86.7H127v3.8h-26.6V86.7z"/>
<path class="st0" d="M119.4,79.1h19v3.8h-19V79.1z"/>
<path class="st0" d="M113.7,124.7h19v3.8h-19L113.7,124.7z"/>
<path class="st0" d="M83.3,101.9h32.3v3.8H83.3V101.9z"/>
<path class="st0" d="M83.3,109.5h13.3v3.8H83.3V109.5z"/>
<path class="st0" d="M100.4,109.5h15.2v3.8h-15.2V109.5z"/>
<path class="st0" d="M119.4,101.9h7.6v3.8h-7.6V101.9z"/>
<path class="st0" d="M83.3,124.7H108v3.8H83.3V124.7z"/>
<path class="st0" d="M83.3,132.3h13.3v3.8H83.3V132.3z"/>
<path class="st0" d="M116.6,132.3h13.3v3.8h-13.3V132.3z"/>
<path class="st0" d="M100.4,132.3h7.6v3.8h-7.6L100.4,132.3z"/>
<path class="st0" d="M101.4,69.2c0.6,0,1.1-0.5,1.1-1.1c0,0,0,0,0,0v-8.5c0-0.6-0.5-1.1-1.1-1.1c-0.6,0-1.1,0.5-1.1,1.1V68
	C100.2,68.6,100.7,69.1,101.4,69.2C101.4,69.1,101.4,69.2,101.4,69.2z"/>
<path class="st0" d="M117.5,69.1c0.6,0,1.1-0.5,1.1-1.1v-3.2h2c0.6-0.1,1.1-0.6,1-1.2c-0.1-0.5-0.5-1-1-1h-2v-1.9h2.3
	c0.6-0.1,1.1-0.6,1-1.2c-0.1-0.5-0.5-1-1-1h-3.4c-0.6,0-1.1,0.5-1.1,1.1V68C116.5,68.6,116.9,69.1,117.5,69.1z"/>
<path class="st0" d="M107.6,69.1h3.5c0.6,0,1.1-0.5,1.1-1.1c0-0.6-0.5-1.1-1.1-1.1h-2.4v-1.9h2.1c0.6-0.1,1.1-0.6,1-1.2
	c-0.1-0.5-0.5-1-1-1h-2.1v-1.9h2.4c0.6,0,1.1-0.5,1.1-1.1c0-0.6-0.5-1.1-1.1-1.1h-3.5c-0.6,0-1.1,0.5-1.1,1.1V68
	C106.4,68.6,107,69.1,107.6,69.1L107.6,69.1z"/>
<path class="st0" d="M79.9,69.1h2.9c1.9,0,3.4-1.5,3.4-3.4c0-1-0.4-1.9-1.2-2.6c0.9-1.5,0.4-3.4-1-4.3c-0.5-0.3-1-0.5-1.6-0.5h-2.5
	c-0.6,0-1.1,0.5-1.1,1.1V68c0,0.3,0.1,0.6,0.3,0.8C79.3,69,79.6,69.1,79.9,69.1z M81,60.7h1.3c0.4,0,0.8,0.4,0.8,0.8
	c0,0.4-0.4,0.8-0.8,0.8c0,0,0,0,0,0H81V60.7z M81,64.6h1.8c0.6,0,1.1,0.5,1.1,1.1c0,0.6-0.5,1.1-1.1,1.1c0,0,0,0,0,0H81V64.6z"/>
<path class="st0" d="M95.1,69.1c0.6,0,1.1-0.5,1.2-1.1c0-0.3-0.1-0.6-0.3-0.8l-2.1-2.4c1.4-0.4,2.3-1.7,2.4-3.2
	c0-1.9-1.6-3.4-3.5-3.3h-2.3c-0.6,0-1.1,0.5-1.1,1.1V68c0,0.6,0.5,1.1,1.1,1.1c0.6,0,1.1-0.5,1.1-1.1v-2.2l2.6,2.9
	C94.5,69,94.8,69.1,95.1,69.1z M92.8,62.8h-1.1c0-0.4,0-1.7,0-2.1h1.1c0.6-0.1,1.1,0.4,1.2,1c0.1,0.6-0.4,1.1-1,1.2
	C92.9,62.8,92.9,62.8,92.8,62.8z"/>
<g>
	<path class="st0" d="M68.9,139.8c-5.2,0-9.4-4.2-9.4-9.4s4.2-9.4,9.4-9.4s9.4,4.2,9.4,9.4S74.1,139.8,68.9,139.8z M68.9,125.5
		c-2.7,0-4.9,2.2-4.9,4.9s2.2,4.9,4.9,4.9s4.9-2.2,4.9-4.9S71.6,125.5,68.9,125.5z"/>
</g>
<g>
	<path class="st0" d="M68.9,117.5c-5.2,0-9.4-4.2-9.4-9.4s4.2-9.4,9.4-9.4s9.4,4.2,9.4,9.4S74.1,117.5,68.9,117.5z M68.9,103.2
		c-2.7,0-4.9,2.2-4.9,4.9s2.2,4.9,4.9,4.9s4.9-2.2,4.9-4.9S71.6,103.2,68.9,103.2z"/>
</g>
<g>
	<path class="st0" d="M68.9,95.2c-5.2,0-9.4-4.2-9.4-9.4s4.2-9.4,9.4-9.4s9.4,4.2,9.4,9.4S74.1,95.2,68.9,95.2z M68.9,80.9
		c-2.7,0-4.9,2.2-4.9,4.9s2.2,4.9,4.9,4.9s4.9-2.2,4.9-4.9S71.6,80.9,68.9,80.9z"/>
</g>
</svg>
