<?xml version="1.0" encoding="utf-8"?>
<!-- Generator: Adobe Illustrator 24.3.0, SVG Export Plug-In . SVG Version: 6.00 Build 0)  -->
<svg version="1.1" id="Layer_1" xmlns="http://www.w3.org/2000/svg" xmlns:xlink="http://www.w3.org/1999/xlink" x="0px" y="0px"
	 viewBox="0 0 1000 200" style="enable-background:new 0 0 1000 200;" xml:space="preserve">
<style type="text/css">
	.st0{fill:#FFFFFF;}
</style>
<g>
	<path class="st0" d="M900.8,170.3c8.9-2.7,14.8-10.2,20.6-17.6l0.9-1.1c3.8-4.9,7.9-9.6,12.1-14.2c1.5,1.5,3.4,2.7,5.6,3.3
		c5.1,1.3,11.1-0.4,15.7-4.6c4.4-4,7-9.5,8.8-13.8c0.8-1.8,1.5-3.8,1.4-5.9c-0.1-2.1-1.3-4.6-3.6-5.3c-3.2-1-6.1,1.6-8,3.7l-5.1,5.7
		c-0.8,0.9-1.5,1.8-2.1,2.6c-0.3,0.1-0.5,0.2-0.8,0.3c-1.9,0.9-3.3,2.3-4.9,3.9c-2.4,2.4-4.7,4.8-7,7.2c-1.3-2-1.9-4.3-1.4-6.6
		c0.7-3.3,3.4-5.8,6.6-8.5l13.7-11.5c2.9-2.5,5.9-5.5,5.3-9.3c-0.4-2.6-2.4-4.6-3.9-6l-8.4-8.1c-3.6-3.5-7.7-7.4-12.6-9.7
		c-4.6-2.1-9.5-2.5-13.3-0.9c-4.7,1.9-7.6,6.9-6.6,11.4c1,4.5,5.2,7.3,9.1,9.6l8.2,4.9c1.6,0.9,3.4,1.9,5.3,1.3
		c2.2-0.7,3.2-3.2,3-5.2c-0.2-2-1.3-3.6-2.3-5.1c-1.8-2.6-4.1-5.3-7.3-6.6c-3.3-1.2-7.8-0.3-9.3,3.1c-0.5,1.1-0.6,2.3-0.3,3.5
		c-2.2-1.6-3.9-3.5-4.4-6c-0.9-4,2.1-7.8,5.5-9.2c3.3-1.4,7.6-1.1,11.8,0.8c4.6,2.2,8.4,5.8,12.1,9.3l8.4,8.1c1.6,1.6,3,3.1,3.3,4.9
		c0.4,2.8-2.1,5.4-4.7,7.5l-13.7,11.5c-2.7,2.2-6.3,5.3-7.3,9.5c-0.6,2.9,0.2,5.9,2,8.4c-4.3,4.7-8.4,9.6-12.3,14.5l-0.9,1.1
		c-5.6,7.1-11.3,14.4-19.6,16.9c-6.4,1.9-13.1,0.7-20.1-0.8c-5.6-1.2-11-2.6-15.9-5.1c-5.4-2.8-9.3-6.9-11.1-11.4
		c-2.1-5.2-1.1-11.3,2.4-14.8c0.8-0.8,1.7-1.5,2.7-2.2c2-1.5,4-3.1,4.9-5.5c0.5-1.5,0.5-3,0.6-4.4c0-0.7,0-1.3,0.1-1.9
		c0.1-1.6,0.8-3.6,2.4-4c1.2-0.3,2.6,0.5,3.4,1.4c0.8,0.9,1.3,2,1.8,3.2c0.1,0.3,0.3,0.6,0.4,0.9c3.8,8,11.5,14.2,20.2,16.2
		c1.7,0.4,3.9,0.7,6-0.1c2-0.7,3.9-2.7,3.6-5.2c-0.3-3.2-3.9-4.7-7.1-4.8c-0.6,0-1.2,0-1.8,0c-2,0.1-3.9,0.1-5.4-0.8
		c-1.8-1.2-2.5-3.4-3.2-5.9c-0.8-2.6-1.6-5.3-3.8-6.9c-1.2-0.8-2.5-1.2-3.8-1.5c-0.9-0.2-1.8-0.5-2.5-0.8c-1-0.5-1.8-1.6-1.9-2.6
		c-0.1-0.7,0.3-1,0.4-1.1c0.7-0.5,2-0.2,2.9,0.5c0.4,0.3,0.8,0.6,1.2,1c0.7,0.7,1.4,1.3,2.4,1.8c1.1,0.5,2.4,0.6,3.4,0.2
		c0.8-0.3,1.4-0.9,1.7-1.7c0.5-1.3-0.1-2.5-0.6-3.5c-0.2-0.5-0.5-1-0.6-1.4c-0.5-2.1,2-3.8,4.8-5.5c8.3-5,13.3-14.3,17.3-21.7
		c2.2-4.1,4.7-8.8,4.7-14c0-5.1-3.4-10.9-8.8-11.4c-0.5-0.1-1,0.3-1.1,0.9c-0.1,0.5,0.3,1,0.9,1.1c4.4,0.4,7.1,5.3,7.1,9.5
		c0,4.7-2.4,9.1-4.5,13.1c-3.9,7.2-8.7,16.2-16.6,21c-2.6,1.6-6.5,3.9-5.7,7.6c0.1,0.7,0.4,1.3,0.7,1.9c0.4,0.9,0.7,1.5,0.5,2
		c-0.1,0.2-0.3,0.4-0.6,0.5c-0.5,0.2-1.3,0.2-1.8-0.1c-0.7-0.3-1.3-0.9-1.9-1.5c-0.4-0.4-0.8-0.8-1.3-1.1c-1.5-1.1-3.6-1.7-5.2-0.5
		c-0.9,0.7-1.3,1.7-1.2,2.8c0.2,1.6,1.4,3.4,2.9,4.1c0.9,0.5,1.9,0.7,2.9,1c1.2,0.3,2.3,0.6,3.2,1.2c1.7,1.2,2.4,3.5,3.1,5.8
		c0.8,2.7,1.6,5.4,4.1,7c2,1.2,4.3,1.2,6.5,1.1c0.6,0,1.2,0,1.7,0c2.4,0,5,1.1,5.2,3c0.1,1.4-1.1,2.7-2.4,3.2
		c-1.6,0.6-3.5,0.3-4.9,0c-8.1-1.8-15.3-7.6-18.9-15.1c-0.1-0.3-0.3-0.6-0.4-0.9c-0.6-1.3-1.2-2.6-2.1-3.7c-1.5-1.7-3.6-2.5-5.4-2
		c-2.5,0.7-3.6,3.4-3.8,5.7c-0.1,0.7-0.1,1.4-0.1,2.1c0,1.4,0,2.6-0.4,3.8c-0.7,1.9-2.4,3.3-4.3,4.7c-1,0.7-2,1.5-2.9,2.4
		c-4.1,4.1-5.2,10.9-2.8,16.9c2,5,6.2,9.4,12,12.4c5.1,2.7,10.7,4,16.3,5.3c4.4,1,8.9,1.9,13.4,1.9
		C895.8,171.3,898.3,171,900.8,170.3z M942.7,128.5c1-1,1.9-1.8,2.8-2.5c-0.6,1.9-0.4,3.6,0.5,5c0.8,1.2,2.3,2,3.9,2.1
		c1.7,0.1,3.3-0.5,4.3-1.7c1-1.1,1.4-2.7,1.1-4.3c-0.3-1.6-1.2-3-2.5-3.8c-0.9-0.5-2-0.8-3.1-0.8c0.2-0.3,0.5-0.6,0.7-0.9l5.1-5.7
		c2.4-2.7,4.3-3.7,6-3.2c1.5,0.5,2.2,2.2,2.3,3.6c0.1,1.7-0.6,3.4-1.3,5.1c-1.7,4.1-4.2,9.4-8.3,13.1c-4.1,3.7-9.4,5.3-13.9,4.2
		c-1.9-0.5-3.5-1.5-4.8-2.8C937.9,133.4,940.3,131,942.7,128.5z M951.9,125c0.8,0.5,1.4,1.4,1.6,2.5c0.2,1-0.1,2-0.7,2.7
		c-0.6,0.7-1.6,1.1-2.7,1c-1-0.1-1.9-0.5-2.4-1.3c-1-1.5-0.5-3.5,0.6-5.3C949.4,124.4,950.8,124.3,951.9,125z M928.6,94.6
		c1.4-0.9,2.4-2.3,2.7-3.8c0.2-1.3-0.1-2.7-0.9-4c2.1,1.2,3.7,3.3,5,5.2c0.9,1.3,1.8,2.7,2,4.2c0.1,1.2-0.4,2.8-1.6,3.1
		c-1.1,0.4-2.5-0.3-3.7-1.1l-5-2.9C927.6,95.1,928.1,94.9,928.6,94.6z M925.8,86c1,0,2,0.6,2.7,1.5c0.7,0.9,1,2,0.9,3
		c-0.2,1-0.8,1.9-1.8,2.5c-1,0.6-2.1,0.8-3,0.5c-1-0.3-1.8-1.1-2.3-2.1c-0.5-1-0.5-2.2-0.1-3.1c0.6-1.3,1.8-2,3.2-2.3
		C925.5,85.9,925.7,86,925.8,86z"/>
</g>
<g>
	<path class="st0" d="M985.2,76.8c-0.1,0-0.3,0-0.4-0.1c-0.5-0.2-0.7-0.8-0.5-1.3c7.3-16.5,18.3-31.5,31.8-43.5l0.7-0.6
		c1.8-1.6,3.7-3.3,5.1-5.2c1.7-2.4,2.4-5,1.9-7.2c-0.5-2.5-2.8-4.4-4.9-4.3c-1.7,0.1-3.3,1.3-5,2.5c-2.2,1.6-4.4,3.3-7.2,2.5
		c-2.1-0.6-3.8-2.6-4.3-5.2c-0.4-2.2,0-4.4,0.4-6.4l5.9-29.7c0.2-1,0.7-4.4-1.1-5.1c-0.9-0.3-1.9,0.2-2.5,0.9
		c-0.8,0.8-1.2,2-1.6,3.1L993.4,6.4c-0.1,0.4-0.5,0.6-0.9,0.6c-0.4,0-0.8-0.2-0.9-0.6c-3.8-9.9-5.4-20.8-4.5-31.4l0.1-0.7
		c0.2-2.3,0.4-4.6-0.4-6.6c-0.7-2-2.9-3.7-4.9-3.1c-2.4,0.8-2.9,4.4-2.8,7.4l0.7,23.2c0.1,1.8,0.1,3.8-0.7,5.6
		c-0.8,1.9-2.9,3.6-5.2,3.2c-2.9-0.5-4-3.7-4.6-6l-6.8-28.3c-0.4-1.5-1.2-4.1-2.9-4.1c0,0,0,0,0,0c-1,0-1.8,1-2.1,1.9
		c-0.4,1.2-0.2,2.5,0,3.8L962.5,8c0.1,0.4-0.2,0.8-0.6,1c-0.4,0.2-0.9,0.1-1.1-0.3c-4.5-5.3-7.4-12-8.2-18.9c0-0.3-0.1-0.6-0.1-0.9
		c-0.2-1.5-0.3-2.9-0.9-4.2c-0.6-1.3-1.9-2.5-3.3-2.4c-1.3,0.2-2.3,1.5-2.6,2.6c-0.4,1.5-0.2,3.2,0,4.7c3.2,23.8,8.4,47.5,15.5,70.4
		c0.2,0.5-0.1,1.1-0.6,1.2c-0.5,0.2-1.1-0.1-1.2-0.6c-7.1-23-12.4-46.9-15.6-70.8c-0.2-1.6-0.5-3.6,0-5.4c0.5-1.8,2-3.8,4.2-4
		c2.4-0.3,4.4,1.6,5.3,3.5c0.7,1.5,0.9,3.2,1,4.8c0,0.3,0.1,0.6,0.1,0.9c0.6,5.3,2.6,10.5,5.5,14.9l-4.6-33c-0.2-1.4-0.4-3.1,0-4.6
		c0.5-1.6,1.9-3.3,3.9-3.3c0,0,0,0,0,0c1.6,0,3.7,1,4.8,5.6l6.8,28.3c0.7,2.9,1.7,4.4,3,4.6c1.3,0.2,2.6-0.9,3.1-2.1
		c0.6-1.4,0.6-3.2,0.5-4.8L977.1-28c-0.2-5.2,1.2-8.3,4.1-9.3c3-1,6.2,1.4,7.3,4.2c0.9,2.4,0.7,5,0.5,7.5l-0.1,0.7
		c-0.8,9.4,0.5,19.1,3.5,28l9.3-26.5c0.4-1.2,0.9-2.7,1.9-3.8c1-1.1,2.8-2,4.6-1.4c2.2,0.8,3.1,3.5,2.3,7.3l-5.9,29.7
		c-0.4,1.9-0.8,3.8-0.4,5.6c0.3,1.5,1.3,3.3,2.9,3.7c1.9,0.5,3.6-0.8,5.6-2.2c1.8-1.3,3.7-2.7,6-2.9c3.2-0.2,6.2,2.4,6.9,5.8
		c0.8,3.7-1,7.1-2.2,8.7c-1.5,2.1-3.5,3.9-5.4,5.6l-0.7,0.6C1004.1,45.2,993.2,60,986,76.2C985.9,76.6,985.5,76.8,985.2,76.8z"/>
</g>
<path class="st0" d="M735.5,90.4c0.1-0.2,0-0.5-0.1-0.6c3-1.6,4.9-4.1,5.4-6.7c0-0.2,0-0.4,0.1-0.6c0.1-2-0.9-3.8-2.6-4.9
	c-1.8-1.1-4-1.1-5.9-0.1l-21.7,12.7c-2.3,1.4-4,1.6-4.8,0.7c-0.5-0.5-0.6-1.3-0.4-2c0.5-1.7,2.1-2.7,3.9-3.6
	c2.1-1.2,4.5-2.6,4.9-5.6c0.2-1.6-0.2-3.2-1.1-4.7c-1.8-2.7-4.5-3.9-7.2-5.2c-0.3-0.1-0.6-0.3-1-0.5c-11.3-5.3-20.5-14.4-26-25.6
	c-3.3-6.8-4.1-12.6-2.3-17.3c1.4-3.5,4.2-6.4,7-9c3-2.9,6.6-6.1,10.8-8.2c4.4-2.2,8.9-2.9,12.8-1.9c4.4,1.1,7.9,4.7,8.5,8.6
	c0.5,3.3-0.8,7.1-3.6,10.2c0-0.5,0-1,0-1.6c-0.2-1.9-1-3.4-2.2-4.5c-2.3-2-6-2.3-9.2-0.9c-3,1.4-5.1,3.8-6.7,5.9
	c-1.4,1.8-2.7,3.9-2.8,6.4c0,1.6,0.5,3.1,1.5,4.1c2.2,2.2,5.5,2,10.1-0.6c3.6-2,7.4-4.1,10.4-7.3c3.4-3.6,5-8.1,4.4-12.1
	c-0.8-4.7-4.8-8.8-9.9-10.2c-4.3-1.1-9.4-0.4-14.2,2c-4.4,2.2-8.2,5.6-11.3,8.5c-3,2.8-6,5.8-7.5,9.8c-2,5.2-1.2,11.6,2.4,18.8
	c5.7,11.6,15.3,21,26.9,26.5c0.3,0.2,0.7,0.3,1,0.5c2.5,1.2,4.9,2.3,6.4,4.5c0.7,1,1,2.2,0.8,3.3c-0.3,2.1-2,3.1-4,4.2
	c-1.9,1.1-4,2.3-4.8,4.8c-0.4,1.5-0.1,2.9,0.8,3.9c1.6,1.7,4,1.5,7.2-0.3l21.7-12.7c1.2-0.7,2.7-0.7,3.9,0.1
	c1.1,0.7,1.7,1.8,1.7,3.1c0,0.1,0,0.2,0,0.4c-0.3,2.2-2.1,4.2-4.8,5.5c-1.7,0.8-3.4,1.3-5.3,1.8c-0.9,0.2-1.8,0.5-2.7,0.8
	c-5.7,1.8-10.9,5.1-14.9,9.6c-0.6,0.7-1,1.6-1,2.5c0,0.9,0.3,1.7,0.8,2.3c1,1,2.6,1.3,3.8,1.3c0.1,0,0.2,0,0.3,0
	C724.4,106.4,733.3,99.4,735.5,90.4z M714.8,104.5c-1.1,0-2-0.3-2.4-0.7c-0.1-0.1-0.3-0.4-0.3-0.9c0-0.4,0.2-0.8,0.5-1.2
	c3.8-4.2,8.7-7.3,14.1-9c0.8-0.3,1.7-0.5,2.6-0.7c1.4-0.4,2.8-0.8,4.2-1.3C731.2,98.6,723.1,104.6,714.8,104.5z M698.7,24.8
	c-0.1,2,0.5,3.9,1.7,5.2c1,1.1,2.4,1.8,3.9,2c-0.7,0.4-1.4,0.8-2.1,1.2c-3.7,2.1-6.3,2.4-7.8,0.9c-0.7-0.7-1-1.6-1-2.7
	c0.1-2,1.2-3.7,2.4-5.3c0.9-1.2,2.1-2.6,3.5-3.8C698.9,23.2,698.7,24,698.7,24.8z M708.8,21.5c0.8,0.7,1.4,1.9,1.5,3.2
	c0.3,3.2-1.5,4.5-2.6,5c-2,0.9-4.6,0.5-5.9-1c-0.9-1-1.3-2.3-1.2-3.8c0.1-1.5,0.7-2.8,1.8-3.6c0.3-0.2,0.4-0.5,0.4-0.9
	C704.7,20,707.1,20.1,708.8,21.5z"/>
<path class="st0" d="M837.8,220.6c0-0.1,0-0.3,0-0.4c2.1-1.2,3.5-3,3.8-4.9c0-0.2,0-0.3,0-0.5c0.1-1.5-0.7-2.9-2-3.7
	c-1.4-0.8-3.1-0.8-4.5,0l-15.6,9.1c-1,0.6-2.4,1.2-3.1,0.6c-0.4-0.3-0.4-0.9-0.2-1.4c0.4-1.1,1.4-1.7,2.6-2.4
	c1.6-0.9,3.4-1.9,3.7-4.3c0.1-1.1-0.2-2.3-0.8-3.4c-1.3-2-3.3-3-5.3-3.9l-0.7-0.3c-8-3.8-14.6-10.3-18.5-18.3
	c-2.4-4.8-2.9-8.9-1.6-12.2c1-2.5,3-4.5,4.9-6.4c2.2-2,4.7-4.3,7.7-5.8c3.1-1.6,6.3-2,9-1.3c3,0.8,5.5,3.2,5.9,6
	c0.3,2.1-0.4,4.5-2,6.5c0-0.1,0-0.2,0-0.3c-0.1-1.5-0.8-2.8-1.8-3.6c-1.7-1.4-4.4-1.7-6.8-0.6c-2.2,1-3.8,2.8-4.9,4.3
	c-1.1,1.4-2.1,3-2,5c0,1.1,0.4,2.1,1.1,2.8c1.6,1.8,4.2,1.7,7.7-0.2c2.6-1.5,5.4-3,7.5-5.3c2.5-2.6,3.7-6,3.2-8.9
	c-0.6-3.5-3.5-6.5-7.3-7.5c-3.2-0.8-6.9-0.3-10.4,1.5c-3.2,1.6-5.9,4-8.2,6.2c-2.1,2-4.3,4.2-5.4,7.1c-1.5,3.8-0.9,8.4,1.7,13.7
	c4.1,8.4,11,15.2,19.4,19.2l0.7,0.3c1.8,0.8,3.5,1.6,4.5,3.2c0.4,0.7,0.6,1.4,0.5,2.1c-0.2,1.4-1.1,2-2.7,2.9
	c-1.4,0.8-2.9,1.6-3.5,3.4c-0.4,1.3-0.1,2.6,0.8,3.4c1.2,1.1,3,0.9,5.3-0.4l15.6-9.1c0.8-0.4,1.7-0.4,2.5,0c0.7,0.4,1.1,1.1,1.1,1.9
	c0,0.1,0,0.2,0,0.3c-0.2,1.5-1.5,2.9-3.3,3.8c-1.2,0.6-2.4,0.9-3.8,1.3c-0.6,0.2-1.3,0.3-1.9,0.5c-3.9,1.2-7.4,3.4-10.3,6.3
	c-1.2,1.2-1.6,2.4-1.2,3.5c0.4,1.2,1.6,1.8,3.4,1.9c0.1,0,0.2,0,0.2,0C829.7,232.3,836.2,227.2,837.8,220.6z M822.7,230.4
	c-0.9,0-1.5-0.2-1.6-0.6c-0.1-0.3,0.2-0.9,0.8-1.5c2.6-2.7,5.9-4.7,9.5-5.8c0.6-0.2,1.2-0.4,1.8-0.5c0.8-0.2,1.7-0.5,2.5-0.7
	C833.8,226.5,828.3,230.5,822.7,230.4z M810.8,173.5c-0.1,1.5,0.4,2.9,1.3,4c0.6,0.6,1.4,1.1,2.2,1.4c-0.3,0.2-0.6,0.4-0.9,0.5
	c-2.6,1.4-4.4,1.6-5.3,0.6c-0.3-0.4-0.5-0.9-0.5-1.5c0-1.3,0.7-2.4,1.7-3.8c0.6-0.8,1.2-1.4,1.7-2
	C810.9,173,810.8,173.2,810.8,173.5z M818.1,171.3c0.6,0.5,1,1.3,1.1,2.3c0.2,2.1-1,2.9-1.7,3.2c-1.3,0.6-3,0.3-3.9-0.7
	c-0.6-0.6-0.9-1.5-0.8-2.5c0.1-1,0.5-1.8,1.2-2.4c0.2-0.2,0.3-0.4,0.4-0.6C815.5,170.4,817,170.4,818.1,171.3z"/>
<path class="st0" d="M669.2,103.1c-0.8,0-1.6-0.1-2.4-0.3c-3.8-0.9-6.9-3.4-9.6-6c-5.1-4.8-9.7-10.1-13.7-15.8
	c-2-2.9-4.1-6.6-3-10.4c1.3-4.5,6.7-6.3,10.9-5.5c4.3,0.8,7.8,3.8,10.7,6.1c1.8,1.5,3.9,3.2,5.1,5.6c1.1,2.3,1.3,5.7-0.9,7.8
	c-2.9,2.7-7.7,1.2-10.6-1.6c-1.5-1.5-2.4-2.8-2.6-4.3c-0.3-1.8,0.4-4.1,2.4-4.8c1.1-0.4,2.3-0.1,3.3,0.7c0.8,0.7,1.2,1.7,0.9,2.7
	c-0.1,0.5-0.6,0.8-1.2,0.7c-0.5-0.1-0.8-0.6-0.7-1.2c0.1-0.4-0.2-0.7-0.3-0.8c-0.4-0.3-0.9-0.5-1.3-0.3c-1,0.4-1.4,1.7-1.2,2.7
	c0.2,1,0.8,2.1,2.1,3.2c2,1.9,5.8,3.7,8,1.6c1.5-1.4,1.4-3.8,0.5-5.5c-1-2-2.9-3.6-4.6-4.9c-2.9-2.3-6.1-5-9.9-5.7
	c-3.4-0.7-7.7,0.8-8.7,4.2c-0.9,3,1,6.2,2.7,8.7c3.9,5.6,8.4,10.8,13.4,15.5c2.6,2.4,5.4,4.7,8.8,5.5c3,0.7,6.9-0.2,8.4-3.2
	c0.2-0.5,0.8-0.7,1.3-0.4c0.5,0.2,0.7,0.8,0.4,1.3C675.9,101.7,672.4,103.1,669.2,103.1z"/>
<path class="st0" d="M900.8,170.3c8.9-2.7,14.8-10.2,20.6-17.6l0.9-1.1c3.8-4.9,7.9-9.6,12.1-14.2c1.5,1.5,3.4,2.7,5.6,3.3
	c5.1,1.3,11.1-0.4,15.7-4.6c4.4-4,7-9.5,8.8-13.8c0.8-1.8,1.5-3.8,1.4-5.9c-0.1-2.1-1.3-4.6-3.6-5.3c-3.2-1-6.1,1.6-8,3.7l-5.1,5.7
	c-0.8,0.9-1.5,1.8-2.1,2.6c-0.3,0.1-0.5,0.2-0.8,0.3c-1.9,0.9-3.3,2.3-4.9,3.9c-2.4,2.4-4.7,4.8-7,7.2c-1.3-2-1.9-4.3-1.4-6.6
	c0.7-3.3,3.4-5.8,6.6-8.5l13.7-11.5c2.9-2.5,5.9-5.5,5.3-9.3c-0.4-2.6-2.4-4.6-3.9-6l-8.4-8.1c-3.6-3.5-7.7-7.4-12.6-9.7
	c-4.6-2.1-9.5-2.5-13.3-0.9c-4.7,1.9-7.6,6.9-6.6,11.4c1,4.5,5.2,7.3,9.1,9.6l8.2,4.9c1.6,0.9,3.4,1.9,5.3,1.3
	c2.2-0.7,3.2-3.2,3-5.2c-0.2-2-1.3-3.6-2.3-5.1c-1.8-2.6-4.1-5.3-7.3-6.6c-3.3-1.2-7.8-0.3-9.3,3.1c-0.5,1.1-0.6,2.3-0.3,3.5
	c-2.2-1.6-3.9-3.5-4.4-6c-0.9-4,2.1-7.8,5.5-9.2c3.3-1.4,7.6-1.1,11.8,0.8c4.6,2.2,8.4,5.8,12.1,9.3l8.4,8.1c1.6,1.6,3,3.1,3.3,4.9
	c0.4,2.8-2.1,5.4-4.7,7.5l-13.7,11.5c-2.7,2.2-6.3,5.3-7.3,9.5c-0.6,2.9,0.2,5.9,2,8.4c-4.3,4.7-8.4,9.6-12.3,14.5l-0.9,1.1
	c-5.6,7.1-11.3,14.4-19.6,16.9c-6.4,1.9-13.1,0.7-20.1-0.8c-5.6-1.2-11-2.6-15.9-5.1c-5.4-2.8-9.3-6.9-11.1-11.4
	c-2.1-5.2-1.1-11.3,2.4-14.8c0.8-0.8,1.7-1.5,2.7-2.2c2-1.5,4-3.1,4.9-5.5c0.5-1.5,0.5-3,0.6-4.4c0-0.7,0-1.3,0.1-1.9
	c0.1-1.6,0.8-3.6,2.4-4c1.2-0.3,2.6,0.5,3.4,1.4c0.8,0.9,1.3,2,1.8,3.2c0.1,0.3,0.3,0.6,0.4,0.9c3.8,8,11.5,14.2,20.2,16.2
	c1.7,0.4,3.9,0.7,6-0.1c2-0.7,3.9-2.7,3.6-5.2c-0.3-3.2-3.9-4.7-7.1-4.8c-0.6,0-1.2,0-1.8,0c-2,0.1-3.9,0.1-5.4-0.8
	c-1.8-1.2-2.5-3.4-3.2-5.9c-0.8-2.6-1.6-5.3-3.8-6.9c-1.2-0.8-2.5-1.2-3.8-1.5c-0.9-0.2-1.8-0.5-2.5-0.8c-1-0.5-1.8-1.6-1.9-2.6
	c-0.1-0.7,0.3-1,0.4-1.1c0.7-0.5,2-0.2,2.9,0.5c0.4,0.3,0.8,0.6,1.2,1c0.7,0.7,1.4,1.3,2.4,1.8c1.1,0.5,2.4,0.6,3.4,0.2
	c0.8-0.3,1.4-0.9,1.7-1.7c0.5-1.3-0.1-2.5-0.6-3.5c-0.2-0.5-0.5-1-0.6-1.4c-0.5-2.1,2-3.8,4.8-5.5c8.3-5,13.3-14.3,17.3-21.7
	c2.2-4.1,4.7-8.8,4.7-14c0-5.1-3.4-10.9-8.8-11.4c-0.5-0.1-1,0.3-1.1,0.9c-0.1,0.5,0.3,1,0.9,1.1c4.4,0.4,7.1,5.3,7.1,9.5
	c0,4.7-2.4,9.1-4.5,13.1c-3.9,7.2-8.7,16.2-16.6,21c-2.6,1.6-6.5,3.9-5.7,7.6c0.1,0.7,0.4,1.3,0.7,1.9c0.4,0.9,0.7,1.5,0.5,2
	c-0.1,0.2-0.3,0.4-0.6,0.5c-0.5,0.2-1.3,0.2-1.8-0.1c-0.7-0.3-1.3-0.9-1.9-1.5c-0.4-0.4-0.8-0.8-1.3-1.1c-1.5-1.1-3.6-1.7-5.2-0.5
	c-0.9,0.7-1.3,1.7-1.2,2.8c0.2,1.6,1.4,3.4,2.9,4.1c0.9,0.5,1.9,0.7,2.9,1c1.2,0.3,2.3,0.6,3.2,1.2c1.7,1.2,2.4,3.5,3.1,5.8
	c0.8,2.7,1.6,5.4,4.1,7c2,1.2,4.3,1.2,6.5,1.1c0.6,0,1.2,0,1.7,0c2.4,0,5,1.1,5.2,3c0.1,1.4-1.1,2.7-2.4,3.2c-1.6,0.6-3.5,0.3-4.9,0
	c-8.1-1.8-15.3-7.6-18.9-15.1c-0.1-0.3-0.3-0.6-0.4-0.9c-0.6-1.3-1.2-2.6-2.1-3.7c-1.5-1.7-3.6-2.5-5.4-2c-2.5,0.7-3.6,3.4-3.8,5.7
	c-0.1,0.7-0.1,1.4-0.1,2.1c0,1.4,0,2.6-0.4,3.8c-0.7,1.9-2.4,3.3-4.3,4.7c-1,0.7-2,1.5-2.9,2.4c-4.1,4.1-5.2,10.9-2.8,16.9
	c2,5,6.2,9.4,12,12.4c5.1,2.7,10.7,4,16.3,5.3c4.4,1,8.9,1.9,13.4,1.9C895.8,171.3,898.3,171,900.8,170.3z M942.7,128.5
	c1-1,1.9-1.8,2.8-2.5c-0.6,1.9-0.4,3.6,0.5,5c0.8,1.2,2.3,2,3.9,2.1c1.7,0.1,3.3-0.5,4.3-1.7c1-1.1,1.4-2.7,1.1-4.3
	c-0.3-1.6-1.2-3-2.5-3.8c-0.9-0.5-2-0.8-3.1-0.8c0.2-0.3,0.5-0.6,0.7-0.9l5.1-5.7c2.4-2.7,4.3-3.7,6-3.2c1.5,0.5,2.2,2.2,2.3,3.6
	c0.1,1.7-0.6,3.4-1.3,5.1c-1.7,4.1-4.2,9.4-8.3,13.1c-4.1,3.7-9.4,5.3-13.9,4.2c-1.9-0.5-3.5-1.5-4.8-2.8
	C937.9,133.4,940.3,131,942.7,128.5z M951.9,125c0.8,0.5,1.4,1.4,1.6,2.5c0.2,1-0.1,2-0.7,2.7c-0.6,0.7-1.6,1.1-2.7,1
	c-1-0.1-1.9-0.5-2.4-1.3c-1-1.5-0.5-3.5,0.6-5.3C949.4,124.4,950.8,124.3,951.9,125z M928.6,94.6c1.4-0.9,2.4-2.3,2.7-3.8
	c0.2-1.3-0.1-2.7-0.9-4c2.1,1.2,3.7,3.3,5,5.2c0.9,1.3,1.8,2.7,2,4.2c0.1,1.2-0.4,2.8-1.6,3.1c-1.1,0.4-2.5-0.3-3.7-1.1l-5-2.9
	C927.6,95.1,928.1,94.9,928.6,94.6z M925.8,86c1,0,2,0.6,2.7,1.5c0.7,0.9,1,2,0.9,3c-0.2,1-0.8,1.9-1.8,2.5c-1,0.6-2.1,0.8-3,0.5
	c-1-0.3-1.8-1.1-2.3-2.1c-0.5-1-0.5-2.2-0.1-3.1c0.6-1.3,1.8-2,3.2-2.3C925.5,85.9,925.7,86,925.8,86z"/>
<path class="st0" d="M774.7,89.6c-0.7,0-1.3-0.1-2-0.4c-2.7-1.3-3.8-4.5-3-9.7l3.4-22.9c0.2-1.5,0.5-3.3,0-4.8
	c-0.4-1.2-1.5-2.5-2.8-2.4c-1.4,0.1-2.5,1.4-3.5,4.2l-10.1,27.3c-1.6,4.5-3.9,5.2-5.4,5c-2-0.2-3.2-2.1-3.5-3.7
	c-0.3-1.6,0.1-3.2,0.5-4.6l8.4-32.3c-3.5,4.1-6,9-7.2,14.2c-0.1,0.3-0.1,0.6-0.2,0.9c-0.4,1.6-0.7,3.2-1.6,4.7
	c-1.1,1.8-3.3,3.4-5.7,2.8c-2.2-0.5-3.5-2.6-3.7-4.5c-0.3-1.9,0.2-3.8,0.6-5.4c5.9-23.4,13.9-46.4,23.6-68.5
	c0.2-0.5,0.8-0.7,1.3-0.5c0.5,0.2,0.7,0.8,0.5,1.3c-9.7,22-17.6,44.9-23.5,68.2c-0.4,1.5-0.8,3.1-0.5,4.6c0.2,1.2,1,2.6,2.3,2.9
	c1.4,0.3,2.8-0.7,3.6-2c0.7-1.2,1-2.6,1.4-4.1c0.1-0.3,0.1-0.6,0.2-0.9c1.6-6.7,5.3-13.1,10.3-17.8c0.3-0.3,0.8-0.3,1.2-0.1
	c0.4,0.2,0.6,0.7,0.4,1.1L750.1,78c-0.3,1.3-0.7,2.6-0.5,3.8c0.2,1,0.9,2,1.8,2.2c1.7,0.2,2.8-2.2,3.4-3.7L765,52.9
	c0.8-2.3,2.3-5.3,5.3-5.5c2.3-0.1,4.2,1.8,4.8,3.8c0.6,1.9,0.3,3.9,0,5.6l-3.4,22.9c-0.4,2.9-0.4,6.6,1.9,7.6
	c1.9,0.9,4.2-0.6,5.2-2.5c1-1.9,1.1-4.3,1.1-6.6l0-0.7c0.4-10.6,3.2-21.2,8.1-30.7c0.2-0.4,0.6-0.6,1-0.5c0.4,0.1,0.7,0.4,0.8,0.7
	l6.7,30.1c0.3,1.2,0.5,2.4,1.2,3.3c0.5,0.7,1.4,1.4,2.3,1.1c1.9-0.4,1.7-3.9,1.7-4.9l-2.4-30.1c-0.2-2-0.3-4.2,0.3-6.4
	c0.8-2.5,2.7-4.4,4.9-4.7c2.8-0.4,4.9,1.5,6.9,3.4c1.5,1.4,2.9,2.8,4.7,3.1c2.2,0.4,4.6-1.3,5.4-3.7c0.7-2.1,0.3-4.8-1-7.4
	c-1.1-2.1-2.8-4-4.4-5.8l-0.6-0.7c-12-13.5-21.2-29.7-26.5-46.9c-0.2-0.5,0.1-1.1,0.6-1.2c0.5-0.2,1.1,0.1,1.2,0.6
	C795.9-6,804.9,10,816.8,23.2l0.6,0.7c1.7,1.9,3.5,3.9,4.7,6.2c1.7,3.1,2.1,6.2,1.2,8.9c-1.1,3.3-4.4,5.5-7.6,5
	c-2.3-0.4-4-2-5.6-3.5c-1.8-1.7-3.3-3.1-5.3-2.9c-1.7,0.2-2.9,1.8-3.3,3.3c-0.5,1.8-0.4,3.7-0.2,5.6l2.4,30.1c0.3,3.9-0.8,6.4-3.1,7
	c-1.8,0.4-3.5-0.7-4.4-1.9c-0.9-1.2-1.2-2.7-1.5-4l-6.1-27.4c-4.1,8.5-6.4,18-6.7,27.4l0,0.7c-0.1,2.5-0.2,5.1-1.3,7.4
	C779.4,87.9,777,89.6,774.7,89.6z"/>
<path class="st0" d="M602.7,170.4c-0.9,0-1.8-0.2-2.5-0.4c-7.2-2.1-12.4-9.6-12.1-17.5c0.3-6.6,4.3-12.8,10.2-16.3l-28.9-7.5
	c-1.4-0.4-4-1-5-3.2c-0.5-1-0.5-2.2,0-3.3c0.5-1.4,1.8-2.6,3.2-3.2c2.3-0.9,4.8-0.5,6.9-0.2l30.8,4.7c-8.2-8.2-18.8-14.1-30-16.9
	c-2.1-0.5-7.9-1.9-8.1-6.3c-0.1-3.1,2.9-5.4,5.8-5.6c2.8-0.2,5.4,1.1,7.6,2.1l27.2,12.9l-20.3-21.7c-1.5-1.7-3.5-4.2-2.4-6.7
	c1.3-3,5.3-3,8.8-1.7c15.2,6,28.3,16.2,40.9,26.2c12.5,9.8,25.5,19.9,40.3,25.8c0.5,0.2,0.7,0.8,0.5,1.3c-0.2,0.5-0.8,0.7-1.3,0.5
	c-15.1-6-28.1-16.2-40.8-26.1c-12.6-9.8-25.5-20-40.4-25.9c-1.8-0.7-5.4-1.5-6.3,0.6c-0.5,1.2,0.2,2.6,2,4.7l23.7,25.5
	c0.3,0.3,0.3,0.9,0.1,1.2c-0.3,0.4-0.8,0.5-1.2,0.3l-31.8-15.1c-2-1-4.3-2-6.6-1.9c-2,0.1-4.1,1.6-4,3.6c0.1,2.6,3.8,3.8,6.6,4.5
	c12.5,3.1,24.2,10,33,19.5c0.3,0.3,0.3,0.7,0.1,1.1c-0.2,0.4-0.6,0.6-1,0.5l-33.6-5.2c-1.9-0.3-4-0.6-5.8,0.1
	c-0.9,0.4-1.7,1.2-2.1,2.1c-0.2,0.4-0.3,1.1,0,1.7c0.6,1.2,2.2,1.7,3.7,2.1l31.4,8.1c0.4,0.1,0.7,0.5,0.7,0.9c0,0.4-0.2,0.8-0.6,1
	c-6.5,2.8-11.1,9.1-11.4,15.8c-0.3,6.9,4.4,13.7,10.7,15.6c0.8,0.2,2.9,0.7,4-0.4c1-1,0.6-2.8-0.1-4c-0.4-0.7-0.9-1.3-1.4-2
	c-0.6-0.8-1.3-1.7-1.8-2.7c-1.1-2.2-1.1-5,0.1-7.5c1.2-2.5,3.3-4.3,5.7-4.9c2.4-0.6,5.1,0.1,7.3,1.8c2.1,1.7,3.4,4.2,3.5,6.6
	c0,1.4-0.3,2.8-0.6,4.2c-0.5,2.2-0.9,4.3,0.1,5.8c1.3,1.9,4.5,1.9,6.6,0.6c2.3-1.5,3.6-4.2,4.9-6.6c1.5-3,3-5.7,5.6-7.3
	c3.1-1.9,6.9-1.9,9.9-1.8l45,0.8c0.5,0,1,0.4,1,1c0,0.5-0.5,0.9-1,1l-45-0.8c-2.8,0-6.3-0.1-8.8,1.5c-2.2,1.4-3.5,3.8-4.9,6.6
	c-1.3,2.6-2.8,5.6-5.5,7.4c-2.8,1.8-7.3,1.9-9.2-1.1c-1.5-2.3-0.9-4.8-0.4-7.3c0.3-1.2,0.6-2.5,0.6-3.7c0-1.9-1-3.8-2.7-5.1
	c-1.7-1.3-3.8-1.8-5.6-1.4c-1.8,0.4-3.5,1.9-4.4,3.8c-0.9,1.9-1,4.1-0.1,5.8c0.4,0.8,1,1.6,1.6,2.3c0.5,0.7,1.1,1.4,1.5,2.2
	c1.1,1.9,1.4,4.6-0.2,6.3C605.2,170.1,603.9,170.4,602.7,170.4z"/>
<g>
	<path class="st0" d="M738.2,177.3c6.9-1.3,13.9-4.5,22.1-10.2c3.3-2.3,7-5.1,9.9-8.7c1.1-1.4,6.6-8.5,4.9-13.2
		c-1.2-3.5-7.5-5.2-10.9-6.2l-0.5-0.1c-8.5-2.3-17.5-1.9-25.4,1.3c-10.2,4.1-18.7,12.8-22.6,23.3l-0.2,0.4c-0.8,2.2-2,5.3-0.6,7.8
		c1.4,2.4,4.7,3.7,7,4.4c3.1,1.1,6.5,1.7,10,1.7C734.1,177.8,736.1,177.6,738.2,177.3z M763.2,140.7l0.5,0.1
		c2.8,0.8,8.7,2.3,9.6,4.9c1.1,3.2-2.4,8.6-4.6,11.4c-2.8,3.4-6.4,6.1-9.5,8.3c-8,5.5-14.8,8.7-21.3,9.9c-5.3,1-10.6,0.6-15.2-1
		c-1.8-0.7-4.9-1.8-5.9-3.6c-1-1.7,0-4.1,0.7-6.1l0.2-0.5c3.7-10,11.7-18.3,21.5-22.2l0,0c4.3-1.7,9.1-2.6,13.8-2.6
		C756.4,139.3,759.8,139.8,763.2,140.7z M738.7,141.1L738.7,141.1L738.7,141.1z"/>
	<path class="st0" d="M757.7,166.4L757.7,166.4c1.5-2.4,2.3-5.2,2.5-8c0.5-7.1-3.9-14.2-10.3-17.1c-4.5-2-9.9-1.7-15,0.7
		c-5.1,2.4-9,6.8-10.4,11.6c-1.2,4.4-0.1,9.3,3.1,13.7c3.6,4.8,9,7.9,14,7.9c0.1,0,0.1,0,0.2,0C748.2,175.3,754.5,171.8,757.7,166.4
		z M749.1,143.2c5.8,2.5,9.6,8.9,9.2,15.2c-0.2,2.5-1,4.9-2.3,7.1l0,0c-2.8,4.7-8.5,7.9-14.2,7.9c-0.1,0-0.1,0-0.2,0
		c-4.4,0-9.3-2.9-12.5-7.1c-2.9-3.8-3.9-8.2-2.8-12c1.2-4.3,4.7-8.2,9.4-10.4c2.5-1.2,5.2-1.8,7.7-1.8
		C745.4,142,747.3,142.4,749.1,143.2z"/>
	<path class="st0" d="M750.8,162.5L750.8,162.5c0.8-1.3,1.3-2.9,1.4-4.4c0.3-3.9-2.1-7.8-5.7-9.4c-2.5-1.1-5.5-0.9-8.2,0.4
		c-2.8,1.3-5,3.7-5.7,6.4c-0.7,2.4-0.1,5.2,1.7,7.6c2,2.6,4.9,4.3,7.7,4.3c0,0,0.1,0,0.1,0C745.6,167.4,749,165.5,750.8,162.5z
		 M745.7,150.5c2.8,1.2,4.8,4.4,4.5,7.5c-0.1,1.2-0.5,2.4-1.1,3.5c-1.4,2.3-4.2,3.9-7.1,3.9c0,0-0.1,0-0.1,0c-2.2,0-4.6-1.4-6.2-3.6
		c-1.4-1.9-1.9-4-1.4-5.9c0.6-2.1,2.4-4.1,4.7-5.2c1.3-0.6,2.6-0.9,3.8-0.9C743.9,150,744.8,150.1,745.7,150.5z M750,162L750,162
		L750,162z"/>
	<path class="st0" d="M712.8,159.8c-0.2,0-0.4-0.1-0.5-0.2l-9.7-6.7c-0.4-0.3-0.6-0.9-0.3-1.3c0.3-0.4,0.9-0.6,1.3-0.3l9.7,6.7
		c0.4,0.3,0.6,0.9,0.3,1.3C713.4,159.7,713.1,159.8,712.8,159.8z"/>
	<path class="st0" d="M722.9,147.5c-0.3,0-0.5-0.1-0.7-0.3l-6.3-6.5c0,0-0.1-0.1-0.1-0.1l-0.3-0.3c-0.4-0.4-0.4-1,0-1.4
		c0.4-0.4,1-0.4,1.4,0l6.8,6.9c0.4,0.4,0.4,1,0,1.4C723.4,147.4,723.1,147.5,722.9,147.5z"/>
	<path class="st0" d="M731,141c-0.4,0-0.7-0.2-0.9-0.6l-5.6-11.8c-0.2-0.5,0-1.1,0.5-1.3c0.5-0.2,1.1,0,1.3,0.5l5.6,11.8
		c0.2,0.5,0,1.1-0.5,1.3C731.3,141,731.2,141,731,141z"/>
	<path class="st0" d="M742.7,137.2c-0.4,0-0.8-0.3-0.9-0.7l-3.2-10.8c-0.2-0.5,0.1-1.1,0.7-1.2c0.5-0.2,1.1,0.1,1.2,0.7l3.2,10.8
		c0.2,0.5-0.1,1.1-0.7,1.2C742.9,137.2,742.8,137.2,742.7,137.2z"/>
	<path class="st0" d="M751.9,134.9C751.9,134.9,751.8,134.9,751.9,134.9c-0.6,0-1-0.5-1-1l0.7-11.8c0-0.5,0.5-0.9,1-0.9
		c0.5,0,0.9,0.5,0.9,1l-0.7,11.8C752.8,134.5,752.4,134.9,751.9,134.9z"/>
	<path class="st0" d="M764.4,135.1c-0.1,0-0.2,0-0.3,0c-0.5-0.1-0.8-0.7-0.7-1.2l2.8-10.4c0.1-0.5,0.7-0.8,1.2-0.7
		c0.5,0.1,0.8,0.7,0.7,1.2l-2.8,10.4C765.3,134.8,764.9,135.1,764.4,135.1z"/>
</g>
<g>
	<path class="st0" d="M543.6,198.8c4-0.2,8.6-0.7,13-2.2c1.7-0.6,10-3.8,11.1-8.7c0.8-3.7-3.7-8.4-6.1-10.9l-0.4-0.4
		c-6-6.4-14-10.7-22.4-12.1c-10.9-1.8-22.6,1.2-31.4,8.2l-0.4,0.3c-1.9,1.5-4.4,3.5-4.5,6.3c-0.1,2.8,2.1,5.6,3.6,7.4
		c3.3,4.1,7.9,7.3,13.3,9.4c5.3,2,11.3,3,18.6,3C539.8,199,541.7,198.9,543.6,198.8z M538.6,166.3L538.6,166.3
		c8,1.3,15.5,5.4,21.3,11.5l0.4,0.4c2,2.1,6.2,6.5,5.6,9.2c-0.7,3.3-6.5,6.1-9.9,7.3c-4.2,1.5-8.6,1.9-12.5,2.1
		c-9.7,0.6-17.1-0.3-23.4-2.7c-5.1-1.9-9.4-5-12.4-8.8c-1.2-1.5-3.3-4.1-3.2-6.1c0.1-2,2.1-3.6,3.8-4.9l0.4-0.3
		c6.8-5.4,15.4-8.3,23.9-8.3C534.6,165.8,536.6,166,538.6,166.3z"/>
	<path class="st0" d="M541.7,196.9L541.7,196.9c2.5-1.3,4.7-3.2,6.3-5.5c4.1-5.8,4.1-14.2,0.1-19.9c-2.8-4-7.6-6.6-13.1-7.2
		c-5.7-0.6-11.2,1.1-14.9,4.5c-3.3,3.1-5,7.9-4.5,13.3c0.6,6,3.6,11.4,7.9,14.1c3,1.9,6.5,2.8,10,2.8
		C536.3,198.9,539.1,198.2,541.7,196.9z M534.7,166.1c5,0.5,9.3,2.9,11.7,6.4c3.6,5.1,3.6,12.6-0.1,17.7c-1.4,2-3.4,3.7-5.6,4.9
		c-4.9,2.6-11.5,2.3-16.4-0.8c-3.7-2.3-6.5-7.3-7-12.6c-0.4-4.8,1-9,3.8-11.7c2.8-2.6,7-4.1,11.3-4.1
		C533.3,166,534,166.1,534.7,166.1z M541.2,196L541.2,196L541.2,196z"/>
	<path class="st0" d="M537.8,190c1.4-0.7,2.6-1.8,3.5-3c2.3-3.2,2.3-7.8,0-11c-1.5-2.2-4.2-3.7-7.2-4c-3.1-0.3-6.2,0.6-8.2,2.5
		c-1.9,1.7-2.8,4.4-2.5,7.4c0.3,3.3,2,6.3,4.3,7.7c1.7,1,3.6,1.6,5.5,1.6C534.8,191.1,536.4,190.7,537.8,190z M533.9,173.9
		c2.5,0.3,4.6,1.4,5.8,3.2c1.8,2.5,1.8,6.2,0,8.8c-0.7,1-1.7,1.8-2.8,2.4l0,0c-2.4,1.3-5.7,1.1-8.1-0.4c-1.8-1.2-3.2-3.6-3.4-6.3
		c-0.2-2.4,0.5-4.5,1.9-5.8c1.4-1.3,3.5-2,5.6-2C533.2,173.8,533.6,173.8,533.9,173.9z"/>
	<path class="st0" d="M507.3,168c-0.4,0-0.7-0.2-0.9-0.6l-4.8-10.8c-0.2-0.5,0-1.1,0.5-1.3c0.5-0.2,1.1,0,1.3,0.5l4.8,10.8
		c0.2,0.5,0,1.1-0.5,1.3C507.6,168,507.4,168,507.3,168z"/>
	<path class="st0" d="M522.4,162.7c-0.4,0-0.8-0.3-0.9-0.7l-2.1-8.8c0,0,0-0.1,0-0.2l-0.1-0.5c-0.1-0.5,0.2-1,0.7-1.1
		c0.5-0.1,1,0.2,1.2,0.7l2.2,9.4c0.1,0.5-0.2,1-0.7,1.2C522.5,162.7,522.4,162.7,522.4,162.7z"/>
	<path class="st0" d="M532.7,161.4c0,0-0.1,0-0.1,0c-0.5-0.1-0.9-0.5-0.9-1.1l1.4-13c0.1-0.5,0.5-0.9,1.1-0.9
		c0.5,0.1,0.9,0.5,0.9,1.1l-1.4,13C533.6,161.1,533.2,161.4,532.7,161.4z"/>
	<path class="st0" d="M544.7,164.3c-0.1,0-0.2,0-0.2,0c-0.5-0.1-0.8-0.7-0.7-1.2l2.9-10.9c0.1-0.5,0.7-0.8,1.2-0.7
		c0.5,0.1,0.8,0.7,0.7,1.2l-2.9,10.9C545.5,164,545.1,164.3,544.7,164.3z"/>
	<path class="st0" d="M553.7,167.1c-0.2,0-0.4-0.1-0.6-0.2c-0.4-0.3-0.5-0.9-0.2-1.3l6.8-9.7c0.3-0.4,0.9-0.5,1.3-0.2
		c0.4,0.3,0.5,0.9,0.2,1.3l-6.8,9.7C554.3,166.9,554,167.1,553.7,167.1z"/>
	<path class="st0" d="M564.3,173.8c-0.3,0-0.5-0.1-0.7-0.3c-0.4-0.4-0.4-1,0-1.4l7.8-7.5c0.4-0.4,1-0.4,1.4,0c0.4,0.4,0.4,1,0,1.4
		l-7.8,7.5C564.8,173.7,564.5,173.8,564.3,173.8z"/>
</g>
<path class="st0" d="M827.1,145.4c3.6-0.2,7.6-2.8,7.7-6.7c0-0.5-0.4-1-0.9-1c-0.5,0-1,0.4-1,0.9c-0.1,2.7-3.1,4.7-5.9,4.8
	c-3.1,0.1-6.1-1.3-8.8-2.6l-9.6-4.7c-0.3-0.2-0.6-0.3-0.8-0.5c-0.5-0.4-1-0.9-0.9-1.5c0.1-0.5,0.6-1,1.2-1.2
	c0.8-0.3,1.7-0.2,2.6-0.1l19.4,1.5c1.5,0.1,3.3,0.2,4.9-0.8c1.1-0.7,1.8-1.9,1.7-3.1c-0.1-2.3-2.4-3.3-4.2-4c-0.4-0.1-0.7-0.3-1-0.4
	c-0.6-0.3-1.3-0.9-2-1.7c0.1-0.1,0.2-0.1,0.3-0.2c1.8-1,3-2.9,3-5.1c0-1.8-0.7-3.4-2-4c-0.6-0.3-1.9-0.7-3.6,0.4
	c-1.4,0.9-2.1,2.4-1.9,4.2c0.1,1.2,0.5,2.5,1.1,3.6c-0.9,0.2-1.8,0.2-2.8,0.3c-2.5,0.1-5.1,0.2-7.6,0.2c-2.3,0-4.1-0.2-5-2.2
	c-0.3-0.7-0.4-1.5-0.3-2.4c0.2-2,1.3-3.7,2.5-5.5l0.4-0.6c6.3-9.7,9.8-21.4,9.8-33c0-0.5,0-1.1,0-1.7c0-3.8-0.1-7.7,1.9-10.7
	c1.4-2.1,3.8-3.7,7.1-4.9c6.3-2.2,13.5-2,19.6,0.6c3.9,1.7,7.5,4.3,10.3,7.6c1,1.2,1.4,2.8,0.9,4.3c-0.5,1.5-1.6,2.7-3.2,3.1
	c-8.5,2.5-17.7,1.7-25.5-2.2c2-2.2,4.6-3.8,7.4-4.8c-0.3,2.1,0.2,4.3,1.5,5.9c1.2,1.5,3.2,2.4,5.2,2.3c1.8-0.1,3.3-0.9,4.3-2.4
	c1-1.5,1.2-3.4,0.6-4.9c-1.4-3.2-5.3-3.9-8.3-3.5c-5,0.6-9.7,3.2-12.8,7.1c-0.2,0.2-0.2,0.5-0.2,0.8c0.1,0.3,0.2,0.5,0.5,0.7
	c8.4,4.6,18.6,5.7,28,3c2.2-0.6,3.8-2.3,4.5-4.4c0.6-2.1,0.2-4.4-1.3-6.1c-3-3.6-6.8-6.4-11-8.2c-6.6-2.8-14.2-3-21-0.7
	c-3.7,1.3-6.5,3.2-8.1,5.7c-2.3,3.5-2.2,7.7-2.2,11.7c0,0.5,0,1.1,0,1.6c0,11.2-3.4,22.5-9.5,31.9l-0.4,0.6
	c-1.2,1.9-2.5,3.9-2.8,6.3c-0.1,1.2,0,2.4,0.5,3.4c1.5,3.3,4.8,3.3,6.8,3.3c2.6,0,5.2,0,7.7-0.2c1.3-0.1,2.5-0.2,3.8-0.5
	c1,1.3,2.1,2.3,3.1,2.8c0.4,0.2,0.7,0.3,1.1,0.5c1.8,0.7,3,1.3,3,2.3c0,0.5-0.3,1-0.8,1.4c-1,0.7-2.4,0.6-3.7,0.5l-19.4-1.5
	c-1-0.1-2.2-0.2-3.4,0.2c-1.3,0.4-2.3,1.5-2.4,2.7c-0.1,0.7,0,2.1,1.7,3.3c0.3,0.2,0.7,0.4,1.1,0.6l9.6,4.7c2.6,1.3,5.9,2.8,9.3,2.8
	C826.8,145.4,827,145.4,827.1,145.4z M829.8,116.8c0.6,0.3,1,1.3,1,2.3c0,0.6-0.2,2.5-1.9,3.4c-0.2,0.1-0.4,0.2-0.5,0.3
	c-0.6-1.1-1-2.2-1.1-3.2c-0.1-1.1,0.3-1.9,1.1-2.4c0.4-0.3,0.8-0.4,1.1-0.4C829.5,116.7,829.7,116.7,829.8,116.8z M845.2,70.9
	c2.5-0.3,5.5,0.3,6.3,2.4c0.4,1,0.3,2.1-0.4,3.1c-0.8,1.2-2,1.5-2.8,1.5c-1.3,0.1-2.7-0.6-3.6-1.6c-1.1-1.4-1.4-3.4-0.8-5.2
	C844.4,71,844.8,70.9,845.2,70.9z"/>
<path class="st0" d="M985.2,76.8c-0.1,0-0.3,0-0.4-0.1c-0.5-0.2-0.7-0.8-0.5-1.3c7.3-16.5,18.3-31.5,31.8-43.5l0.7-0.6
	c1.8-1.6,3.7-3.3,5.1-5.2c1.7-2.4,2.4-5,1.9-7.2c-0.5-2.5-2.8-4.4-4.9-4.3c-1.7,0.1-3.3,1.3-5,2.5c-2.2,1.6-4.4,3.3-7.2,2.5
	c-2.1-0.6-3.8-2.6-4.3-5.2c-0.4-2.2,0-4.4,0.4-6.4l5.9-29.7c0.2-1,0.7-4.4-1.1-5.1c-0.9-0.3-1.9,0.2-2.5,0.9c-0.8,0.8-1.2,2-1.6,3.1
	L993.4,6.4c-0.1,0.4-0.5,0.6-0.9,0.6c-0.4,0-0.8-0.2-0.9-0.6c-3.8-9.9-5.4-20.8-4.5-31.4l0.1-0.7c0.2-2.3,0.4-4.6-0.4-6.6
	c-0.7-2-2.9-3.7-4.9-3.1c-2.4,0.8-2.9,4.4-2.8,7.4l0.7,23.2c0.1,1.8,0.1,3.8-0.7,5.6c-0.8,1.9-2.9,3.6-5.2,3.2c-2.9-0.5-4-3.7-4.6-6
	l-6.8-28.3c-0.4-1.5-1.2-4.1-2.9-4.1c0,0,0,0,0,0c-1,0-1.8,1-2.1,1.9c-0.4,1.2-0.2,2.5,0,3.8L962.5,8c0.1,0.4-0.2,0.8-0.6,1
	c-0.4,0.2-0.9,0.1-1.1-0.3c-4.5-5.3-7.4-12-8.2-18.9c0-0.3-0.1-0.6-0.1-0.9c-0.2-1.5-0.3-2.9-0.9-4.2c-0.6-1.3-1.9-2.5-3.3-2.4
	c-1.3,0.2-2.3,1.5-2.6,2.6c-0.4,1.5-0.2,3.2,0,4.7c3.2,23.8,8.4,47.5,15.5,70.4c0.2,0.5-0.1,1.1-0.6,1.2c-0.5,0.2-1.1-0.1-1.2-0.6
	c-7.1-23-12.4-46.9-15.6-70.8c-0.2-1.6-0.5-3.6,0-5.4c0.5-1.8,2-3.8,4.2-4c2.4-0.3,4.4,1.6,5.3,3.5c0.7,1.5,0.9,3.2,1,4.8
	c0,0.3,0.1,0.6,0.1,0.9c0.6,5.3,2.6,10.5,5.5,14.9l-4.6-33c-0.2-1.4-0.4-3.1,0-4.6c0.5-1.6,1.9-3.3,3.9-3.3c0,0,0,0,0,0
	c1.6,0,3.7,1,4.8,5.6l6.8,28.3c0.7,2.9,1.7,4.4,3,4.6c1.3,0.2,2.6-0.9,3.1-2.1c0.6-1.4,0.6-3.2,0.5-4.8L977.1-28
	c-0.2-5.2,1.2-8.3,4.1-9.3c3-1,6.2,1.4,7.3,4.2c0.9,2.4,0.7,5,0.5,7.5l-0.1,0.7c-0.8,9.4,0.5,19.1,3.5,28l9.3-26.5
	c0.4-1.2,0.9-2.7,1.9-3.8c1-1.1,2.8-2,4.6-1.4c2.2,0.8,3.1,3.5,2.3,7.3l-5.9,29.7c-0.4,1.9-0.8,3.8-0.4,5.6c0.3,1.5,1.3,3.3,2.9,3.7
	c1.9,0.5,3.6-0.8,5.6-2.2c1.8-1.3,3.7-2.7,6-2.9c3.2-0.2,6.2,2.4,6.9,5.8c0.8,3.7-1,7.1-2.2,8.7c-1.5,2.1-3.5,3.9-5.4,5.6l-0.7,0.6
	C1004.1,45.2,993.2,60,986,76.2C985.9,76.6,985.5,76.8,985.2,76.8z"/>
<path class="st0" d="M881.2,20c3.5-0.7,7.1-3.9,6.6-7.8c-0.1-0.5-0.5-0.9-1.1-0.9c-0.5,0.1-0.9,0.5-0.9,1.1c0.3,2.7-2.4,5.1-5.1,5.6
	c-3,0.6-6.3-0.4-9.1-1.3l-10.2-3.2c-0.3-0.1-0.6-0.2-0.8-0.3c-0.5-0.3-1.2-0.7-1.2-1.3c0-0.5,0.4-1,1-1.3c0.7-0.4,1.7-0.5,2.6-0.5
	l19.4-1.5c1.5-0.1,3.3-0.2,4.7-1.5c1-0.9,1.5-2.1,1.2-3.3c-0.4-2.3-2.9-2.9-4.8-3.3c-0.4-0.1-0.7-0.2-1.1-0.3
	c-0.7-0.2-1.4-0.7-2.2-1.4c0.1-0.1,0.2-0.1,0.3-0.2c1.7-1.2,2.5-3.3,2.2-5.5c-0.3-1.8-1.2-3.2-2.5-3.7c-0.6-0.2-2-0.4-3.5,0.9
	c-1.2,1.1-1.7,2.7-1.3,4.5c0.3,1.2,0.9,2.4,1.7,3.4c-0.9,0.3-1.8,0.5-2.7,0.7c-2.5,0.5-5,1-7.5,1.3c-2.3,0.3-4.1,0.4-5.3-1.4
	c-0.4-0.6-0.6-1.4-0.7-2.3c-0.1-2,0.8-3.8,1.7-5.8l0.3-0.7c4.8-10.5,6.4-22.6,4.7-34.1c-0.1-0.5-0.2-1.1-0.3-1.6
	c-0.6-3.7-1.2-7.6,0.3-10.8c1-2.3,3.2-4.3,6.3-5.9c5.9-3.1,13-4,19.5-2.3c4.1,1.1,8,3.1,11.3,6c1.2,1.1,1.8,2.6,1.5,4.1
	c-0.2,1.6-1.2,2.9-2.6,3.6c-8.1,3.8-17.3,4.3-25.5,1.6c1.7-2.5,4-4.5,6.6-5.8c0,2.1,0.8,4.2,2.3,5.6c1.5,1.3,3.5,1.9,5.5,1.5
	c1.7-0.3,3.1-1.4,3.9-3c0.8-1.6,0.7-3.5-0.2-5c-1.8-2.9-5.9-3-8.8-2.2c-4.8,1.4-9.1,4.6-11.6,9c-0.1,0.2-0.2,0.5-0.1,0.8
	c0.1,0.3,0.3,0.5,0.6,0.6c9,3.3,19.2,2.9,28.1-1.3c2-0.9,3.4-2.8,3.7-5.1c0.3-2.2-0.5-4.4-2.2-5.9c-3.5-3.1-7.7-5.3-12.1-6.4
	c-6.9-1.8-14.5-0.9-20.9,2.5c-3.5,1.9-5.9,4.1-7.1,6.8c-1.7,3.8-1.1,7.9-0.4,11.9c0.1,0.5,0.2,1.1,0.3,1.6c1.6,11.1,0,22.8-4.6,33
	l-0.3,0.6c-0.9,2.1-1.9,4.2-1.8,6.7c0,1.2,0.4,2.3,1,3.3c1.9,3.1,5.2,2.6,7.2,2.3c2.6-0.4,5.1-0.8,7.6-1.3c1.2-0.3,2.5-0.5,3.7-1
	c1.1,1.1,2.4,2,3.5,2.3c0.4,0.1,0.8,0.2,1.2,0.3c1.9,0.5,3.1,0.8,3.3,1.8c0.1,0.5-0.1,1.1-0.6,1.5c-0.9,0.8-2.3,0.9-3.6,1l-19.4,1.5
	c-1,0.1-2.2,0.2-3.3,0.7c-1.2,0.6-2,1.8-2,3c0,0.7,0.3,2,2.2,3c0.3,0.2,0.7,0.3,1.2,0.5l10.2,3.2c2.3,0.7,5,1.6,7.8,1.6
	C879.6,20.2,880.4,20.2,881.2,20z M879.6-8.6c0.6,0.2,1.1,1.1,1.3,2.2c0.1,0.6,0.2,2.5-1.4,3.7c-0.2,0.1-0.3,0.2-0.5,0.3
	c-0.7-0.9-1.3-2-1.6-3c-0.3-1.1,0-2,0.7-2.6c0.4-0.4,0.8-0.6,1.2-0.6C879.3-8.7,879.5-8.7,879.6-8.6z M887.9-56.3
	c2.4-0.7,5.4-0.5,6.6,1.4c0.5,0.9,0.6,2.1,0.1,3.1c-0.6,1.3-1.7,1.8-2.5,1.9c-1.3,0.3-2.8-0.1-3.8-1c-1.3-1.2-1.9-3.1-1.6-5
	C887.1-56.1,887.5-56.2,887.9-56.3z"/>
<path class="st0" d="M874.8,43.9c9.8-2.6,23.2-6.2,30.9-15.8c6.8-8.5,8-19.6,8.9-32.1l2.7-41.8c0.1-2.1,0.3-4.4,1.3-6.3
	c0.9-1.6,2.7-3,4.5-2.7c2.4,0.5,3.5,3.5,4.1,5.9c2.4,10.4,1.9,21.3-1.6,31.4c-0.5,1.4-1.1,3-2.2,4c-0.9,0.9-2.4,1.4-3.5,0.8
	c-0.5-0.3-0.8-0.9-0.8-1.5c0-0.3,0-0.8,0.4-1c0.4-0.3,0.6-0.9,0.3-1.3c-0.3-0.4-0.9-0.6-1.3-0.3c-0.9,0.6-1.4,1.6-1.3,2.7
	c0,1.3,0.8,2.5,1.8,3.1c2,1.1,4.4,0.2,5.8-1.1c1.4-1.4,2.1-3.2,2.7-4.8c3.5-10.5,4.1-21.7,1.6-32.5c-1.3-5.4-3.7-7-5.6-7.4
	c-2.9-0.6-5.5,1.5-6.6,3.7c-1.2,2.2-1.4,4.8-1.5,7.1L912.6-4c-0.8,12.2-2,22.9-8.4,31c-6.8,8.5-17.5,11.9-29.9,15.1
	c-5.5,1.5-11.7,3.1-17.4,1.5c-3.2-0.9-6.2-3.1-7.8-5.9c-0.7-1.2-1.4-2.9-1.2-5c3.3,2.6,7,4.1,10.9,4.4c2.6,0.1,4.9-0.4,6.7-1.5
	c2.2-1.4,3.6-3.9,3.4-6.2c-0.3-4.3-5.1-6.8-9.4-6.9c-4.8-0.1-10.4,2.1-12.6,6.7c-1.3-1.3-2.4-2.8-3.4-4.4
	c-3.5-5.7-4.9-12.4-6.1-18.8c-2.8-15.5-4.4-31.4-4.8-47.3c0-2.2-0.1-5-1.7-7.1c-1-1.3-2.6-2.1-4.3-2.1c0,0,0,0,0,0
	c-1.3,0-2.4,0.5-3.1,1.5c-1,1.4-0.9,3-0.7,4.6l3.6,29.9c0.3,2.1,0.5,4.5,1.7,6.5c1,1.8,3.1,3.6,5.5,3.6c0,0,0,0,0.1,0
	c0.5,3.6,1.1,7.1,1.7,10.7c1.1,6.3,2.7,13.5,6.3,19.5c1.3,2.1,2.7,3.9,4.4,5.5c-0.6,2.4-0.1,5,1.2,7.4c1.8,3.2,5.3,5.8,8.9,6.8
	c1.8,0.5,3.7,0.7,5.5,0.7C866.4,46.2,870.9,45,874.8,43.9z M859.4,24.4c3.5,0.1,7.3,2,7.5,5.1c0.1,1.6-0.9,3.4-2.5,4.5
	c-1.8,1.2-4,1.3-5.6,1.2c-3.7-0.2-7.3-1.8-10.5-4.5C850,26.4,855.1,24.3,859.4,24.4z M826.7-48.6c1,0,2.1,0.5,2.7,1.3
	c1.2,1.6,1.2,3.9,1.3,6c0.3,11.7,1.2,23.4,2.8,34.9c-1.5-0.1-2.9-1.4-3.6-2.6c-1-1.7-1.2-3.8-1.5-5.8l-3.6-29.9
	c-0.2-1.3-0.2-2.5,0.3-3.3C825.5-48.5,826.2-48.6,826.7-48.6C826.7-48.6,826.7-48.6,826.7-48.6z"/>
<path class="st0" d="M564.3,76.8c-0.1,0-0.3,0-0.4-0.1c-0.5-0.2-0.7-0.8-0.5-1.3c7.3-16.5,18.3-31.5,31.8-43.5l0.7-0.6
	c1.8-1.6,3.7-3.3,5.1-5.2c1.7-2.4,2.4-5,1.9-7.2c-0.5-2.5-2.8-4.4-4.9-4.3c-1.7,0.1-3.3,1.3-5,2.5c-2.2,1.6-4.4,3.3-7.2,2.5
	c-2.1-0.6-3.8-2.6-4.3-5.2c-0.4-2.2,0-4.4,0.4-6.4l5.9-29.7c0.2-1,0.7-4.4-1.1-5.1c-0.9-0.3-1.9,0.2-2.5,0.9c-0.8,0.8-1.2,2-1.6,3.1
	L572.5,6.4c-0.1,0.4-0.5,0.6-0.9,0.6c-0.4,0-0.8-0.2-0.9-0.6c-3.8-9.9-5.4-20.8-4.5-31.4l0.1-0.7c0.2-2.3,0.4-4.6-0.4-6.6
	c-0.7-2-2.9-3.7-4.9-3.1c-2.4,0.8-2.9,4.4-2.8,7.4l0.7,23.2c0.1,1.8,0.1,3.8-0.7,5.6c-0.8,1.9-2.9,3.6-5.2,3.2c-2.9-0.5-4-3.7-4.6-6
	l-6.8-28.3c-0.4-1.5-1.2-4.1-2.9-4.1c0,0,0,0,0,0c-1,0-1.8,1-2.1,1.9c-0.4,1.2-0.2,2.5,0,3.8L541.6,8c0.1,0.4-0.2,0.8-0.6,1
	c-0.4,0.2-0.9,0.1-1.1-0.3c-4.5-5.3-7.4-12-8.2-18.9c0-0.3-0.1-0.6-0.1-0.9c-0.2-1.5-0.3-2.9-0.9-4.2c-0.6-1.3-1.9-2.5-3.3-2.4
	c-1.3,0.2-2.3,1.5-2.6,2.6c-0.4,1.5-0.2,3.2,0,4.7c3.2,23.8,8.4,47.5,15.5,70.4c0.2,0.5-0.1,1.1-0.6,1.2c-0.5,0.2-1.1-0.1-1.2-0.6
	c-7.1-23-12.4-46.9-15.6-70.8c-0.2-1.6-0.5-3.6,0-5.4c0.5-1.8,2-3.8,4.2-4c2.4-0.3,4.4,1.6,5.3,3.5c0.7,1.5,0.9,3.2,1,4.8
	c0,0.3,0.1,0.6,0.1,0.9c0.6,5.3,2.6,10.5,5.5,14.9l-4.6-33c-0.2-1.4-0.4-3.1,0-4.6c0.5-1.6,1.9-3.3,3.9-3.3c0,0,0,0,0,0
	c1.6,0,3.7,1,4.8,5.6l6.8,28.3c0.7,2.9,1.7,4.4,3,4.6c1.3,0.2,2.6-0.9,3.1-2.1c0.6-1.4,0.6-3.2,0.5-4.8L556.2-28
	c-0.2-5.2,1.2-8.3,4.1-9.3c3-1,6.2,1.4,7.3,4.2c0.9,2.4,0.7,5,0.5,7.5l-0.1,0.7c-0.8,9.4,0.5,19.1,3.5,28l9.3-26.5
	c0.4-1.2,0.9-2.7,1.9-3.8c1-1.1,2.8-2,4.6-1.4c2.2,0.8,3.1,3.5,2.3,7.3l-5.9,29.7c-0.4,1.9-0.8,3.8-0.4,5.6c0.3,1.5,1.3,3.3,2.9,3.7
	c1.9,0.5,3.6-0.8,5.6-2.2c1.8-1.3,3.7-2.7,6-2.9c3.2-0.2,6.2,2.4,6.9,5.8c0.8,3.7-1,7.1-2.2,8.7c-1.5,2.1-3.5,3.9-5.4,5.6l-0.7,0.6
	c-13.3,11.8-24.1,26.6-31.3,42.8C565,76.6,564.6,76.8,564.3,76.8z"/>
<path class="st0" d="M645,18.1c1.1-0.5,1.8-1.7,1.9-3.1c0.1-1.2-0.4-2.3-0.7-3.3l-6.8-18.2c-0.5-1.2-0.9-2.5-0.6-3.7
	c0.2-0.6,0.6-1,1.1-1.2c1-0.2,1.9,0.7,3.1,2.3c0.3,0.3,0.5,0.6,0.8,0.9c0.7,0.8,2,1.7,3.5,2.2c0.1,1.3,0.3,2.5,0.6,3.8
	c0.6,2.5,1.3,5,2,7.5c0.6,1.9,1.5,5.1,5.1,5.6c1.1,0.1,2.3,0,3.4-0.5c2.3-1,3.8-2.7,5.3-4.5l0.5-0.5c7.3-8.5,17.3-14.9,28-18
	c0.5-0.2,1-0.3,1.6-0.4c3.9-1.1,8-2.2,10.7-5.4c1.9-2.2,3-5.4,3.2-9.3c0.4-7.1-2-14.4-6.5-20c-2.9-3.5-6.6-6.4-10.9-8.3
	c-2-0.9-4.4-0.7-6.2,0.5c-1.9,1.2-3,3.3-3,5.5c0,9.8,3.8,19.3,10.6,26.1c0.2,0.2,0.5,0.3,0.8,0.3c0.3,0,0.5-0.2,0.7-0.4
	c2.9-4.1,4.1-9.3,3.3-14.3c-0.5-3-2.3-6.6-5.7-7c-1.7-0.2-3.4,0.5-4.6,1.9c-1.1,1.4-1.5,3.1-1.1,4.8c0.5,1.9,1.9,3.6,3.6,4.3
	c1.9,0.8,4.1,0.7,6-0.2c-0.1,3-1,5.9-2.5,8.4c-5.9-6.3-9.3-14.9-9.2-23.8c0-1.6,0.8-3,2.1-3.9c1.3-0.9,2.9-1,4.4-0.3
	c4,1.8,7.5,4.4,10.2,7.7c4.2,5.2,6.4,12,6.1,18.7c-0.2,3.5-1.1,6.3-2.7,8.2c-2.3,2.7-6.1,3.8-9.7,4.8c-0.5,0.2-1.1,0.3-1.6,0.5
	c-11.1,3.3-21.4,9.9-29,18.6l-0.5,0.5c-1.4,1.6-2.7,3.2-4.6,3.9c-0.8,0.3-1.6,0.5-2.4,0.4c-2.2-0.3-2.8-2-3.5-4.2
	c-0.7-2.5-1.4-4.9-2-7.4c-0.2-0.9-0.4-1.9-0.5-2.8c1.3,0.3,2.6,0.3,3.8,0.1c1.8-0.4,3-1.4,3.5-3c0.6-1.9-0.2-3-0.6-3.5
	c-1-1-2.7-1.3-4.4-0.8c-2.1,0.6-3.7,2.3-4.1,4.3c0,0.1,0,0.2-0.1,0.4c-0.9-0.4-1.7-0.9-2.2-1.4c-0.2-0.3-0.5-0.6-0.7-0.9
	c-1.2-1.6-2.8-3.5-5-2.9c-1.2,0.3-2.1,1.2-2.5,2.5c-0.5,1.8,0.1,3.5,0.6,4.9l6.8,18.2c0.3,0.8,0.6,1.7,0.6,2.5
	c0,0.6-0.4,1.2-0.8,1.4c-0.5,0.3-1.2-0.1-1.7-0.5c-0.2-0.2-0.4-0.4-0.7-0.6l-7.1-7.9c-2-2.2-4.3-4.7-5-7.7c-0.7-2.7,0.4-6.1,3-7
	c0.5-0.2,0.8-0.7,0.6-1.2c-0.2-0.5-0.7-0.8-1.2-0.6C628.4-8,627-3.5,627.8,0c0.8,3.5,3.4,6.3,5.4,8.6l7.1,7.9
	c0.3,0.4,0.6,0.6,0.9,0.9c1,0.7,1.8,1,2.5,1C644.3,18.3,644.8,18.2,645,18.1z M649.3-8c0.4-2,2.2-2.6,2.7-2.8c1-0.3,2-0.2,2.5,0.3
	c0.3,0.3,0.4,0.9,0.2,1.6c-0.3,0.9-0.9,1.5-2.1,1.7c-1,0.2-2.2,0.1-3.4-0.2C649.2-7.6,649.3-7.8,649.3-8z M690.3-43.5
	c2.2,0.3,3.6,2.9,4,5.4c0.1,0.4,0.1,0.8,0.2,1.3c-1.6,1.1-3.6,1.3-5.2,0.6c-1.2-0.5-2.2-1.7-2.5-3c-0.2-0.8-0.2-2,0.7-3.1
	c0.6-0.8,1.6-1.3,2.5-1.3C690.1-43.6,690.2-43.6,690.3-43.5z"/>
<path class="st0" d="M314.6,90.4c0.1-0.2,0-0.5-0.1-0.6c3-1.6,4.9-4.1,5.4-6.7c0-0.2,0-0.4,0.1-0.6c0.1-2-0.9-3.8-2.6-4.9
	c-1.8-1.1-4-1.1-5.9-0.1l-21.7,12.7c-2.3,1.4-4,1.6-4.8,0.7c-0.5-0.5-0.6-1.3-0.4-2c0.5-1.7,2.1-2.7,3.9-3.6
	c2.1-1.2,4.5-2.6,4.9-5.6c0.2-1.6-0.2-3.2-1.1-4.7c-1.8-2.7-4.5-3.9-7.2-5.2c-0.3-0.1-0.6-0.3-1-0.5c-11.3-5.3-20.5-14.4-26-25.6
	c-3.3-6.8-4.1-12.6-2.3-17.3c1.4-3.5,4.2-6.4,7-9c3-2.9,6.6-6.1,10.8-8.2c4.4-2.2,8.9-2.9,12.8-1.9c4.4,1.1,7.9,4.7,8.5,8.6
	c0.5,3.3-0.8,7.1-3.6,10.2c0-0.5,0-1,0-1.6c-0.2-1.9-1-3.4-2.2-4.5c-2.3-2-6-2.3-9.2-0.9c-3,1.4-5.1,3.8-6.7,5.9
	c-1.4,1.8-2.7,3.9-2.8,6.4c0,1.6,0.5,3.1,1.5,4.1c2.2,2.2,5.5,2,10.1-0.6c3.6-2,7.4-4.1,10.4-7.3c3.4-3.6,5-8.1,4.4-12.1
	c-0.8-4.7-4.8-8.8-9.9-10.2c-4.3-1.1-9.4-0.4-14.2,2c-4.4,2.2-8.2,5.6-11.3,8.5c-3,2.8-6,5.8-7.5,9.8c-2,5.2-1.2,11.6,2.4,18.8
	c5.7,11.6,15.3,21,26.9,26.5c0.3,0.2,0.7,0.3,1,0.5c2.5,1.2,4.9,2.3,6.4,4.5c0.7,1,1,2.2,0.8,3.3c-0.3,2.1-2,3.1-4,4.2
	c-1.9,1.1-4,2.3-4.8,4.8c-0.4,1.5-0.1,2.9,0.8,3.9c1.6,1.7,4,1.5,7.2-0.3l21.7-12.7c1.2-0.7,2.7-0.7,3.9,0.1
	c1.1,0.7,1.7,1.8,1.7,3.1c0,0.1,0,0.2,0,0.4c-0.3,2.2-2.1,4.2-4.8,5.5c-1.7,0.8-3.4,1.3-5.3,1.8c-0.9,0.2-1.8,0.5-2.7,0.8
	c-5.7,1.8-10.9,5.1-14.9,9.6c-0.6,0.7-1,1.6-1,2.5c0,0.9,0.3,1.7,0.8,2.3c1,1,2.6,1.3,3.8,1.3c0.1,0,0.2,0,0.3,0
	C303.5,106.4,312.4,99.4,314.6,90.4z M293.9,104.5c-1.1,0-2-0.3-2.4-0.7c-0.1-0.1-0.3-0.4-0.3-0.9c0-0.4,0.2-0.8,0.5-1.2
	c3.8-4.2,8.7-7.3,14.1-9c0.8-0.3,1.7-0.5,2.6-0.7c1.4-0.4,2.8-0.8,4.2-1.3C310.3,98.6,302.2,104.6,293.9,104.5z M277.8,24.8
	c-0.1,2,0.5,3.9,1.7,5.2c1,1.1,2.4,1.8,3.9,2c-0.7,0.4-1.4,0.8-2.1,1.2c-3.7,2.1-6.3,2.4-7.8,0.9c-0.7-0.7-1-1.6-1-2.7
	c0.1-2,1.2-3.7,2.4-5.3c0.9-1.2,2.1-2.6,3.5-3.8C278,23.2,277.8,24,277.8,24.8z M287.9,21.5c0.8,0.7,1.4,1.9,1.5,3.2
	c0.3,3.2-1.5,4.5-2.6,5c-2,0.9-4.6,0.5-5.9-1c-0.9-1-1.3-2.3-1.2-3.8c0.1-1.5,0.7-2.8,1.8-3.6c0.3-0.2,0.4-0.5,0.4-0.9
	C283.8,20,286.2,20.1,287.9,21.5z"/>
<path class="st0" d="M248.3,103.1c-0.8,0-1.6-0.1-2.4-0.3c-3.8-0.9-6.9-3.4-9.6-6c-5.1-4.8-9.7-10.1-13.7-15.8
	c-2-2.9-4.1-6.6-3-10.4c1.3-4.5,6.7-6.3,10.9-5.5c4.3,0.8,7.8,3.8,10.7,6.1c1.8,1.5,3.9,3.2,5.1,5.6c1.1,2.3,1.3,5.7-0.9,7.8
	c-2.9,2.7-7.7,1.2-10.6-1.6c-1.5-1.5-2.4-2.8-2.6-4.3c-0.3-1.8,0.4-4.1,2.4-4.8c1.1-0.4,2.3-0.1,3.3,0.7c0.8,0.7,1.2,1.7,0.9,2.7
	c-0.1,0.5-0.6,0.8-1.2,0.7c-0.5-0.1-0.8-0.6-0.7-1.2c0.1-0.4-0.2-0.7-0.3-0.8c-0.4-0.3-0.9-0.5-1.3-0.3c-1,0.4-1.4,1.7-1.2,2.7
	c0.2,1,0.8,2.1,2.1,3.2c2,1.9,5.8,3.7,8,1.6c1.5-1.4,1.4-3.8,0.5-5.5c-1-2-2.9-3.6-4.6-4.9c-2.9-2.3-6.1-5-9.9-5.7
	c-3.4-0.7-7.7,0.8-8.7,4.2c-0.9,3,1,6.2,2.7,8.7c3.9,5.6,8.4,10.8,13.4,15.5c2.6,2.4,5.4,4.7,8.8,5.5c3,0.7,6.9-0.2,8.4-3.2
	c0.2-0.5,0.8-0.7,1.3-0.4c0.5,0.2,0.7,0.8,0.4,1.3C255,101.7,251.5,103.1,248.3,103.1z"/>
<path class="st0" d="M353.8,89.6c-0.7,0-1.3-0.1-2-0.4c-2.7-1.3-3.8-4.5-3-9.7l3.4-22.9c0.2-1.5,0.5-3.3,0-4.8
	c-0.4-1.2-1.5-2.5-2.8-2.4c-1.4,0.1-2.5,1.4-3.5,4.2l-10.1,27.3c-1.6,4.5-3.9,5.2-5.4,5c-2-0.2-3.2-2.1-3.5-3.7
	c-0.3-1.6,0.1-3.2,0.5-4.6l8.4-32.3c-3.5,4.1-6,9-7.2,14.2c-0.1,0.3-0.1,0.6-0.2,0.9c-0.4,1.6-0.7,3.2-1.6,4.7
	c-1.1,1.8-3.3,3.4-5.7,2.8c-2.2-0.5-3.5-2.6-3.7-4.5c-0.3-1.9,0.2-3.8,0.6-5.4c5.9-23.4,13.9-46.4,23.6-68.5
	c0.2-0.5,0.8-0.7,1.3-0.5c0.5,0.2,0.7,0.8,0.5,1.3c-9.7,22-17.6,44.9-23.5,68.2c-0.4,1.5-0.8,3.1-0.5,4.6c0.2,1.2,1,2.6,2.3,2.9
	c1.4,0.3,2.8-0.7,3.6-2c0.7-1.2,1-2.6,1.4-4.1c0.1-0.3,0.1-0.6,0.2-0.9c1.6-6.7,5.3-13.1,10.3-17.8c0.3-0.3,0.8-0.3,1.2-0.1
	c0.4,0.2,0.6,0.7,0.4,1.1L329.2,78c-0.3,1.3-0.7,2.6-0.5,3.8c0.2,1,0.9,2,1.8,2.2c1.7,0.2,2.8-2.2,3.4-3.7l10.1-27.3
	c0.8-2.3,2.3-5.3,5.3-5.5c2.3-0.1,4.2,1.8,4.8,3.8c0.6,1.9,0.3,3.9,0,5.6l-3.4,22.9c-0.4,2.9-0.4,6.6,1.9,7.6
	c1.9,0.9,4.2-0.6,5.2-2.5c1-1.9,1.1-4.3,1.1-6.6l0-0.7c0.4-10.6,3.2-21.2,8.1-30.7c0.2-0.4,0.6-0.6,1-0.5c0.4,0.1,0.7,0.4,0.8,0.7
	l6.7,30.1c0.3,1.2,0.5,2.4,1.2,3.3c0.5,0.7,1.4,1.4,2.3,1.1c1.9-0.4,1.7-3.9,1.7-4.9l-2.4-30.1c-0.2-2-0.3-4.2,0.3-6.4
	c0.8-2.5,2.7-4.4,4.9-4.7c2.8-0.4,4.9,1.5,6.9,3.4c1.5,1.4,2.9,2.8,4.7,3.1c2.2,0.4,4.6-1.3,5.4-3.7c0.7-2.1,0.3-4.8-1-7.4
	c-1.1-2.1-2.8-4-4.4-5.8l-0.6-0.7c-12-13.5-21.2-29.7-26.5-46.9c-0.2-0.5,0.1-1.1,0.6-1.2c0.5-0.2,1.1,0.1,1.2,0.6
	C375-6,384,10,395.8,23.2l0.6,0.7c1.7,1.9,3.5,3.9,4.7,6.2c1.7,3.1,2.1,6.2,1.2,8.9c-1.1,3.3-4.4,5.5-7.6,5c-2.3-0.4-4-2-5.6-3.5
	c-1.8-1.7-3.3-3.1-5.3-2.9c-1.7,0.2-2.9,1.8-3.3,3.3c-0.5,1.8-0.4,3.7-0.2,5.6l2.4,30.1c0.3,3.9-0.8,6.4-3.1,7
	c-1.8,0.4-3.5-0.7-4.4-1.9c-0.9-1.2-1.2-2.7-1.5-4l-6.1-27.4c-4.1,8.5-6.4,18-6.7,27.4l0,0.7c-0.1,2.5-0.2,5.1-1.3,7.4
	C358.5,87.9,356.1,89.6,353.8,89.6z"/>
<path class="st0" d="M247.8,199.7c-0.9,0.3-1.8,0.5-2.5,0.5c-7.5,0.5-15-4.7-17.4-12.2c-2-6.3-0.4-13.5,3.9-18.8l-29.7,3.1
	c-1.4,0.1-4.1,0.4-5.8-1.2c-0.8-0.8-1.2-1.9-1.2-3.1c0-1.5,0.7-3,1.9-4.1c1.8-1.7,4.3-2.2,6.4-2.6l30.5-6.3
	c-10.6-4.8-22.5-6.7-34-5.4c-2.2,0.3-8,0.9-9.8-3.1c-1.2-2.9,0.8-6.1,3.5-7.3c2.6-1.2,5.5-0.9,7.8-0.7l30,2.6l-26.6-13.3
	c-2-1-4.7-2.7-4.6-5.5c0.1-3.3,3.9-4.7,7.7-4.6c16.3,0.3,32.1,5.4,47.5,10.3c15.1,4.8,30.8,9.8,46.8,10.2c0.5,0,1,0.5,0.9,1
	c0,0.5-0.5,1-1,0.9c-16.2-0.4-32-5.4-47.3-10.3c-15.2-4.8-30.9-9.9-46.9-10.2c-1.9,0-5.6,0.5-5.7,2.8c0,1.3,1.1,2.4,3.5,3.7
	l31.1,15.6c0.4,0.2,0.6,0.7,0.5,1.1c-0.1,0.4-0.6,0.7-1,0.7l-35-3.1c-2.2-0.2-4.7-0.4-6.8,0.5c-1.8,0.8-3.2,3-2.5,4.8
	c1,2.4,4.9,2.3,7.7,1.9c12.8-1.5,26.2,0.9,37.7,6.8c0.4,0.2,0.6,0.6,0.5,1c-0.1,0.4-0.4,0.7-0.8,0.8l-33.3,6.8
	c-1.9,0.4-4,0.8-5.4,2.1c-0.7,0.7-1.2,1.7-1.2,2.7c0,0.5,0.1,1.1,0.6,1.6c0.9,0.9,2.7,0.8,4.2,0.7l32.3-3.3c0.4,0,0.8,0.2,1,0.6
	c0.2,0.4,0.1,0.8-0.2,1.1c-5.1,4.9-7.2,12.4-5.2,18.8c2.1,6.6,8.9,11.3,15.4,10.9c0.9-0.1,3-0.4,3.6-1.8c0.5-1.3-0.4-2.8-1.5-3.8
	c-0.6-0.5-1.3-0.9-2-1.4c-0.9-0.6-1.8-1.1-2.6-1.9c-1.8-1.7-2.7-4.3-2.5-7c0.2-2.7,1.6-5.2,3.6-6.5c2.1-1.4,4.8-1.7,7.4-0.9
	c2.6,0.8,4.7,2.7,5.6,5c0.5,1.3,0.7,2.7,0.9,4.1c0.3,2.2,0.6,4.3,2.1,5.4c1.9,1.4,4.9,0.2,6.3-1.8c1.6-2.2,1.9-5.2,2.2-7.9
	c0.4-3.4,0.8-6.4,2.7-8.8c2.2-2.9,5.8-4.1,8.7-5.2l42.4-14.9c0.5-0.2,1.1,0.1,1.2,0.6c0.2,0.5-0.1,1-0.6,1.2l-42.4,14.9
	c-2.6,0.9-5.9,2.1-7.8,4.5c-1.6,2.1-2,4.8-2.3,7.9c-0.3,2.9-0.7,6.2-2.6,8.8c-2,2.7-6.2,4.3-9,2.2c-2.2-1.6-2.6-4.2-2.9-6.7
	c-0.2-1.3-0.4-2.6-0.8-3.7c-0.7-1.8-2.3-3.2-4.3-3.8c-2-0.6-4.2-0.4-5.8,0.6c-1.6,1-2.6,3-2.8,5.1c-0.2,2.1,0.5,4.2,1.9,5.5
	c0.7,0.6,1.4,1.1,2.3,1.6c0.7,0.5,1.5,0.9,2.2,1.5c1.7,1.4,3,3.8,2,6C250,198.5,248.9,199.3,247.8,199.7z"/>
<g>
	<path class="st0" d="M395.4,154.2c6.9-1.3,13.9-4.5,22.1-10.2c3.3-2.3,7-5.1,9.9-8.7c1.1-1.4,6.6-8.5,4.9-13.2
		c-1.2-3.5-7.5-5.2-10.9-6.2l-0.5-0.1c-8.5-2.3-17.5-1.9-25.4,1.3c-10.2,4.1-18.7,12.8-22.6,23.3l-0.2,0.4c-0.8,2.2-2,5.3-0.6,7.8
		c1.4,2.4,4.7,3.7,7,4.4c3.1,1.1,6.5,1.7,10,1.7C391.3,154.8,393.4,154.6,395.4,154.2z M420.5,117.7l0.5,0.1
		c2.8,0.8,8.7,2.3,9.6,4.9c1.1,3.2-2.4,8.6-4.6,11.4c-2.8,3.4-6.4,6.1-9.5,8.3c-8,5.5-14.8,8.7-21.3,9.9c-5.3,1-10.6,0.6-15.2-1
		c-1.8-0.7-4.9-1.8-5.9-3.6c-1-1.7,0-4.1,0.7-6.1l0.2-0.5c3.7-10,11.7-18.3,21.5-22.2l0,0c4.3-1.7,9.1-2.6,13.8-2.6
		C413.6,116.3,417.1,116.7,420.5,117.7z M395.9,118L395.9,118L395.9,118z"/>
	<path class="st0" d="M414.9,143.4L414.9,143.4c1.5-2.4,2.3-5.2,2.5-8c0.5-7.1-3.9-14.2-10.3-17.1c-4.5-2-9.9-1.7-15,0.7
		c-5.1,2.4-9,6.8-10.4,11.6c-1.2,4.4-0.1,9.3,3.1,13.7c3.6,4.8,9,7.9,14,7.9c0.1,0,0.1,0,0.2,0C405.5,152.2,411.7,148.7,414.9,143.4
		z M406.3,120.1c5.8,2.5,9.6,8.9,9.2,15.2c-0.2,2.5-1,4.9-2.3,7.1l0,0c-2.8,4.7-8.5,7.9-14.2,7.9c-0.1,0-0.1,0-0.2,0
		c-4.4,0-9.3-2.9-12.5-7.1c-2.9-3.8-3.9-8.2-2.8-12c1.2-4.3,4.7-8.2,9.4-10.4c2.5-1.2,5.2-1.8,7.7-1.8
		C402.6,119,404.6,119.3,406.3,120.1z"/>
	<path class="st0" d="M408,139.5L408,139.5c0.8-1.3,1.3-2.9,1.4-4.4c0.3-3.9-2.1-7.8-5.7-9.4c-2.5-1.1-5.5-0.9-8.2,0.4
		c-2.8,1.3-5,3.7-5.7,6.4c-0.7,2.4-0.1,5.2,1.7,7.6c2,2.6,4.9,4.3,7.7,4.3c0,0,0.1,0,0.1,0C402.8,144.3,406.2,142.4,408,139.5z
		 M402.9,127.4c2.8,1.2,4.8,4.4,4.5,7.5c-0.1,1.2-0.5,2.4-1.1,3.5c-1.4,2.3-4.2,3.9-7.1,3.9c0,0-0.1,0-0.1,0c-2.2,0-4.6-1.4-6.2-3.6
		c-1.4-1.9-1.9-4-1.4-5.9c0.6-2.1,2.4-4.1,4.7-5.2c1.3-0.6,2.6-0.9,3.8-0.9C401.1,126.9,402.1,127.1,402.9,127.4z M407.2,139
		L407.2,139L407.2,139z"/>
	<path class="st0" d="M370,136.8c-0.2,0-0.4-0.1-0.5-0.2l-9.7-6.7c-0.4-0.3-0.6-0.9-0.3-1.3c0.3-0.4,0.9-0.6,1.3-0.3l9.7,6.7
		c0.4,0.3,0.6,0.9,0.3,1.3C370.6,136.6,370.3,136.8,370,136.8z"/>
	<path class="st0" d="M380.1,124.4c-0.3,0-0.5-0.1-0.7-0.3l-6.3-6.5c0,0-0.1-0.1-0.1-0.1l-0.3-0.3c-0.4-0.4-0.4-1,0-1.4
		c0.4-0.4,1-0.4,1.4,0l6.8,6.9c0.4,0.4,0.4,1,0,1.4C380.6,124.3,380.3,124.4,380.1,124.4z"/>
	<path class="st0" d="M388.3,117.9c-0.4,0-0.7-0.2-0.9-0.6l-5.6-11.8c-0.2-0.5,0-1.1,0.5-1.3c0.5-0.2,1.1,0,1.3,0.5l5.6,11.8
		c0.2,0.5,0,1.1-0.5,1.3C388.5,117.9,388.4,117.9,388.3,117.9z"/>
	<path class="st0" d="M399.9,114.1c-0.4,0-0.8-0.3-0.9-0.7l-3.2-10.8c-0.2-0.5,0.1-1.1,0.7-1.2c0.5-0.2,1.1,0.1,1.2,0.7l3.2,10.8
		c0.2,0.5-0.1,1.1-0.7,1.2C400.1,114.1,400,114.1,399.9,114.1z"/>
	<path class="st0" d="M409.1,111.8C409.1,111.8,409.1,111.8,409.1,111.8c-0.6,0-1-0.5-1-1l0.7-11.8c0-0.5,0.5-0.9,1-0.9
		c0.5,0,0.9,0.5,0.9,1l-0.7,11.8C410,111.4,409.6,111.8,409.1,111.8z"/>
	<path class="st0" d="M421.7,112c-0.1,0-0.2,0-0.3,0c-0.5-0.1-0.8-0.7-0.7-1.2l2.8-10.4c0.1-0.5,0.7-0.8,1.2-0.7
		c0.5,0.1,0.8,0.7,0.7,1.2l-2.8,10.4C422.5,111.7,422.1,112,421.7,112z"/>
</g>
<path class="st0" d="M464.4,144.3c3.6-0.2,7.6-2.8,7.7-6.7c0-0.5-0.4-1-0.9-1c-0.5,0-1,0.4-1,0.9c-0.1,2.7-3.1,4.7-5.9,4.8
	c-3.1,0.1-6.1-1.3-8.8-2.6l-9.6-4.7c-0.3-0.2-0.6-0.3-0.8-0.5c-0.5-0.4-1-0.9-0.9-1.5c0.1-0.5,0.6-1,1.2-1.2
	c0.8-0.3,1.7-0.2,2.6-0.1l19.4,1.5c1.5,0.1,3.3,0.2,4.9-0.8c1.1-0.7,1.8-1.9,1.7-3.1c-0.1-2.3-2.4-3.3-4.2-4c-0.4-0.1-0.7-0.3-1-0.4
	c-0.6-0.3-1.3-0.9-2-1.7c0.1-0.1,0.2-0.1,0.3-0.2c1.8-1,3-2.9,3-5.1c0-1.8-0.7-3.4-2-4c-0.6-0.3-1.9-0.7-3.6,0.4
	c-1.4,0.9-2.1,2.4-1.9,4.2c0.1,1.2,0.5,2.5,1.1,3.6c-0.9,0.2-1.8,0.2-2.8,0.3c-2.5,0.1-5.1,0.2-7.6,0.2c-2.3,0-4.1-0.2-5-2.2
	c-0.3-0.7-0.4-1.5-0.3-2.4c0.2-2,1.3-3.7,2.5-5.5l0.4-0.6c6.3-9.7,9.8-21.4,9.8-33c0-0.5,0-1.1,0-1.7c0-3.8-0.1-7.7,1.9-10.7
	c1.4-2.1,3.8-3.7,7.1-4.9c6.3-2.2,13.5-2,19.6,0.6c3.9,1.7,7.5,4.3,10.3,7.6c1,1.2,1.4,2.8,0.9,4.3c-0.5,1.5-1.6,2.7-3.2,3.1
	c-8.5,2.5-17.7,1.7-25.5-2.2c2-2.2,4.6-3.8,7.4-4.8c-0.3,2.1,0.2,4.3,1.5,5.9c1.2,1.5,3.2,2.4,5.2,2.3c1.8-0.1,3.3-0.9,4.3-2.4
	c1-1.5,1.2-3.4,0.6-4.9c-1.4-3.2-5.3-3.9-8.3-3.5c-5,0.6-9.7,3.2-12.8,7.1c-0.2,0.2-0.2,0.5-0.2,0.8c0.1,0.3,0.2,0.5,0.5,0.7
	c8.4,4.6,18.6,5.7,28,3c2.2-0.6,3.8-2.3,4.5-4.4c0.6-2.1,0.2-4.4-1.3-6.1c-3-3.6-6.8-6.4-11-8.2c-6.6-2.8-14.2-3-21-0.7
	c-3.7,1.3-6.5,3.2-8.1,5.7c-2.3,3.5-2.2,7.7-2.2,11.7c0,0.5,0,1.1,0,1.6c0,11.2-3.4,22.5-9.5,31.9l-0.4,0.6
	c-1.2,1.9-2.5,3.9-2.8,6.3c-0.1,1.2,0,2.4,0.5,3.4c1.5,3.3,4.8,3.3,6.8,3.3c2.6,0,5.2,0,7.7-0.2c1.3-0.1,2.5-0.2,3.8-0.5
	c1,1.3,2.1,2.3,3.1,2.8c0.4,0.2,0.7,0.3,1.1,0.5c1.8,0.7,3,1.3,3,2.3c0,0.5-0.3,1-0.8,1.4c-1,0.7-2.4,0.6-3.7,0.5l-19.4-1.5
	c-1-0.1-2.2-0.2-3.4,0.2c-1.3,0.4-2.3,1.5-2.4,2.7c-0.1,0.7,0,2.1,1.7,3.3c0.3,0.2,0.7,0.4,1.1,0.6l9.6,4.7c2.6,1.3,5.9,2.8,9.3,2.8
	C464.1,144.3,464.2,144.3,464.4,144.3z M467.1,115.7c0.6,0.3,1,1.3,1,2.3c0,0.6-0.2,2.5-1.9,3.4c-0.2,0.1-0.4,0.2-0.5,0.3
	c-0.6-1.1-1-2.2-1.1-3.2c-0.1-1.1,0.3-1.9,1.1-2.4c0.4-0.3,0.8-0.4,1.1-0.4C466.8,115.6,467,115.6,467.1,115.7z M482.5,69.8
	c2.5-0.3,5.5,0.3,6.3,2.4c0.4,1,0.3,2.1-0.4,3.1c-0.8,1.2-2,1.5-2.8,1.5c-1.3,0.1-2.7-0.6-3.6-1.6c-1.1-1.4-1.4-3.4-0.8-5.2
	C481.7,69.9,482.1,69.8,482.5,69.8z"/>
<g>
	<path class="st0" d="M119,185.5c8.9-2.7,14.8-10.2,20.6-17.6l0.9-1.1c3.8-4.9,7.9-9.6,12.1-14.2c1.5,1.5,3.4,2.7,5.6,3.3
		c5.1,1.3,11.1-0.4,15.7-4.6c4.4-4,7-9.5,8.8-13.8c0.8-1.8,1.5-3.8,1.4-5.9c-0.1-2.1-1.3-4.6-3.6-5.3c-3.2-1-6.1,1.6-8,3.7l-5.1,5.7
		c-0.8,0.9-1.5,1.8-2.1,2.6c-0.3,0.1-0.5,0.2-0.8,0.3c-1.9,0.9-3.3,2.3-4.9,3.9c-2.4,2.4-4.7,4.8-7,7.2c-1.3-2-1.9-4.3-1.4-6.6
		c0.7-3.3,3.4-5.8,6.6-8.5l13.7-11.5c2.9-2.5,5.9-5.5,5.3-9.3c-0.4-2.6-2.4-4.6-3.9-6l-8.4-8.1c-3.6-3.5-7.7-7.4-12.6-9.7
		c-4.6-2.1-9.5-2.5-13.3-0.9c-4.7,1.9-7.6,6.9-6.6,11.4c1,4.5,5.2,7.3,9.1,9.6l8.2,4.9c1.6,0.9,3.4,1.9,5.3,1.3
		c2.2-0.7,3.2-3.2,3-5.2c-0.2-2-1.3-3.6-2.3-5.1c-1.8-2.6-4.1-5.3-7.3-6.6c-3.3-1.2-7.8-0.3-9.3,3.1c-0.5,1.1-0.6,2.3-0.3,3.5
		c-2.2-1.6-3.9-3.5-4.4-6c-0.9-4,2.1-7.8,5.5-9.2c3.3-1.4,7.6-1.1,11.8,0.8c4.6,2.2,8.4,5.8,12.1,9.3l8.4,8.1c1.6,1.6,3,3.1,3.3,4.9
		c0.4,2.8-2.1,5.4-4.7,7.5l-13.7,11.5c-2.7,2.2-6.3,5.3-7.3,9.5c-0.6,2.9,0.2,5.9,2,8.4c-4.3,4.7-8.4,9.6-12.3,14.5l-0.9,1.1
		c-5.6,7.1-11.3,14.4-19.6,16.9c-6.4,1.9-13.1,0.7-20.1-0.8c-5.6-1.2-11-2.6-15.9-5.1c-5.4-2.8-9.3-6.9-11.1-11.4
		c-2.1-5.2-1.1-11.3,2.4-14.8c0.8-0.8,1.7-1.5,2.7-2.2c2-1.5,4-3.1,4.9-5.5c0.5-1.5,0.5-3,0.6-4.4c0-0.7,0-1.3,0.1-1.9
		c0.1-1.6,0.8-3.6,2.4-4c1.2-0.3,2.6,0.5,3.4,1.4c0.8,0.9,1.3,2,1.8,3.2c0.1,0.3,0.3,0.6,0.4,0.9c3.8,8,11.5,14.2,20.2,16.2
		c1.7,0.4,3.9,0.7,6-0.1c2-0.7,3.9-2.7,3.6-5.2c-0.3-3.2-3.9-4.7-7.1-4.8c-0.6,0-1.2,0-1.8,0c-2,0.1-3.9,0.1-5.4-0.8
		c-1.8-1.2-2.5-3.4-3.2-5.9c-0.8-2.6-1.6-5.3-3.8-6.9c-1.2-0.8-2.5-1.2-3.8-1.5c-0.9-0.2-1.8-0.5-2.5-0.8c-1-0.5-1.8-1.6-1.9-2.6
		c-0.1-0.7,0.3-1,0.4-1.1c0.7-0.5,2-0.2,2.9,0.5c0.4,0.3,0.8,0.6,1.2,1c0.7,0.7,1.4,1.3,2.4,1.8c1.1,0.5,2.4,0.6,3.4,0.2
		c0.8-0.3,1.4-0.9,1.7-1.7c0.5-1.3-0.1-2.5-0.6-3.5c-0.2-0.5-0.5-1-0.6-1.4c-0.5-2.1,2-3.8,4.8-5.5c8.3-5,13.3-14.3,17.3-21.7
		c2.2-4.1,4.7-8.8,4.7-14c0-5.1-3.4-10.9-8.8-11.4c-0.5-0.1-1,0.3-1.1,0.9c-0.1,0.5,0.3,1,0.9,1.1c4.4,0.4,7.1,5.3,7.1,9.5
		c0,4.7-2.4,9.1-4.5,13.1c-3.9,7.2-8.7,16.2-16.6,21c-2.6,1.6-6.5,3.9-5.7,7.6c0.1,0.7,0.4,1.3,0.7,1.9c0.4,0.9,0.7,1.5,0.5,2
		c-0.1,0.2-0.3,0.4-0.6,0.5c-0.5,0.2-1.3,0.2-1.8-0.1c-0.7-0.3-1.3-0.9-1.9-1.5c-0.4-0.4-0.8-0.8-1.3-1.1c-1.5-1.1-3.6-1.7-5.2-0.5
		c-0.9,0.7-1.3,1.7-1.2,2.8c0.2,1.6,1.4,3.4,2.9,4.1c0.9,0.5,1.9,0.7,2.9,1c1.2,0.3,2.3,0.6,3.2,1.2c1.7,1.2,2.4,3.5,3.1,5.8
		c0.8,2.7,1.6,5.4,4.1,7c2,1.2,4.3,1.2,6.5,1.1c0.6,0,1.2,0,1.7,0c2.4,0,5,1.1,5.2,3c0.1,1.4-1.1,2.7-2.4,3.2
		c-1.6,0.6-3.5,0.3-4.9,0c-8.1-1.8-15.3-7.6-18.9-15.1c-0.1-0.3-0.3-0.6-0.4-0.9c-0.6-1.3-1.2-2.6-2.1-3.7c-1.5-1.7-3.6-2.5-5.4-2
		c-2.5,0.7-3.6,3.4-3.8,5.7c-0.1,0.7-0.1,1.4-0.1,2.1c0,1.4,0,2.6-0.4,3.8c-0.7,1.9-2.4,3.3-4.3,4.7c-1,0.7-2,1.5-2.9,2.4
		c-4.1,4.1-5.2,10.9-2.8,16.9c2,5,6.2,9.4,12,12.4c5.1,2.7,10.7,4,16.3,5.3c4.4,1,8.9,1.9,13.4,1.9
		C113.9,186.6,116.5,186.3,119,185.5z M160.8,143.8c1-1,1.9-1.8,2.8-2.5c-0.6,1.9-0.4,3.6,0.5,5c0.8,1.2,2.3,2,3.9,2.1
		c1.7,0.1,3.3-0.5,4.3-1.7c1-1.1,1.4-2.7,1.1-4.3c-0.3-1.6-1.2-3-2.5-3.8c-0.9-0.5-2-0.8-3.1-0.8c0.2-0.3,0.5-0.6,0.7-0.9l5.1-5.7
		c2.4-2.7,4.3-3.7,6-3.2c1.5,0.5,2.2,2.2,2.3,3.6c0.1,1.7-0.6,3.4-1.3,5.1c-1.7,4.1-4.2,9.4-8.3,13.1c-4.1,3.7-9.4,5.3-13.9,4.2
		c-1.9-0.5-3.5-1.5-4.8-2.8C156.1,148.7,158.4,146.2,160.8,143.8z M170,140.3c0.8,0.5,1.4,1.4,1.6,2.5c0.2,1-0.1,2-0.7,2.7
		c-0.6,0.7-1.6,1.1-2.7,1c-1-0.1-1.9-0.5-2.4-1.3c-1-1.5-0.5-3.5,0.6-5.3C167.6,139.6,168.9,139.6,170,140.3z M146.8,109.8
		c1.4-0.9,2.4-2.3,2.7-3.8c0.2-1.3-0.1-2.7-0.9-4c2.1,1.2,3.7,3.3,5,5.2c0.9,1.3,1.8,2.7,2,4.2c0.1,1.2-0.4,2.8-1.6,3.1
		c-1.1,0.4-2.5-0.3-3.7-1.1l-5-2.9C145.7,110.4,146.3,110.1,146.8,109.8z M144,101.3c1,0,2,0.6,2.7,1.5c0.7,0.9,1,2,0.9,3
		c-0.2,1-0.8,1.9-1.8,2.5c-1,0.6-2.1,0.8-3,0.5c-1-0.3-1.8-1.1-2.3-2.1c-0.5-1-0.5-2.2-0.1-3.1c0.6-1.3,1.8-2,3.2-2.3
		C143.7,101.2,143.8,101.3,144,101.3z"/>
</g>
<g>
	<path class="st0" d="M564.3,76.8c-0.1,0-0.3,0-0.4-0.1c-0.5-0.2-0.7-0.8-0.5-1.3c7.3-16.5,18.3-31.5,31.8-43.5l0.7-0.6
		c1.8-1.6,3.7-3.3,5.1-5.2c1.7-2.4,2.4-5,1.9-7.2c-0.5-2.5-2.8-4.4-4.9-4.3c-1.7,0.1-3.3,1.3-5,2.5c-2.2,1.6-4.4,3.3-7.2,2.5
		c-2.1-0.6-3.8-2.6-4.3-5.2c-0.4-2.2,0-4.4,0.4-6.4l5.9-29.7c0.2-1,0.7-4.4-1.1-5.1c-0.9-0.3-1.9,0.2-2.5,0.9
		c-0.8,0.8-1.2,2-1.6,3.1L572.5,6.4c-0.1,0.4-0.5,0.6-0.9,0.6c-0.4,0-0.8-0.2-0.9-0.6c-3.8-9.9-5.4-20.8-4.5-31.4l0.1-0.7
		c0.2-2.3,0.4-4.6-0.4-6.6c-0.7-2-2.9-3.7-4.9-3.1c-2.4,0.8-2.9,4.4-2.8,7.4l0.7,23.2c0.1,1.8,0.1,3.8-0.7,5.6
		c-0.8,1.9-2.9,3.6-5.2,3.2c-2.9-0.5-4-3.7-4.6-6l-6.8-28.3c-0.4-1.5-1.2-4.1-2.9-4.1c0,0,0,0,0,0c-1,0-1.8,1-2.1,1.9
		c-0.4,1.2-0.2,2.5,0,3.8L541.6,8c0.1,0.4-0.2,0.8-0.6,1c-0.4,0.2-0.9,0.1-1.1-0.3c-4.5-5.3-7.4-12-8.2-18.9c0-0.3-0.1-0.6-0.1-0.9
		c-0.2-1.5-0.3-2.9-0.9-4.2c-0.6-1.3-1.9-2.5-3.3-2.4c-1.3,0.2-2.3,1.5-2.6,2.6c-0.4,1.5-0.2,3.2,0,4.7c3.2,23.8,8.4,47.5,15.5,70.4
		c0.2,0.5-0.1,1.1-0.6,1.2c-0.5,0.2-1.1-0.1-1.2-0.6c-7.1-23-12.4-46.9-15.6-70.8c-0.2-1.6-0.5-3.6,0-5.4c0.5-1.8,2-3.8,4.2-4
		c2.4-0.3,4.4,1.6,5.3,3.5c0.7,1.5,0.9,3.2,1,4.8c0,0.3,0.1,0.6,0.1,0.9c0.6,5.3,2.6,10.5,5.5,14.9l-4.6-33c-0.2-1.4-0.4-3.1,0-4.6
		c0.5-1.6,1.9-3.3,3.9-3.3c0,0,0,0,0,0c1.6,0,3.7,1,4.8,5.6l6.8,28.3c0.7,2.9,1.7,4.4,3,4.6c1.3,0.2,2.6-0.9,3.1-2.1
		c0.6-1.4,0.6-3.2,0.5-4.8L556.2-28c-0.2-5.2,1.2-8.3,4.1-9.3c3-1,6.2,1.4,7.3,4.2c0.9,2.4,0.7,5,0.5,7.5l-0.1,0.7
		c-0.8,9.4,0.5,19.1,3.5,28l9.3-26.5c0.4-1.2,0.9-2.7,1.9-3.8c1-1.1,2.8-2,4.6-1.4c2.2,0.8,3.1,3.5,2.3,7.3l-5.9,29.7
		c-0.4,1.9-0.8,3.8-0.4,5.6c0.3,1.5,1.3,3.3,2.9,3.7c1.9,0.5,3.6-0.8,5.6-2.2c1.8-1.3,3.7-2.7,6-2.9c3.2-0.2,6.2,2.4,6.9,5.8
		c0.8,3.7-1,7.1-2.2,8.7c-1.5,2.1-3.5,3.9-5.4,5.6l-0.7,0.6c-13.3,11.8-24.1,26.6-31.3,42.8C565,76.6,564.6,76.8,564.3,76.8z"/>
	<g>
		<path class="st0" d="M353.8-33L353.8-33L353.8-33z"/>
	</g>
	<path class="st0" d="M460.3,20c3.5-0.7,7.1-3.9,6.6-7.8c-0.1-0.5-0.5-0.9-1.1-0.9c-0.5,0.1-0.9,0.5-0.9,1.1
		c0.3,2.7-2.4,5.1-5.1,5.6c-3,0.6-6.3-0.4-9.1-1.3l-10.2-3.2c-0.3-0.1-0.6-0.2-0.8-0.3c-0.5-0.3-1.2-0.7-1.2-1.3c0-0.5,0.4-1,1-1.3
		c0.7-0.4,1.7-0.5,2.6-0.5l19.4-1.5c1.5-0.1,3.3-0.2,4.7-1.5c1-0.9,1.5-2.1,1.2-3.3c-0.4-2.3-2.9-2.9-4.8-3.3
		c-0.4-0.1-0.7-0.2-1.1-0.3c-0.7-0.2-1.4-0.7-2.2-1.4c0.1-0.1,0.2-0.1,0.3-0.2c1.7-1.2,2.5-3.3,2.2-5.5c-0.3-1.8-1.2-3.2-2.5-3.7
		c-0.6-0.2-2-0.4-3.5,0.9c-1.2,1.1-1.7,2.7-1.3,4.5c0.3,1.2,0.9,2.4,1.7,3.4c-0.9,0.3-1.8,0.5-2.7,0.7c-2.5,0.5-5,1-7.5,1.3
		c-2.3,0.3-4.1,0.4-5.3-1.4c-0.4-0.6-0.6-1.4-0.7-2.3c-0.1-2,0.8-3.8,1.7-5.8l0.3-0.7c4.8-10.5,6.4-22.6,4.7-34.1
		c-0.1-0.5-0.2-1.1-0.3-1.6c-0.6-3.7-1.2-7.6,0.3-10.8c1-2.3,3.2-4.3,6.3-5.9c5.9-3.1,13-4,19.5-2.3c4.1,1.1,8,3.1,11.3,6
		c1.2,1.1,1.8,2.6,1.5,4.1c-0.2,1.6-1.2,2.9-2.6,3.6c-8.1,3.8-17.3,4.3-25.5,1.6c1.7-2.5,4-4.5,6.6-5.8c0,2.1,0.8,4.2,2.3,5.6
		c1.5,1.3,3.5,1.9,5.5,1.5c1.7-0.3,3.1-1.4,3.9-3c0.8-1.6,0.7-3.5-0.2-5c-1.8-2.9-5.9-3-8.8-2.2c-4.8,1.4-9.1,4.6-11.6,9
		c-0.1,0.2-0.2,0.5-0.1,0.8c0.1,0.3,0.3,0.5,0.6,0.6c9,3.3,19.2,2.9,28.1-1.3c2-0.9,3.4-2.8,3.7-5.1c0.3-2.2-0.5-4.4-2.2-5.9
		c-3.5-3.1-7.7-5.3-12.1-6.4c-6.9-1.8-14.5-0.9-20.9,2.5c-3.5,1.9-5.9,4.1-7.1,6.8c-1.7,3.8-1.1,7.9-0.4,11.9
		c0.1,0.5,0.2,1.1,0.3,1.6c1.6,11.1,0,22.8-4.6,33l-0.3,0.6c-0.9,2.1-1.9,4.2-1.8,6.7c0,1.2,0.4,2.3,1,3.3c1.9,3.1,5.2,2.6,7.2,2.3
		c2.6-0.4,5.1-0.8,7.6-1.3c1.2-0.3,2.5-0.5,3.7-1c1.1,1.1,2.4,2,3.5,2.3c0.4,0.1,0.8,0.2,1.2,0.3c1.9,0.5,3.1,0.8,3.3,1.8
		c0.1,0.5-0.1,1.1-0.6,1.5c-0.9,0.8-2.3,0.9-3.6,1L442,8.2c-1,0.1-2.2,0.2-3.3,0.7c-1.2,0.6-2,1.8-2,3c0,0.7,0.3,2,2.2,3
		c0.3,0.2,0.7,0.3,1.2,0.5l10.2,3.2c2.3,0.7,5,1.6,7.8,1.6C458.7,20.2,459.5,20.2,460.3,20z M458.6-8.6c0.6,0.2,1.1,1.1,1.3,2.2
		c0.1,0.6,0.2,2.5-1.4,3.7c-0.2,0.1-0.3,0.2-0.5,0.3c-0.7-0.9-1.3-2-1.6-3c-0.3-1.1,0-2,0.7-2.6c0.4-0.4,0.8-0.6,1.2-0.6
		C458.4-8.7,458.5-8.7,458.6-8.6z M467-56.3c2.4-0.7,5.4-0.5,6.6,1.4c0.5,0.9,0.6,2.1,0.1,3.1c-0.6,1.3-1.7,1.8-2.5,1.9
		c-1.3,0.3-2.8-0.1-3.8-1c-1.3-1.2-1.9-3.1-1.6-5C466.2-56.1,466.6-56.2,467-56.3z"/>
	<path class="st0" d="M453.9,43.9c9.8-2.6,23.2-6.2,30.9-15.8c6.8-8.5,8-19.6,8.9-32.1l2.7-41.8c0.1-2.1,0.3-4.4,1.3-6.3
		c0.9-1.6,2.7-3,4.5-2.7c2.4,0.5,3.5,3.5,4.1,5.9c2.4,10.4,1.9,21.3-1.6,31.4c-0.5,1.4-1.1,3-2.2,4c-0.9,0.9-2.4,1.4-3.5,0.8
		c-0.5-0.3-0.8-0.9-0.8-1.5c0-0.3,0-0.8,0.4-1c0.4-0.3,0.6-0.9,0.3-1.3c-0.3-0.4-0.9-0.6-1.3-0.3c-0.9,0.6-1.4,1.6-1.3,2.7
		c0,1.3,0.8,2.5,1.8,3.1c2,1.1,4.4,0.2,5.8-1.1c1.4-1.4,2.1-3.2,2.7-4.8c3.5-10.5,4.1-21.7,1.6-32.5c-1.3-5.4-3.7-7-5.6-7.4
		c-2.9-0.6-5.5,1.5-6.6,3.7c-1.2,2.2-1.4,4.8-1.5,7.1L491.7-4c-0.8,12.2-2,22.9-8.4,31c-6.8,8.5-17.5,11.9-29.9,15.1
		c-5.5,1.5-11.7,3.1-17.4,1.5c-3.2-0.9-6.2-3.1-7.8-5.9c-0.7-1.2-1.4-2.9-1.2-5c3.3,2.6,7,4.1,10.9,4.4c2.6,0.1,4.9-0.4,6.7-1.5
		c2.2-1.4,3.6-3.9,3.4-6.2c-0.3-4.3-5.1-6.8-9.4-6.9c-4.8-0.1-10.4,2.1-12.6,6.7c-1.3-1.3-2.4-2.8-3.4-4.4
		c-3.5-5.7-4.9-12.4-6.1-18.8c-2.8-15.5-4.4-31.4-4.8-47.3c0-2.2-0.1-5-1.7-7.1c-1-1.3-2.6-2.1-4.3-2.1c0,0,0,0,0,0
		c-1.3,0-2.4,0.5-3.1,1.5c-1,1.4-0.9,3-0.7,4.6l3.6,29.9c0.3,2.1,0.5,4.5,1.7,6.5c1,1.8,3.1,3.6,5.5,3.6c0,0,0,0,0.1,0
		c0.5,3.6,1.1,7.1,1.7,10.7c1.1,6.3,2.7,13.5,6.3,19.5c1.3,2.1,2.7,3.9,4.4,5.5c-0.6,2.4-0.1,5,1.2,7.4c1.8,3.2,5.3,5.8,8.9,6.8
		c1.8,0.5,3.7,0.7,5.5,0.7C445.5,46.2,450,45,453.9,43.9z M438.5,24.4c3.5,0.1,7.3,2,7.5,5.1c0.1,1.6-0.9,3.4-2.5,4.5
		c-1.8,1.2-4,1.3-5.6,1.2c-3.7-0.2-7.3-1.8-10.5-4.5C429.1,26.4,434.2,24.3,438.5,24.4z M405.8-48.6c1,0,2.1,0.5,2.7,1.3
		c1.2,1.6,1.2,3.9,1.3,6c0.3,11.7,1.2,23.4,2.8,34.9c-1.5-0.1-2.9-1.4-3.6-2.6c-1-1.7-1.2-3.8-1.5-5.8l-3.6-29.9
		c-0.2-1.3-0.2-2.5,0.3-3.3C404.6-48.5,405.3-48.6,405.8-48.6C405.8-48.6,405.8-48.6,405.8-48.6z"/>
</g>
<path class="st0" d="M173,85.9c-0.1,0-0.3,0-0.4-0.1c-0.5-0.2-0.7-0.8-0.5-1.3c7.3-16.5,18.3-31.5,31.8-43.5l0.7-0.6
	c1.8-1.6,3.7-3.3,5.1-5.2c1.7-2.4,2.4-5,1.9-7.2c-0.5-2.5-2.8-4.4-4.9-4.3c-1.7,0.1-3.3,1.3-5,2.5c-2.2,1.6-4.4,3.3-7.2,2.5
	c-2.1-0.6-3.8-2.6-4.3-5.2c-0.4-2.2,0-4.4,0.4-6.4l5.9-29.7c0.2-1,0.7-4.4-1.1-5.1c-0.9-0.3-1.9,0.2-2.5,0.9c-0.8,0.8-1.2,2-1.6,3.1
	l-10.2,29.1c-0.1,0.4-0.5,0.6-0.9,0.6c-0.4,0-0.8-0.2-0.9-0.6c-3.8-9.9-5.4-20.8-4.5-31.4l0.1-0.7c0.2-2.3,0.4-4.6-0.4-6.6
	c-0.7-2-2.9-3.7-4.9-3.1c-2.4,0.8-2.9,4.4-2.8,7.4l0.7,23.2c0.1,1.8,0.1,3.8-0.7,5.6c-0.8,1.9-2.9,3.6-5.2,3.2c-2.9-0.5-4-3.7-4.6-6
	l-6.8-28.3c-0.4-1.5-1.2-4.1-2.9-4.1c0,0,0,0,0,0c-1,0-1.8,1-2.1,1.9c-0.4,1.2-0.2,2.5,0,3.8l5.1,36.7c0.1,0.4-0.2,0.8-0.6,1
	c-0.4,0.2-0.9,0.1-1.1-0.3c-4.5-5.3-7.4-12-8.2-18.9c0-0.3-0.1-0.6-0.1-0.9c-0.2-1.5-0.3-2.9-0.9-4.2c-0.6-1.3-1.9-2.5-3.3-2.4
	c-1.3,0.2-2.3,1.5-2.6,2.6c-0.4,1.5-0.2,3.2,0,4.7c3.2,23.8,8.4,47.5,15.5,70.4c0.2,0.5-0.1,1.1-0.6,1.2c-0.5,0.2-1.1-0.1-1.2-0.6
	c-7.1-23-12.4-46.9-15.6-70.8c-0.2-1.6-0.5-3.6,0-5.4c0.5-1.8,2-3.8,4.2-4c2.4-0.3,4.4,1.6,5.3,3.5c0.7,1.5,0.9,3.2,1,4.8
	c0,0.3,0.1,0.6,0.1,0.9C143,4.1,145,9.3,148,13.7l-4.6-33c-0.2-1.4-0.4-3.1,0-4.6c0.5-1.6,1.9-3.3,3.9-3.3c0,0,0,0,0,0
	c1.6,0,3.7,1,4.8,5.6L159,6.6c0.7,2.9,1.7,4.4,3,4.6c1.3,0.2,2.6-0.9,3.1-2.1c0.6-1.4,0.6-3.2,0.5-4.8L165-18.8
	c-0.2-5.2,1.2-8.3,4.1-9.3c3-1,6.2,1.4,7.3,4.2c0.9,2.4,0.7,5,0.5,7.5l-0.1,0.7c-0.8,9.4,0.5,19.1,3.5,28l9.3-26.5
	c0.4-1.2,0.9-2.7,1.9-3.8c1-1.1,2.8-2,4.6-1.4c2.2,0.8,3.1,3.5,2.3,7.3l-5.9,29.7c-0.4,1.9-0.8,3.8-0.4,5.6c0.3,1.5,1.3,3.3,2.9,3.7
	c1.9,0.5,3.6-0.8,5.6-2.2c1.8-1.3,3.7-2.7,6-2.9c3.2-0.2,6.2,2.4,6.9,5.8c0.8,3.7-1,7.1-2.2,8.7c-1.5,2.1-3.5,3.9-5.4,5.6l-0.7,0.6
	c-13.3,11.8-24.1,26.6-31.3,42.8C173.7,85.7,173.4,85.9,173,85.9z"/>
<path class="st0" d="M224.1,18.1c1.1-0.5,1.8-1.7,1.9-3.1c0.1-1.2-0.4-2.3-0.7-3.3l-6.8-18.2c-0.5-1.2-0.9-2.5-0.6-3.7
	c0.2-0.6,0.6-1,1.1-1.2c1-0.2,1.9,0.7,3.1,2.3c0.3,0.3,0.5,0.6,0.8,0.9c0.7,0.8,2,1.7,3.5,2.2c0.1,1.3,0.3,2.5,0.6,3.8
	c0.6,2.5,1.3,5,2,7.5c0.6,1.9,1.5,5.1,5.1,5.6c1.1,0.1,2.3,0,3.4-0.5c2.3-1,3.8-2.7,5.3-4.5l0.5-0.5c7.3-8.5,17.3-14.9,28-18
	c0.5-0.2,1-0.3,1.6-0.4c3.9-1.1,8-2.2,10.7-5.4c1.9-2.2,3-5.4,3.2-9.3c0.4-7.1-2-14.4-6.5-20c-2.9-3.5-6.6-6.4-10.9-8.3
	c-2-0.9-4.4-0.7-6.2,0.5c-1.9,1.2-3,3.3-3,5.5c0,9.8,3.8,19.3,10.6,26.1c0.2,0.2,0.5,0.3,0.8,0.3c0.3,0,0.5-0.2,0.7-0.4
	c2.9-4.1,4.1-9.3,3.3-14.3c-0.5-3-2.3-6.6-5.7-7c-1.7-0.2-3.4,0.5-4.6,1.9c-1.1,1.4-1.5,3.1-1.1,4.8c0.5,1.9,1.9,3.6,3.6,4.3
	c1.9,0.8,4.1,0.7,6-0.2c-0.1,3-1,5.9-2.5,8.4c-5.9-6.3-9.3-14.9-9.2-23.8c0-1.6,0.8-3,2.1-3.9c1.3-0.9,2.9-1,4.4-0.3
	c4,1.8,7.5,4.4,10.2,7.7c4.2,5.2,6.4,12,6.1,18.7c-0.2,3.5-1.1,6.3-2.7,8.2c-2.3,2.7-6.1,3.8-9.7,4.8c-0.5,0.2-1.1,0.3-1.6,0.5
	c-11.1,3.3-21.4,9.9-29,18.6l-0.5,0.5c-1.4,1.6-2.7,3.2-4.6,3.9c-0.8,0.3-1.6,0.5-2.4,0.4c-2.2-0.3-2.8-2-3.5-4.2
	c-0.7-2.5-1.4-4.9-2-7.4c-0.2-0.9-0.4-1.9-0.5-2.8c1.3,0.3,2.6,0.3,3.8,0.1c1.8-0.4,3-1.4,3.5-3c0.6-1.9-0.2-3-0.6-3.5
	c-1-1-2.7-1.3-4.4-0.8c-2.1,0.6-3.7,2.3-4.1,4.3c0,0.1,0,0.2-0.1,0.4c-0.9-0.4-1.7-0.9-2.2-1.4c-0.2-0.3-0.5-0.6-0.7-0.9
	c-1.2-1.6-2.8-3.5-5-2.9c-1.2,0.3-2.1,1.2-2.5,2.5c-0.5,1.8,0.1,3.5,0.6,4.9l6.8,18.2c0.3,0.8,0.6,1.7,0.6,2.5
	c0,0.6-0.4,1.2-0.8,1.4c-0.5,0.3-1.2-0.1-1.7-0.5c-0.2-0.2-0.4-0.4-0.7-0.6l-7.1-7.9c-2-2.2-4.3-4.7-5-7.7c-0.7-2.7,0.4-6.1,3-7
	c0.5-0.2,0.8-0.7,0.6-1.2c-0.2-0.5-0.7-0.8-1.2-0.6c-3.7,1.2-5.1,5.8-4.3,9.3c0.8,3.5,3.4,6.3,5.4,8.6l7.1,7.9
	c0.3,0.4,0.6,0.6,0.9,0.9c1,0.7,1.8,1,2.5,1C223.4,18.3,223.8,18.2,224.1,18.1z M228.4-8c0.4-2,2.2-2.6,2.7-2.8c1-0.3,2-0.2,2.5,0.3
	c0.3,0.3,0.4,0.9,0.2,1.6c-0.3,0.9-0.9,1.5-2.1,1.7c-1,0.2-2.2,0.1-3.4-0.2C228.3-7.6,228.4-7.8,228.4-8z M269.4-43.5
	c2.2,0.3,3.6,2.9,4,5.4c0.1,0.4,0.1,0.8,0.2,1.3c-1.6,1.1-3.6,1.3-5.2,0.6c-1.2-0.5-2.2-1.7-2.5-3c-0.2-0.8-0.2-2,0.7-3.1
	c0.6-0.8,1.6-1.3,2.5-1.3C269.2-43.6,269.3-43.6,269.4-43.5z"/>
</svg>
