<?xml version="1.0" encoding="utf-8"?>
<!-- Generator: Adobe Illustrator 24.3.0, SVG Export Plug-In . SVG Version: 6.00 Build 0)  -->
<svg version="1.1" id="Layer_1" xmlns="http://www.w3.org/2000/svg" xmlns:xlink="http://www.w3.org/1999/xlink" x="0px" y="0px"
	 viewBox="0 0 500 500" style="enable-background:new 0 0 500 500;" xml:space="preserve">
<style type="text/css">
	.st0{fill:#FFFFFF;}
</style>
<g>
	<path class="st0" d="M99.3,54.5h19v99.8h-16.6V150c-5.6,4.3-12.3,6.4-20.2,6.4c-6.7,0-12.7-1.7-18-5.2c-5.2-3.4-9.3-8.2-12.2-14.2
		c-2.9-6-4.3-12.7-4.3-20.2c0-7.6,1.5-14.4,4.4-20.4c2.9-6,7.1-10.7,12.5-14.1c5.4-3.4,11.6-5.1,18.6-5.1c6.4,0,12.1,1.5,16.9,4.6
		V54.5z M101.6,116.9c0-7.1-1.3-12.7-4-16.7c-2.7-4-6.8-6-12.5-6c-4.1,0-7.5,1-10.2,3c-2.7,2-4.8,4.7-6.1,8.1c-1.3,3.4-2,7.3-2,11.6
		c0,6.7,1.5,12.2,4.4,16.4c3,4.2,7.3,6.3,13.2,6.3C95.9,139.6,101.6,132,101.6,116.9z"/>
	<path class="st0" d="M153.8,122.2c0.7,5.4,2.5,9.5,5.5,12.3c3,2.9,7,4.3,12,4.3c3.6,0,6.8-0.8,9.5-2.4c2.7-1.6,4.7-4,6.1-7
		l18.8,5.4c-1.8,4.5-4.5,8.4-7.8,11.6c-3.4,3.3-7.3,5.7-11.6,7.5c-4.4,1.7-9,2.6-13.8,2.6c-7.6,0-14.3-1.6-20.2-4.9
		c-5.9-3.3-10.5-7.9-13.8-13.7c-3.3-5.9-5-12.5-5-19.9c0-8,1.6-15.1,4.8-21.2c3.2-6.1,7.7-10.9,13.4-14.2c5.7-3.3,12.3-5,19.6-5
		c7.2,0,13.5,1.6,18.8,4.8c5.3,3.2,9.4,7.7,12.2,13.6c2.8,5.9,4.3,12.8,4.3,20.7c0,1.2-0.1,3.2-0.3,5.8H153.8z M154.3,108.2h33
		c-0.6-5-2.2-8.7-4.6-11c-2.4-2.3-5.9-3.4-10.5-3.4C162.2,93.7,156.3,98.6,154.3,108.2z"/>
	<path class="st0" d="M282.8,98.6c0.3,2.6,0.5,5.9,0.5,10v45.7h-16.5v-9.1c-3.3,4-7,6.8-11,8.6c-4,1.8-8.8,2.6-14.6,2.6
		c-5.2,0-9.6-1-13.4-3c-3.8-2-6.6-4.7-8.6-8.2c-2-3.5-2.9-7.3-2.9-11.5c0-5.5,1.3-10,3.8-13.8c2.5-3.7,6.7-6.7,12.5-8.8
		c3.2-1.2,7.2-2.2,11.9-3.1c4.7-0.9,11.4-1.9,20.2-3.2c-0.4-3.5-1.7-6.1-3.8-7.7c-2.2-1.6-5.5-2.5-9.9-2.5c-3.2,0-6.2,0.7-9.1,2.2
		c-2.9,1.5-4.8,3.8-5.9,6.9l-17-5.4c1.9-6.5,5.6-11.6,10.9-15.3c5.4-3.7,12.4-5.6,21.1-5.6c14.7,0,24.5,4.5,29.2,13.6
		C281.6,93.5,282.4,96,282.8,98.6z M264.6,120c-6.5,1.1-11.3,2-14.3,2.6c-3,0.6-5.6,1.4-7.7,2.1c-2.7,1.1-4.7,2.3-5.9,3.7
		c-1.2,1.4-1.8,3-1.8,4.9c0,2.5,0.9,4.5,2.8,6c1.9,1.5,4.4,2.2,7.7,2.2c3.2,0,6-0.6,8.4-1.7c2.4-1.1,4.3-2.5,5.8-4
		c1.5-1.5,2.5-3,3.2-4.3C263.9,129.1,264.5,125.3,264.6,120z"/>
	<path class="st0" d="M321.6,154.3h-18.8V52.4h18.8V154.3z"/>
</g>
<g>
	<path class="st0" d="M279.3,331.2c5.4,3.4,9.5,8.1,12.5,14.1c2.9,6,4.4,12.8,4.4,20.4c0,7.4-1.4,14.2-4.3,20.2
		c-2.9,6-7,10.7-12.2,14.2s-11.2,5.2-18,5.2c-6.8,0-12.8-1.6-17.9-4.8v36h-19V328.2h16.6v4.2c5.3-4.2,11.7-6.2,19.3-6.2
		C267.8,326.1,274,327.8,279.3,331.2z M271.8,382c3-4.2,4.4-9.7,4.4-16.4c0-4.3-0.7-8.2-2-11.6c-1.3-3.4-3.4-6.1-6.1-8.1
		c-2.7-2-6.1-3-10.2-3c-5.7,0-9.9,2-12.5,6c-2.7,4-4,9.6-4,16.7c0,15.2,5.7,22.7,17.2,22.7C264.5,388.3,268.9,386.2,271.8,382z"/>
	<path class="st0" d="M351.1,327.9c1.6,0,3,0.1,4.3,0.3v17.6c-1.4-0.5-3.2-0.7-5.3-0.7c-3.5,0-6.6,0.6-9.4,1.9
		c-3.3,1.5-5.9,3.8-7.6,6.8c-1.8,3-2.6,6.7-2.6,10.9V403h-19v-74.8h16.6v12.1c2.1-3.7,4.8-6.6,8-8.5
		C340.3,329.2,345.3,327.9,351.1,327.9z"/>
	<path class="st0" d="M381.1,400.1c-5.7-3.3-10.2-8-13.3-14c-3.2-6-4.7-12.8-4.7-20.5c0-7.7,1.6-14.6,4.8-20.5
		c3.2-6,7.7-10.6,13.4-14s12.3-5,19.6-5c7.4,0,14,1.7,19.8,5c5.8,3.4,10.2,8,13.4,14c3.2,6,4.8,12.8,4.8,20.4
		c0,7.7-1.6,14.5-4.8,20.5c-3.2,6-7.7,10.7-13.4,14c-5.8,3.3-12.3,5-19.7,5C393.4,405.1,386.8,403.4,381.1,400.1z M414.3,381.5
		c3.1-4,4.6-9.3,4.6-15.9c0-6.8-1.5-12.1-4.6-16c-3.1-3.9-7.6-5.9-13.4-5.9c-6,0-10.4,2-13.4,5.9c-3,3.9-4.5,9.3-4.5,16
		c0,6.8,1.5,12.2,4.6,16.1c3.1,3.9,7.5,5.8,13.3,5.8C406.7,387.5,411.2,385.5,414.3,381.5z"/>
</g>
<g>
	<path class="st0" d="M114.4,236.2h-5l-12.9-42.4l5.8,0l10,32.9l10.1-32.9h5.3l10.1,32.9l10.1-32.9h5.7l-12.9,42.4h-5l-10.6-33.7
		L114.4,236.2z"/>
	<path class="st0" d="M167.1,185.8h-5.8v-6.5h5.8V185.8z M167.1,236.2h-5.8v-42.4h5.8V236.2z"/>
	<path class="st0" d="M188.9,198.8v21.8v2.3c0,1.3,0.1,2.4,0.2,3.2c0.1,0.8,0.3,1.5,0.7,2.1c0.6,1.2,1.5,2.1,2.7,2.6
		c1.2,0.5,2.7,0.8,4.4,0.8c1.5,0,3.2-0.2,5-0.5v5.1c-2.1,0.4-4,0.6-5.8,0.6c-2.7,0-5-0.5-7.1-1.4c-2-0.9-3.5-2.4-4.5-4.3
		c-0.5-1.1-0.9-2.3-1.1-3.5c-0.2-1.2-0.3-2.6-0.3-4.4v-2.4v-22.1h-9.1v-4.9h9.1v-11.8h5.7v11.8h13v4.9H188.9z"/>
	<path class="st0" d="M239.5,195.7c2.5,1.9,4.4,4.4,5.5,7.5c1.1,3,1.7,6.3,1.7,9.7v23.3h-5.8v-21.6c0-5-1-9-3-11.9
		c-2-2.9-5.1-4.4-9.3-4.4c-4,0-7.1,1.3-9.3,4c-2.2,2.7-3.3,6.5-3.3,11.3v22.6h-5.8v-56.5h5.2v20c1.6-2.3,3.6-4,6-5.2
		s5.2-1.8,8.2-1.8C233.7,192.8,236.9,193.8,239.5,195.7z"/>
</g>
<g>
	<path class="st0" d="M232.9,261.2v21.8v2.3c0,1.3,0.1,2.4,0.2,3.2c0.1,0.8,0.3,1.5,0.7,2.1c0.6,1.2,1.5,2.1,2.7,2.6
		c1.2,0.5,2.7,0.8,4.4,0.8c1.5,0,3.2-0.2,5-0.5v5.1c-2.1,0.4-4,0.6-5.8,0.6c-2.7,0-5-0.5-7.1-1.4c-2-0.9-3.5-2.4-4.5-4.3
		c-0.5-1.1-0.9-2.3-1.1-3.5c-0.2-1.2-0.3-2.6-0.3-4.4v-2.4v-22.1h-9.1v-4.9h9.1v-11.8h5.7v11.8h13v4.9H232.9z"/>
	<path class="st0" d="M283.5,258.1c2.5,1.9,4.4,4.4,5.5,7.5c1.1,3,1.7,6.3,1.7,9.7v23.3h-5.8v-21.6c0-5-1-9-3-11.9s-5.1-4.4-9.3-4.4
		c-4,0-7.1,1.3-9.3,4c-2.2,2.7-3.3,6.5-3.3,11.3v22.6h-5.8v-56.5h5.2v20c1.6-2.3,3.6-4,6-5.2c2.4-1.2,5.2-1.8,8.2-1.8
		C277.7,255.2,281,256.2,283.5,258.1z"/>
	<path class="st0" d="M304.7,279.1c0.2,4.9,1.6,8.6,4,11.3c2.4,2.6,5.7,4,9.9,4c3,0,5.6-0.7,7.9-2.1c2.3-1.4,4.1-3.4,5.4-6.1
		l5.4,2.1c-1.7,3.7-4.1,6.5-7.4,8.6c-3.2,2-6.9,3-11.1,3c-4.1,0-7.6-0.9-10.7-2.7c-3.1-1.8-5.4-4.4-7.1-7.7
		c-1.7-3.3-2.5-7.2-2.5-11.7c0-4.6,0.8-8.6,2.5-12c1.6-3.4,4-6,7-7.8c3-1.8,6.6-2.7,10.6-2.7s7.5,0.9,10.5,2.7
		c2.9,1.8,5.2,4.4,6.7,7.8s2.3,7.5,2.3,12.2v1.2H304.7z M309,264c-2.4,2.4-3.8,5.8-4.3,10.3H332c-0.4-4.6-1.8-8-4-10.4
		s-5.3-3.5-9.3-3.5C314.7,260.4,311.4,261.6,309,264z"/>
</g>
</svg>
