<?xml version="1.0" encoding="utf-8"?>
<!-- Generator: Adobe Illustrator 23.0.5, SVG Export Plug-In . SVG Version: 6.00 Build 0)  -->
<svg version="1.1" id="Layer_1" xmlns="http://www.w3.org/2000/svg" xmlns:xlink="http://www.w3.org/1999/xlink" x="0px" y="0px"
	 viewBox="0 0 300 100" style="enable-background:new 0 0 300 100;" xml:space="preserve">
<style type="text/css">
	.st0{fill-rule:evenodd;clip-rule:evenodd;fill:#EC1C27;}
	.st1{fill-rule:evenodd;clip-rule:evenodd;fill:#FFFFFF;}
	.st2{fill-rule:evenodd;clip-rule:evenodd;fill:#FF0000;}
	.st3{fill-rule:evenodd;clip-rule:evenodd;fill:#72706F;}
</style>
<g>
	<g>
		<g>
			<g>
				<g>
					<path d="M85.46,23.3h13.63c2.69,0,4.86,0.36,6.51,1.09c1.65,0.73,3.02,1.78,4.1,3.14c1.08,1.36,1.86,2.95,2.35,4.76
						c0.49,1.81,0.73,3.73,0.73,5.75c0,3.17-0.36,5.63-1.08,7.38c-0.72,1.75-1.72,3.21-3.01,4.4c-1.28,1.18-2.66,1.97-4.13,2.36
						c-2.01,0.54-3.83,0.81-5.47,0.81H85.46V23.3z M94.64,30.02v16.22h2.25c1.92,0,3.28-0.21,4.09-0.64
						c0.81-0.43,1.44-1.17,1.9-2.23s0.69-2.78,0.69-5.15c0-3.15-0.51-5.3-1.54-6.46c-1.03-1.16-2.73-1.74-5.1-1.74H94.64z"/>
				</g>
				<g>
					<path d="M116.55,23.3h24.59v6.34h-15.39v4.72h14.28v6.05h-14.28v5.85h15.84v6.72h-25.03V23.3z"/>
				</g>
				<g>
					<path d="M163.73,48.08h-10.41l-1.45,4.9h-9.37l11.16-29.69h10.01l11.16,29.69h-9.61L163.73,48.08z M161.83,41.66l-3.28-10.67
						l-3.24,10.67H161.83z"/>
				</g>
				<g>
					<path d="M176.7,23.3h9.17v22.38h14.32v7.31H176.7V23.3z"/>
				</g>
			</g>
			<g>
				<g>
					<path d="M203.39,53.21V23.52h11.2c1.97,0,3.48,0.09,4.52,0.28c1.46,0.24,2.68,0.71,3.67,1.39c0.99,0.68,1.78,1.64,2.38,2.87
						c0.6,1.23,0.9,2.58,0.9,4.05c0,2.52-0.8,4.66-2.41,6.41c-1.61,1.75-4.51,2.62-8.71,2.62h-7.61v12.07H203.39z M207.32,37.64H215
						c2.54,0,4.34-0.47,5.41-1.42c1.07-0.94,1.6-2.27,1.6-3.99c0-1.24-0.31-2.31-0.94-3.19s-1.46-1.47-2.48-1.75
						c-0.66-0.18-1.88-0.26-3.67-0.26h-7.59V37.64z"/>
				</g>
				<g>
					<path d="M229.04,53.21V23.52h13.16c2.65,0,4.66,0.27,6.03,0.8c1.38,0.53,2.48,1.48,3.3,2.83s1.24,2.84,1.24,4.47
						c0,2.11-0.68,3.88-2.05,5.33c-1.36,1.44-3.47,2.36-6.32,2.75c1.04,0.5,1.83,0.99,2.37,1.48c1.15,1.05,2.23,2.37,3.26,3.95
						l5.16,8.08h-4.94l-3.93-6.18c-1.15-1.78-2.09-3.15-2.84-4.09s-1.41-1.61-1.99-1.98c-0.59-0.38-1.18-0.64-1.79-0.79
						c-0.45-0.09-1.17-0.14-2.19-0.14h-4.56v13.18H229.04z M232.97,36.63h8.44c1.79,0,3.2-0.19,4.21-0.56
						c1.01-0.37,1.78-0.96,2.31-1.78c0.53-0.82,0.79-1.7,0.79-2.66c0-1.4-0.51-2.56-1.53-3.46c-1.02-0.9-2.63-1.36-4.83-1.36h-9.4
						V36.63z"/>
				</g>
				<g>
					<path d="M255.67,38.75c0-4.93,1.32-8.79,3.97-11.57c2.65-2.79,6.06-4.18,10.25-4.18c2.74,0,5.21,0.65,7.41,1.96
						c2.2,1.31,3.88,3.14,5.03,5.48c1.15,2.34,1.73,5,1.73,7.97c0,3.01-0.61,5.7-1.82,8.08c-1.22,2.38-2.94,4.18-5.16,5.4
						c-2.23,1.22-4.63,1.83-7.21,1.83c-2.8,0-5.29-0.68-7.49-2.03c-2.2-1.35-3.87-3.19-5-5.53
						C256.23,43.83,255.67,41.36,255.67,38.75z M259.72,38.81c0,3.58,0.96,6.4,2.89,8.45c1.92,2.06,4.34,3.09,7.24,3.09
						c2.96,0,5.39-1.04,7.3-3.12c1.91-2.08,2.87-5.03,2.87-8.85c0-2.42-0.41-4.53-1.23-6.33c-0.82-1.8-2.01-3.2-3.58-4.19
						c-1.57-0.99-3.34-1.49-5.3-1.49c-2.78,0-5.17,0.96-7.18,2.87C260.72,31.15,259.72,34.34,259.72,38.81z"/>
				</g>
			</g>
		</g>
		<g>
			<path d="M86.21,77.84V65.6h1.63v12.25H86.21z"/>
			<path d="M103.63,77.84V65.6h1.67l6.48,9.62V65.6h1.56v12.25h-1.67l-6.48-9.62v9.62H103.63z"/>
			<path d="M129,77.84V65.6h4.25c0.96,0,1.69,0.06,2.2,0.18c0.71,0.16,1.31,0.45,1.81,0.88c0.65,0.55,1.14,1.24,1.46,2.09
				c0.32,0.85,0.48,1.82,0.48,2.91c0,0.93-0.11,1.75-0.33,2.47c-0.22,0.72-0.5,1.31-0.84,1.78c-0.34,0.47-0.72,0.84-1.12,1.11
				c-0.41,0.27-0.9,0.47-1.47,0.61c-0.57,0.14-1.24,0.21-1.98,0.21H129z M130.64,76.4h2.63c0.81,0,1.45-0.08,1.91-0.23
				c0.46-0.15,0.83-0.36,1.11-0.63c0.39-0.39,0.69-0.9,0.9-1.55c0.22-0.65,0.32-1.44,0.32-2.36c0-1.28-0.21-2.26-0.64-2.95
				c-0.42-0.69-0.94-1.15-1.54-1.38c-0.44-0.17-1.14-0.25-2.11-0.25h-2.59V76.4z"/>
			<path d="M153.87,71.88c0-2.03,0.55-3.62,1.65-4.77c1.1-1.15,2.52-1.73,4.26-1.73c1.14,0,2.16,0.27,3.08,0.81
				c0.91,0.54,1.61,1.29,2.09,2.26c0.48,0.97,0.72,2.06,0.72,3.29c0,1.24-0.25,2.35-0.76,3.33c-0.5,0.98-1.22,1.72-2.14,2.23
				c-0.93,0.5-1.92,0.76-2.99,0.76c-1.16,0-2.2-0.28-3.11-0.83c-0.91-0.56-1.61-1.32-2.08-2.28
				C154.11,73.97,153.87,72.95,153.87,71.88z M155.55,71.9c0,1.48,0.4,2.64,1.2,3.49c0.8,0.85,1.8,1.27,3.01,1.27
				c1.23,0,2.24-0.43,3.03-1.29c0.79-0.86,1.19-2.07,1.19-3.65c0-1-0.17-1.87-0.51-2.61c-0.34-0.74-0.84-1.32-1.49-1.73
				c-0.65-0.41-1.39-0.61-2.2-0.61c-1.15,0-2.15,0.39-2.98,1.18C155.97,68.74,155.55,70.06,155.55,71.9z"/>
			<path d="M180.67,77.84V65.6h1.67l6.48,9.62V65.6h1.56v12.25h-1.67l-6.48-9.62v9.62H180.67z"/>
			<path d="M206.08,77.84V65.6H215v1.44h-7.29v3.75h6.82v1.44h-6.82v4.17h7.57v1.44H206.08z"/>
			<path d="M229.9,73.91l1.54-0.13c0.07,0.61,0.24,1.12,0.51,1.51c0.27,0.39,0.68,0.71,1.24,0.95c0.56,0.24,1.19,0.36,1.89,0.36
				c0.62,0,1.17-0.09,1.65-0.28c0.48-0.18,0.83-0.44,1.06-0.76c0.23-0.32,0.35-0.67,0.35-1.05c0-0.39-0.11-0.72-0.34-1.01
				c-0.22-0.29-0.59-0.53-1.11-0.72c-0.33-0.13-1.06-0.33-2.2-0.6c-1.13-0.27-1.93-0.53-2.38-0.76c-0.59-0.31-1.03-0.69-1.32-1.14
				c-0.29-0.45-0.43-0.96-0.43-1.52c0-0.62,0.18-1.2,0.53-1.73c0.35-0.54,0.87-0.94,1.55-1.22c0.68-0.28,1.43-0.42,2.26-0.42
				c0.91,0,1.72,0.15,2.42,0.44c0.7,0.29,1.24,0.72,1.61,1.29c0.38,0.57,0.58,1.21,0.61,1.93l-1.56,0.12
				c-0.08-0.77-0.37-1.36-0.85-1.75c-0.49-0.4-1.2-0.59-2.15-0.59c-0.99,0-1.71,0.18-2.16,0.54c-0.45,0.36-0.68,0.79-0.68,1.3
				c0,0.44,0.16,0.8,0.48,1.09c0.31,0.28,1.13,0.57,2.46,0.87s2.24,0.56,2.73,0.78c0.72,0.33,1.25,0.75,1.59,1.25
				c0.34,0.5,0.51,1.08,0.51,1.74c0,0.65-0.19,1.27-0.56,1.84c-0.38,0.58-0.92,1.03-1.62,1.35c-0.7,0.32-1.5,0.48-2.38,0.48
				c-1.12,0-2.05-0.16-2.81-0.48c-0.75-0.32-1.35-0.81-1.77-1.46C230.15,75.46,229.93,74.73,229.9,73.91z"/>
			<path d="M255.15,77.84V65.6h1.63v12.25H255.15z"/>
			<path d="M271.22,77.84l4.74-12.25h1.76l5.05,12.25h-1.86l-1.44-3.71h-5.16l-1.35,3.71H271.22z M274.78,72.81h4.18l-1.29-3.39
				c-0.39-1.03-0.68-1.88-0.87-2.54c-0.16,0.78-0.38,1.56-0.67,2.34L274.78,72.81z"/>
		</g>
	</g>
	<g>
		<g>
			<path class="st0" d="M75.86,21.52H19.59c-2.01,0-3.65,1.63-3.65,3.65v49.67c0,2.01,1.63,3.65,3.65,3.65h56.27
				c2.01,0,3.65-1.63,3.65-3.65V25.16C79.51,23.15,77.87,21.52,75.86,21.52z"/>
		</g>
		<g>
			<g>
				<g>
					<path class="st1" d="M42.3,32.21l5.25-10.69h2.9l5.84,10.83c0.2,0.37,0.22,0.82,0.05,1.21l-11,25.37c0,0-14.22,0-18.96,0
						c-3.9,0-9.06-3.58-6.31-12.71C23.87,33.61,31.55,31.67,42.3,32.21z"/>
				</g>
				<g>
					<path class="st2" d="M49.78,41.82h-12.5c-2.21,0-4.16,1.44-4.82,3.55l-0.58,1.88c-0.34,1.1,0.48,2.22,1.64,2.22h12.95
						L49.78,41.82z"/>
				</g>
			</g>
			<g>
				<g>
					<path class="st1" d="M53.15,67.79L47.9,78.48H45l-5.84-10.83c-0.2-0.37-0.22-0.82-0.05-1.21l11-25.37c0,0,14.22,0,18.96,0
						c3.9,0,9.06,3.58,6.31,12.71C71.58,66.39,63.9,68.33,53.15,67.79z"/>
				</g>
				<g>
					<path class="st3" d="M45.67,58.18h12.5c2.21,0,4.16-1.44,4.82-3.55l0.58-1.88c0.34-1.1-0.48-2.22-1.64-2.22H48.99L45.67,58.18z
						"/>
				</g>
			</g>
		</g>
		<g>
			<g>
				<path class="st2" d="M39.15,67.65c-0.2-0.37-0.22-0.82-0.05-1.21l3.25-7.5c-4.44,0-12.6,0-15.97,0c-3.9,0-9.06-3.58-6.31-12.71
					c3.79-12.61,11.47-14.55,22.22-14.01l5.25-10.69l0.01-0.01H19.59c-2.01,0-3.65,1.63-3.65,3.65v49.67c0,2.01,1.63,3.65,3.65,3.65
					H45l0-0.01L39.15,67.65z"/>
			</g>
			<g>
				<path class="st3" d="M75.86,21.52H50.44l0.01,0.01l5.84,10.83c0.2,0.37,0.22,0.82,0.05,1.21l-3.25,7.5c4.44,0,12.6,0,15.97,0
					c3.9,0,9.06,3.58,6.31,12.71C71.58,66.39,63.9,68.33,53.15,67.79L47.9,78.48l0,0.01h27.96c2.01,0,3.65-1.63,3.65-3.65V25.16
					C79.51,23.15,77.87,21.52,75.86,21.52z"/>
			</g>
		</g>
		<g>
			<circle class="st1" cx="74.43" cy="73.4" r="2.44"/>
		</g>
	</g>
</g>
</svg>
