<?xml version="1.0" encoding="utf-8"?>
<!-- Generator: Adobe Illustrator 24.3.0, SVG Export Plug-In . SVG Version: 6.00 Build 0)  -->
<svg version="1.1" id="Layer_1" xmlns="http://www.w3.org/2000/svg" xmlns:xlink="http://www.w3.org/1999/xlink" x="0px" y="0px"
	 viewBox="0 0 300 100" style="enable-background:new 0 0 300 100;" xml:space="preserve">
<style type="text/css">
	.st0{fill:#FFFFFF;}
</style>
<g>
	<g>
		<g>
			<g>
				<g>
					<path class="st0" d="M85.5,23.3h13.6c2.7,0,4.9,0.4,6.5,1.1s3,1.8,4.1,3.1c1.1,1.4,1.9,3,2.3,4.8s0.7,3.7,0.7,5.8
						c0,3.2-0.4,5.6-1.1,7.4s-1.7,3.2-3,4.4c-1.3,1.2-2.7,2-4.1,2.4c-2,0.5-3.8,0.8-5.5,0.8H85.5V23.3z M94.6,30v16.2h2.2
						c1.9,0,3.3-0.2,4.1-0.6s1.4-1.2,1.9-2.2s0.7-2.8,0.7-5.2c0-3.2-0.5-5.3-1.5-6.5S99.3,30,96.9,30C96.9,30,94.6,30,94.6,30z"/>
				</g>
				<g>
					<path class="st0" d="M116.6,23.3h24.6v6.3h-15.4v4.7H140v6h-14.3v5.8h15.8V53h-25L116.6,23.3L116.6,23.3z"/>
				</g>
				<g>
					<path class="st0" d="M163.7,48.1h-10.4l-1.4,4.9h-9.4l11.2-29.7h10L174.8,53h-9.6L163.7,48.1z M161.8,41.7L158.6,31l-3.2,10.7
						H161.8z"/>
				</g>
				<g>
					<path class="st0" d="M176.7,23.3h9.2v22.4h14.3V53h-23.5V23.3z"/>
				</g>
			</g>
			<g>
				<g>
					<path class="st0" d="M203.4,53.2V23.5h11.2c2,0,3.5,0.1,4.5,0.3c1.5,0.2,2.7,0.7,3.7,1.4s1.8,1.6,2.4,2.9
						c0.6,1.2,0.9,2.6,0.9,4c0,2.5-0.8,4.7-2.4,6.4s-4.5,2.6-8.7,2.6h-7.6v12.1H203.4z M207.3,37.6h7.7c2.5,0,4.3-0.5,5.4-1.4
						c1.1-0.9,1.6-2.3,1.6-4c0-1.2-0.3-2.3-0.9-3.2s-1.5-1.5-2.5-1.8c-0.7-0.2-1.9-0.3-3.7-0.3h-7.6L207.3,37.6L207.3,37.6z"/>
				</g>
				<g>
					<path class="st0" d="M229,53.2V23.5h13.2c2.6,0,4.7,0.3,6,0.8c1.4,0.5,2.5,1.5,3.3,2.8s1.2,2.8,1.2,4.5c0,2.1-0.7,3.9-2.1,5.3
						c-1.4,1.4-3.5,2.4-6.3,2.8c1,0.5,1.8,1,2.4,1.5c1.1,1,2.2,2.4,3.3,4l5.2,8.1h-4.9l-3.9-6.2c-1.1-1.8-2.1-3.2-2.8-4.1
						s-1.4-1.6-2-2c-0.6-0.4-1.2-0.6-1.8-0.8c-0.4-0.1-1.2-0.1-2.2-0.1h-4.6v13.2H229z M233,36.6h8.4c1.8,0,3.2-0.2,4.2-0.6
						c1-0.4,1.8-1,2.3-1.8s0.8-1.7,0.8-2.7c0-1.4-0.5-2.6-1.5-3.5s-2.6-1.4-4.8-1.4H233L233,36.6L233,36.6z"/>
				</g>
				<g>
					<path class="st0" d="M255.7,38.8c0-4.9,1.3-8.8,4-11.6c2.6-2.8,6.1-4.2,10.2-4.2c2.7,0,5.2,0.6,7.4,2s3.9,3.1,5,5.5
						s1.7,5,1.7,8c0,3-0.6,5.7-1.8,8.1c-1.2,2.4-2.9,4.2-5.2,5.4c-2.2,1.2-4.6,1.8-7.2,1.8c-2.8,0-5.3-0.7-7.5-2
						c-2.2-1.3-3.9-3.2-5-5.5C256.2,43.8,255.7,41.4,255.7,38.8z M259.7,38.8c0,3.6,1,6.4,2.9,8.5c1.9,2.1,4.3,3.1,7.2,3.1
						c3,0,5.4-1,7.3-3.1c1.9-2.1,2.9-5,2.9-8.8c0-2.4-0.4-4.5-1.2-6.3c-0.8-1.8-2-3.2-3.6-4.2c-1.6-1-3.3-1.5-5.3-1.5
						c-2.8,0-5.2,1-7.2,2.9C260.7,31.1,259.7,34.3,259.7,38.8z"/>
				</g>
			</g>
		</g>
		<g>
			<path class="st0" d="M86.2,77.8V65.6h1.6v12.2L86.2,77.8L86.2,77.8z"/>
			<path class="st0" d="M103.6,77.8V65.6h1.7l6.5,9.6v-9.6h1.6v12.2h-1.7l-6.5-9.6v9.6L103.6,77.8L103.6,77.8z"/>
			<path class="st0" d="M129,77.8V65.6h4.2c1,0,1.7,0.1,2.2,0.2c0.7,0.2,1.3,0.4,1.8,0.9c0.6,0.6,1.1,1.2,1.5,2.1s0.5,1.8,0.5,2.9
				c0,0.9-0.1,1.8-0.3,2.5s-0.5,1.3-0.8,1.8s-0.7,0.8-1.1,1.1c-0.4,0.3-0.9,0.5-1.5,0.6s-1.2,0.2-2,0.2H129z M130.6,76.4h2.6
				c0.8,0,1.4-0.1,1.9-0.2s0.8-0.4,1.1-0.6c0.4-0.4,0.7-0.9,0.9-1.6c0.2-0.7,0.3-1.4,0.3-2.4c0-1.3-0.2-2.3-0.6-2.9
				c-0.4-0.7-0.9-1.2-1.5-1.4c-0.4-0.2-1.1-0.2-2.1-0.2h-2.6L130.6,76.4L130.6,76.4z"/>
			<path class="st0" d="M153.9,71.9c0-2,0.6-3.6,1.6-4.8c1.1-1.2,2.5-1.7,4.3-1.7c1.1,0,2.2,0.3,3.1,0.8c0.9,0.5,1.6,1.3,2.1,2.3
				s0.7,2.1,0.7,3.3c0,1.2-0.2,2.3-0.8,3.3c-0.5,1-1.2,1.7-2.1,2.2c-0.9,0.5-1.9,0.8-3,0.8c-1.2,0-2.2-0.3-3.1-0.8
				c-0.9-0.6-1.6-1.3-2.1-2.3C154.1,74,153.9,72.9,153.9,71.9z M155.6,71.9c0,1.5,0.4,2.6,1.2,3.5s1.8,1.3,3,1.3
				c1.2,0,2.2-0.4,3-1.3s1.2-2.1,1.2-3.7c0-1-0.2-1.9-0.5-2.6s-0.8-1.3-1.5-1.7c-0.6-0.4-1.4-0.6-2.2-0.6c-1.1,0-2.1,0.4-3,1.2
				C156,68.7,155.6,70.1,155.6,71.9z"/>
			<path class="st0" d="M180.7,77.8V65.6h1.7l6.5,9.6v-9.6h1.6v12.2h-1.7l-6.5-9.6v9.6L180.7,77.8L180.7,77.8z"/>
			<path class="st0" d="M206.1,77.8V65.6h8.9V67h-7.3v3.8h6.8v1.4h-6.8v4.2h7.6v1.4C215.3,77.8,206.1,77.8,206.1,77.8z"/>
			<path class="st0" d="M229.9,73.9l1.5-0.1c0.1,0.6,0.2,1.1,0.5,1.5c0.3,0.4,0.7,0.7,1.2,0.9c0.6,0.2,1.2,0.4,1.9,0.4
				c0.6,0,1.2-0.1,1.6-0.3c0.5-0.2,0.8-0.4,1.1-0.8s0.4-0.7,0.4-1.1c0-0.4-0.1-0.7-0.3-1c-0.2-0.3-0.6-0.5-1.1-0.7
				c-0.3-0.1-1.1-0.3-2.2-0.6c-1.1-0.3-1.9-0.5-2.4-0.8c-0.6-0.3-1-0.7-1.3-1.1c-0.3-0.4-0.4-1-0.4-1.5c0-0.6,0.2-1.2,0.5-1.7
				c0.4-0.5,0.9-0.9,1.6-1.2c0.7-0.3,1.4-0.4,2.3-0.4c0.9,0,1.7,0.2,2.4,0.4s1.2,0.7,1.6,1.3c0.4,0.6,0.6,1.2,0.6,1.9l-1.6,0.1
				c-0.1-0.8-0.4-1.4-0.9-1.8c-0.5-0.4-1.2-0.6-2.1-0.6c-1,0-1.7,0.2-2.2,0.5s-0.7,0.8-0.7,1.3c0,0.4,0.2,0.8,0.5,1.1
				c0.3,0.3,1.1,0.6,2.5,0.9s2.2,0.6,2.7,0.8c0.7,0.3,1.2,0.8,1.6,1.2s0.5,1.1,0.5,1.7c0,0.7-0.2,1.3-0.6,1.8
				c-0.4,0.6-0.9,1-1.6,1.3s-1.5,0.5-2.4,0.5c-1.1,0-2.1-0.2-2.8-0.5c-0.8-0.3-1.4-0.8-1.8-1.5C230.1,75.5,229.9,74.7,229.9,73.9z"
				/>
			<path class="st0" d="M255.1,77.8V65.6h1.6v12.2L255.1,77.8L255.1,77.8z"/>
			<path class="st0" d="M271.2,77.8l4.7-12.2h1.8l5,12.2h-1.9l-1.4-3.7h-5.2l-1.4,3.7H271.2z M274.8,72.8h4.2l-1.3-3.4
				c-0.4-1-0.7-1.9-0.9-2.5c-0.2,0.8-0.4,1.6-0.7,2.3L274.8,72.8z"/>
		</g>
	</g>
	<g>
		<path class="st0" d="M49.8,41.8H37.3c-2.2,0-4.2,1.4-4.8,3.5l-0.6,1.9c-0.3,1.1,0.5,2.2,1.6,2.2h12.9l1-2.4L49.8,41.8z"/>
		<path class="st0" d="M45.7,58.2h12.5c2.2,0,4.2-1.4,4.8-3.5l0.6-1.9c0.3-1.1-0.5-2.2-1.6-2.2H49L45.7,58.2z"/>
		<path class="st0" d="M39.2,67.7c-0.2-0.4-0.2-0.8-0.1-1.2l3.2-7.5c-4.4,0-12.6,0-16,0c-3.2,0-7.2-2.4-7.1-8.2
			c0-1.3,0.3-2.9,0.8-4.6c3.8-12.6,11.5-14.5,22.2-14l5.2-10.7l0,0h-28c-2,0-3.7,1.6-3.7,3.6v49.7c0,2,1.6,3.7,3.7,3.7H45v0
			L39.2,67.7z"/>
		<path class="st0" d="M75.9,21.5H50.5l5.8,10.8c0.1,0.2,0.2,0.4,0.2,0.6c0,0.2,0,0.4-0.1,0.6l-3.2,7.5c4.4,0,12.6,0,16,0
			c0,0,0,0,0,0c3.9,0,9.1,3.6,6.3,12.7C72.2,64.4,66.2,67.5,58,67.8c-1.5,0.1-3.1,0-4.8,0l-5.2,10.7v0h28c1.3,0,2.4-0.6,3-1.6
			c0.3-0.4,0.5-0.8,0.6-1.3c0-0.2,0.1-0.5,0.1-0.7V25.2C79.5,23.2,77.9,21.5,75.9,21.5z M74.4,75.8c-1.3,0-2.4-1.1-2.4-2.4
			c0-1.3,1.1-2.4,2.4-2.4c1.3,0,2.4,1.1,2.4,2.4C76.9,74.7,75.8,75.8,74.4,75.8z"/>
	</g>
</g>
</svg>
